G04 #@! TF.GenerationSoftware,KiCad,Pcbnew,5.1.9+dfsg1-1+deb11u1*
G04 #@! TF.CreationDate,2024-03-25T13:58:39+09:00*
G04 #@! TF.ProjectId,base,62617365-2e6b-4696-9361-645f70636258,rev?*
G04 #@! TF.SameCoordinates,Original*
G04 #@! TF.FileFunction,Legend,Top*
G04 #@! TF.FilePolarity,Positive*
%FSLAX46Y46*%
G04 Gerber Fmt 4.6, Leading zero omitted, Abs format (unit mm)*
G04 Created by KiCad (PCBNEW 5.1.9+dfsg1-1+deb11u1) date 2024-03-25 13:58:39*
%MOMM*%
%LPD*%
G01*
G04 APERTURE LIST*
%ADD10C,0.150000*%
%ADD11C,0.010000*%
%ADD12C,7.000000*%
%ADD13C,10.000000*%
%ADD14C,9.500000*%
%ADD15C,2.500000*%
%ADD16C,2.000000*%
G04 APERTURE END LIST*
D10*
X155190476Y-143952380D02*
X155761904Y-143952380D01*
X155476190Y-144952380D02*
X155476190Y-143952380D01*
X156238095Y-144952380D02*
X156142857Y-144904761D01*
X156095238Y-144857142D01*
X156047619Y-144761904D01*
X156047619Y-144476190D01*
X156095238Y-144380952D01*
X156142857Y-144333333D01*
X156238095Y-144285714D01*
X156380952Y-144285714D01*
X156476190Y-144333333D01*
X156523809Y-144380952D01*
X156571428Y-144476190D01*
X156571428Y-144761904D01*
X156523809Y-144857142D01*
X156476190Y-144904761D01*
X156380952Y-144952380D01*
X156238095Y-144952380D01*
X157142857Y-144952380D02*
X157047619Y-144904761D01*
X157000000Y-144857142D01*
X156952380Y-144761904D01*
X156952380Y-144476190D01*
X157000000Y-144380952D01*
X157047619Y-144333333D01*
X157142857Y-144285714D01*
X157285714Y-144285714D01*
X157380952Y-144333333D01*
X157428571Y-144380952D01*
X157476190Y-144476190D01*
X157476190Y-144761904D01*
X157428571Y-144857142D01*
X157380952Y-144904761D01*
X157285714Y-144952380D01*
X157142857Y-144952380D01*
X158047619Y-144952380D02*
X157952380Y-144904761D01*
X157904761Y-144809523D01*
X157904761Y-143952380D01*
X159619047Y-144904761D02*
X159523809Y-144952380D01*
X159333333Y-144952380D01*
X159238095Y-144904761D01*
X159190476Y-144857142D01*
X159142857Y-144761904D01*
X159142857Y-144476190D01*
X159190476Y-144380952D01*
X159238095Y-144333333D01*
X159333333Y-144285714D01*
X159523809Y-144285714D01*
X159619047Y-144333333D01*
X160047619Y-144952380D02*
X160047619Y-143952380D01*
X160476190Y-144952380D02*
X160476190Y-144428571D01*
X160428571Y-144333333D01*
X160333333Y-144285714D01*
X160190476Y-144285714D01*
X160095238Y-144333333D01*
X160047619Y-144380952D01*
X161380952Y-144952380D02*
X161380952Y-144428571D01*
X161333333Y-144333333D01*
X161238095Y-144285714D01*
X161047619Y-144285714D01*
X160952380Y-144333333D01*
X161380952Y-144904761D02*
X161285714Y-144952380D01*
X161047619Y-144952380D01*
X160952380Y-144904761D01*
X160904761Y-144809523D01*
X160904761Y-144714285D01*
X160952380Y-144619047D01*
X161047619Y-144571428D01*
X161285714Y-144571428D01*
X161380952Y-144523809D01*
X161857142Y-144285714D02*
X161857142Y-144952380D01*
X161857142Y-144380952D02*
X161904761Y-144333333D01*
X162000000Y-144285714D01*
X162142857Y-144285714D01*
X162238095Y-144333333D01*
X162285714Y-144428571D01*
X162285714Y-144952380D01*
X163190476Y-144285714D02*
X163190476Y-145095238D01*
X163142857Y-145190476D01*
X163095238Y-145238095D01*
X163000000Y-145285714D01*
X162857142Y-145285714D01*
X162761904Y-145238095D01*
X163190476Y-144904761D02*
X163095238Y-144952380D01*
X162904761Y-144952380D01*
X162809523Y-144904761D01*
X162761904Y-144857142D01*
X162714285Y-144761904D01*
X162714285Y-144476190D01*
X162761904Y-144380952D01*
X162809523Y-144333333D01*
X162904761Y-144285714D01*
X163095238Y-144285714D01*
X163190476Y-144333333D01*
X164047619Y-144904761D02*
X163952380Y-144952380D01*
X163761904Y-144952380D01*
X163666666Y-144904761D01*
X163619047Y-144809523D01*
X163619047Y-144428571D01*
X163666666Y-144333333D01*
X163761904Y-144285714D01*
X163952380Y-144285714D01*
X164047619Y-144333333D01*
X164095238Y-144428571D01*
X164095238Y-144523809D01*
X163619047Y-144619047D01*
X164523809Y-144952380D02*
X164523809Y-144285714D01*
X164523809Y-144476190D02*
X164571428Y-144380952D01*
X164619047Y-144333333D01*
X164714285Y-144285714D01*
X164809523Y-144285714D01*
X181686034Y-143909828D02*
X181597176Y-143968497D01*
X181525747Y-144092215D01*
X181495558Y-144239743D01*
X181530418Y-144369840D01*
X181589087Y-144458699D01*
X181730235Y-144595176D01*
X181853952Y-144666605D01*
X182042719Y-144720604D01*
X182149007Y-144726983D01*
X182279105Y-144692124D01*
X182391773Y-144592215D01*
X182439392Y-144509737D01*
X182469581Y-144362209D01*
X182452151Y-144297161D01*
X182163476Y-144130494D01*
X182068238Y-144295451D01*
X182748916Y-143973626D02*
X181882890Y-143473626D01*
X183034630Y-143478754D01*
X182168605Y-142978754D01*
X183272725Y-143066361D02*
X182406700Y-142566361D01*
X182525747Y-142360165D01*
X182638415Y-142260256D01*
X182768513Y-142225397D01*
X182874801Y-142231776D01*
X183063568Y-142285775D01*
X183187286Y-142357204D01*
X183328434Y-142493681D01*
X183387103Y-142582539D01*
X183421962Y-142712637D01*
X183391773Y-142860165D01*
X183272725Y-143066361D01*
X137307585Y-142071489D02*
X136608226Y-142860165D01*
X137640918Y-142648840D01*
X137309752Y-143884767D02*
X137244704Y-143867338D01*
X137132036Y-143767429D01*
X137084417Y-143684951D01*
X137054227Y-143537423D01*
X137089087Y-143407326D01*
X137147756Y-143318467D01*
X137288904Y-143181990D01*
X137412622Y-143110561D01*
X137601388Y-143056562D01*
X137707676Y-143050183D01*
X137837774Y-143085042D01*
X137950442Y-143184951D01*
X137998061Y-143267429D01*
X138028250Y-143414957D01*
X138010821Y-143480006D01*
X137809752Y-144750793D02*
X137744704Y-144733363D01*
X137632036Y-144633455D01*
X137584417Y-144550976D01*
X137554227Y-144403449D01*
X137589087Y-144273351D01*
X137647756Y-144184493D01*
X137788904Y-144048015D01*
X137912622Y-143976587D01*
X138101388Y-143922588D01*
X138207676Y-143916208D01*
X138337774Y-143951068D01*
X138450442Y-144050976D01*
X138498061Y-144133455D01*
X138528250Y-144280982D01*
X138510821Y-144346031D01*
X159500000Y-104452380D02*
X159500000Y-103452380D01*
X159976190Y-104452380D02*
X159976190Y-103452380D01*
X160214285Y-103452380D01*
X160357142Y-103500000D01*
X160452380Y-103595238D01*
X160500000Y-103690476D01*
X160547619Y-103880952D01*
X160547619Y-104023809D01*
X160500000Y-104214285D01*
X160452380Y-104309523D01*
X160357142Y-104404761D01*
X160214285Y-104452380D01*
X159976190Y-104452380D01*
X162738095Y-90000000D02*
X162642857Y-89952380D01*
X162500000Y-89952380D01*
X162357142Y-90000000D01*
X162261904Y-90095238D01*
X162214285Y-90190476D01*
X162166666Y-90380952D01*
X162166666Y-90523809D01*
X162214285Y-90714285D01*
X162261904Y-90809523D01*
X162357142Y-90904761D01*
X162500000Y-90952380D01*
X162595238Y-90952380D01*
X162738095Y-90904761D01*
X162785714Y-90857142D01*
X162785714Y-90523809D01*
X162595238Y-90523809D01*
X163214285Y-90952380D02*
X163214285Y-89952380D01*
X163785714Y-90952380D01*
X163785714Y-89952380D01*
X164261904Y-90952380D02*
X164261904Y-89952380D01*
X164500000Y-89952380D01*
X164642857Y-90000000D01*
X164738095Y-90095238D01*
X164785714Y-90190476D01*
X164833333Y-90380952D01*
X164833333Y-90523809D01*
X164785714Y-90714285D01*
X164738095Y-90809523D01*
X164642857Y-90904761D01*
X164500000Y-90952380D01*
X164261904Y-90952380D01*
X159500000Y-90952380D02*
X159500000Y-89952380D01*
X159976190Y-90952380D02*
X159976190Y-89952380D01*
X160214285Y-89952380D01*
X160357142Y-90000000D01*
X160452380Y-90095238D01*
X160500000Y-90190476D01*
X160547619Y-90380952D01*
X160547619Y-90523809D01*
X160500000Y-90714285D01*
X160452380Y-90809523D01*
X160357142Y-90904761D01*
X160214285Y-90952380D01*
X159976190Y-90952380D01*
X155166666Y-89952380D02*
X155500000Y-90952380D01*
X155833333Y-89952380D01*
X156738095Y-90857142D02*
X156690476Y-90904761D01*
X156547619Y-90952380D01*
X156452380Y-90952380D01*
X156309523Y-90904761D01*
X156214285Y-90809523D01*
X156166666Y-90714285D01*
X156119047Y-90523809D01*
X156119047Y-90380952D01*
X156166666Y-90190476D01*
X156214285Y-90095238D01*
X156309523Y-90000000D01*
X156452380Y-89952380D01*
X156547619Y-89952380D01*
X156690476Y-90000000D01*
X156738095Y-90047619D01*
X157738095Y-90857142D02*
X157690476Y-90904761D01*
X157547619Y-90952380D01*
X157452380Y-90952380D01*
X157309523Y-90904761D01*
X157214285Y-90809523D01*
X157166666Y-90714285D01*
X157119047Y-90523809D01*
X157119047Y-90380952D01*
X157166666Y-90190476D01*
X157214285Y-90095238D01*
X157309523Y-90000000D01*
X157452380Y-89952380D01*
X157547619Y-89952380D01*
X157690476Y-90000000D01*
X157738095Y-90047619D01*
D11*
G36*
X155762031Y-142028865D02*
G01*
X155793939Y-142029486D01*
X155818496Y-142030878D01*
X155838377Y-142033285D01*
X155856255Y-142036956D01*
X155874803Y-142042135D01*
X155878850Y-142043380D01*
X155939364Y-142066728D01*
X155993096Y-142097743D01*
X156043596Y-142138591D01*
X156058237Y-142152677D01*
X156107450Y-142201660D01*
X156107450Y-142050800D01*
X156374150Y-142050800D01*
X156374150Y-143244600D01*
X156107450Y-143244600D01*
X156107256Y-143166812D01*
X156106862Y-143133203D01*
X156105814Y-143111337D01*
X156104016Y-143100270D01*
X156101372Y-143099058D01*
X156100504Y-143100293D01*
X156089753Y-143113377D01*
X156070893Y-143131230D01*
X156046520Y-143151795D01*
X156019235Y-143173016D01*
X155991636Y-143192834D01*
X155966321Y-143209193D01*
X155954501Y-143215872D01*
X155914054Y-143235291D01*
X155875705Y-143249224D01*
X155835747Y-143258546D01*
X155790478Y-143264133D01*
X155739150Y-143266779D01*
X155703758Y-143267332D01*
X155669532Y-143267067D01*
X155640220Y-143266064D01*
X155619571Y-143264400D01*
X155618500Y-143264254D01*
X155577727Y-143256036D01*
X155531378Y-143242818D01*
X155484133Y-143226226D01*
X155440671Y-143207887D01*
X155408950Y-143191407D01*
X155338184Y-143142389D01*
X155276561Y-143084859D01*
X155224435Y-143019470D01*
X155182159Y-142946877D01*
X155150086Y-142867734D01*
X155128571Y-142782696D01*
X155117968Y-142692418D01*
X155117033Y-142657650D01*
X155408950Y-142657650D01*
X155414334Y-142727751D01*
X155430270Y-142791168D01*
X155456435Y-142847457D01*
X155492505Y-142896174D01*
X155538155Y-142936877D01*
X155593062Y-142969120D01*
X155652441Y-142991210D01*
X155688691Y-142998350D01*
X155732365Y-143002028D01*
X155778653Y-143002190D01*
X155822747Y-142998778D01*
X155852859Y-142993522D01*
X155910951Y-142973665D01*
X155962804Y-142943432D01*
X156007111Y-142903855D01*
X156042560Y-142855963D01*
X156053580Y-142835504D01*
X156080309Y-142769526D01*
X156095063Y-142704754D01*
X156098156Y-142639194D01*
X156092771Y-142586802D01*
X156076109Y-142519211D01*
X156049777Y-142459125D01*
X156014513Y-142407186D01*
X155971053Y-142364031D01*
X155920135Y-142330301D01*
X155862496Y-142306636D01*
X155798872Y-142293674D01*
X155752244Y-142291302D01*
X155686104Y-142296410D01*
X155627535Y-142311049D01*
X155575131Y-142335768D01*
X155527489Y-142371112D01*
X155513605Y-142384175D01*
X155471680Y-142434181D01*
X155440487Y-142490696D01*
X155419951Y-142553915D01*
X155409996Y-142624033D01*
X155408950Y-142657650D01*
X155117033Y-142657650D01*
X155116850Y-142650875D01*
X155122393Y-142560316D01*
X155138718Y-142473511D01*
X155165370Y-142391591D01*
X155201894Y-142315688D01*
X155247834Y-142246931D01*
X155302733Y-142186452D01*
X155304640Y-142184659D01*
X155343298Y-142150620D01*
X155379857Y-142123659D01*
X155419369Y-142100357D01*
X155455474Y-142082528D01*
X155497932Y-142063756D01*
X155535460Y-142049813D01*
X155571370Y-142040025D01*
X155608975Y-142033719D01*
X155651587Y-142030222D01*
X155702521Y-142028861D01*
X155720100Y-142028768D01*
X155762031Y-142028865D01*
G37*
X155762031Y-142028865D02*
X155793939Y-142029486D01*
X155818496Y-142030878D01*
X155838377Y-142033285D01*
X155856255Y-142036956D01*
X155874803Y-142042135D01*
X155878850Y-142043380D01*
X155939364Y-142066728D01*
X155993096Y-142097743D01*
X156043596Y-142138591D01*
X156058237Y-142152677D01*
X156107450Y-142201660D01*
X156107450Y-142050800D01*
X156374150Y-142050800D01*
X156374150Y-143244600D01*
X156107450Y-143244600D01*
X156107256Y-143166812D01*
X156106862Y-143133203D01*
X156105814Y-143111337D01*
X156104016Y-143100270D01*
X156101372Y-143099058D01*
X156100504Y-143100293D01*
X156089753Y-143113377D01*
X156070893Y-143131230D01*
X156046520Y-143151795D01*
X156019235Y-143173016D01*
X155991636Y-143192834D01*
X155966321Y-143209193D01*
X155954501Y-143215872D01*
X155914054Y-143235291D01*
X155875705Y-143249224D01*
X155835747Y-143258546D01*
X155790478Y-143264133D01*
X155739150Y-143266779D01*
X155703758Y-143267332D01*
X155669532Y-143267067D01*
X155640220Y-143266064D01*
X155619571Y-143264400D01*
X155618500Y-143264254D01*
X155577727Y-143256036D01*
X155531378Y-143242818D01*
X155484133Y-143226226D01*
X155440671Y-143207887D01*
X155408950Y-143191407D01*
X155338184Y-143142389D01*
X155276561Y-143084859D01*
X155224435Y-143019470D01*
X155182159Y-142946877D01*
X155150086Y-142867734D01*
X155128571Y-142782696D01*
X155117968Y-142692418D01*
X155117033Y-142657650D01*
X155408950Y-142657650D01*
X155414334Y-142727751D01*
X155430270Y-142791168D01*
X155456435Y-142847457D01*
X155492505Y-142896174D01*
X155538155Y-142936877D01*
X155593062Y-142969120D01*
X155652441Y-142991210D01*
X155688691Y-142998350D01*
X155732365Y-143002028D01*
X155778653Y-143002190D01*
X155822747Y-142998778D01*
X155852859Y-142993522D01*
X155910951Y-142973665D01*
X155962804Y-142943432D01*
X156007111Y-142903855D01*
X156042560Y-142855963D01*
X156053580Y-142835504D01*
X156080309Y-142769526D01*
X156095063Y-142704754D01*
X156098156Y-142639194D01*
X156092771Y-142586802D01*
X156076109Y-142519211D01*
X156049777Y-142459125D01*
X156014513Y-142407186D01*
X155971053Y-142364031D01*
X155920135Y-142330301D01*
X155862496Y-142306636D01*
X155798872Y-142293674D01*
X155752244Y-142291302D01*
X155686104Y-142296410D01*
X155627535Y-142311049D01*
X155575131Y-142335768D01*
X155527489Y-142371112D01*
X155513605Y-142384175D01*
X155471680Y-142434181D01*
X155440487Y-142490696D01*
X155419951Y-142553915D01*
X155409996Y-142624033D01*
X155408950Y-142657650D01*
X155117033Y-142657650D01*
X155116850Y-142650875D01*
X155122393Y-142560316D01*
X155138718Y-142473511D01*
X155165370Y-142391591D01*
X155201894Y-142315688D01*
X155247834Y-142246931D01*
X155302733Y-142186452D01*
X155304640Y-142184659D01*
X155343298Y-142150620D01*
X155379857Y-142123659D01*
X155419369Y-142100357D01*
X155455474Y-142082528D01*
X155497932Y-142063756D01*
X155535460Y-142049813D01*
X155571370Y-142040025D01*
X155608975Y-142033719D01*
X155651587Y-142030222D01*
X155702521Y-142028861D01*
X155720100Y-142028768D01*
X155762031Y-142028865D01*
G36*
X158469380Y-142027971D02*
G01*
X158501150Y-142031330D01*
X158584657Y-142049773D01*
X158663403Y-142079593D01*
X158736491Y-142120068D01*
X158803027Y-142170479D01*
X158862114Y-142230103D01*
X158912856Y-142298220D01*
X158954359Y-142374110D01*
X158968590Y-142407541D01*
X158987684Y-142462602D01*
X159000821Y-142516745D01*
X159008700Y-142573970D01*
X159012020Y-142638280D01*
X159012225Y-142657225D01*
X159012054Y-142691496D01*
X159011349Y-142721843D01*
X159010211Y-142745715D01*
X159008740Y-142760563D01*
X159008011Y-142763587D01*
X159006559Y-142765708D01*
X159003489Y-142767541D01*
X158997934Y-142769108D01*
X158989029Y-142770429D01*
X158975905Y-142771525D01*
X158957697Y-142772417D01*
X158933537Y-142773126D01*
X158902559Y-142773671D01*
X158863896Y-142774076D01*
X158816680Y-142774359D01*
X158760046Y-142774542D01*
X158693126Y-142774646D01*
X158615054Y-142774691D01*
X158545360Y-142774700D01*
X158087273Y-142774700D01*
X158091559Y-142792162D01*
X158104756Y-142828015D01*
X158126105Y-142865671D01*
X158152826Y-142900459D01*
X158161357Y-142909519D01*
X158206231Y-142947099D01*
X158256908Y-142974789D01*
X158314402Y-142992962D01*
X158379723Y-143001989D01*
X158416593Y-143003191D01*
X158478819Y-142999367D01*
X158532957Y-142987137D01*
X158581089Y-142965705D01*
X158625294Y-142934274D01*
X158645614Y-142915516D01*
X158672354Y-142889000D01*
X158984855Y-142889000D01*
X158980430Y-142903287D01*
X158962589Y-142946147D01*
X158934985Y-142992812D01*
X158899093Y-143041174D01*
X158856390Y-143089124D01*
X158836723Y-143108686D01*
X158782263Y-143155946D01*
X158726589Y-143193497D01*
X158666305Y-143223241D01*
X158598011Y-143247079D01*
X158580775Y-143251936D01*
X158553569Y-143257331D01*
X158517150Y-143261779D01*
X158474979Y-143265121D01*
X158430520Y-143267197D01*
X158387234Y-143267846D01*
X158348582Y-143266909D01*
X158318029Y-143264226D01*
X158317250Y-143264114D01*
X158230464Y-143245388D01*
X158148399Y-143215818D01*
X158072014Y-143176194D01*
X158002265Y-143127310D01*
X157940110Y-143069957D01*
X157886507Y-143004927D01*
X157842412Y-142933012D01*
X157808785Y-142855004D01*
X157803542Y-142839194D01*
X157783008Y-142753645D01*
X157774645Y-142667024D01*
X157778175Y-142580621D01*
X157788864Y-142520700D01*
X158076052Y-142520700D01*
X158730855Y-142520700D01*
X158726843Y-142506412D01*
X158716318Y-142477920D01*
X158700630Y-142446053D01*
X158682212Y-142415029D01*
X158663495Y-142389063D01*
X158651908Y-142376511D01*
X158609742Y-142342995D01*
X158564809Y-142318478D01*
X158514902Y-142302194D01*
X158457815Y-142293377D01*
X158405846Y-142291188D01*
X158370597Y-142291507D01*
X158343719Y-142293140D01*
X158320904Y-142296661D01*
X158297844Y-142302644D01*
X158282021Y-142307681D01*
X158223957Y-142332397D01*
X158175259Y-142365245D01*
X158135094Y-142407020D01*
X158102625Y-142458519D01*
X158086770Y-142493712D01*
X158076052Y-142520700D01*
X157788864Y-142520700D01*
X157793320Y-142495727D01*
X157819802Y-142413633D01*
X157857344Y-142335629D01*
X157905668Y-142263006D01*
X157935279Y-142227446D01*
X157984754Y-142179783D01*
X158043634Y-142135437D01*
X158108700Y-142096374D01*
X158176729Y-142064562D01*
X158234700Y-142044629D01*
X158272520Y-142036545D01*
X158318892Y-142030638D01*
X158369821Y-142027107D01*
X158421315Y-142026152D01*
X158469380Y-142027971D01*
G37*
X158469380Y-142027971D02*
X158501150Y-142031330D01*
X158584657Y-142049773D01*
X158663403Y-142079593D01*
X158736491Y-142120068D01*
X158803027Y-142170479D01*
X158862114Y-142230103D01*
X158912856Y-142298220D01*
X158954359Y-142374110D01*
X158968590Y-142407541D01*
X158987684Y-142462602D01*
X159000821Y-142516745D01*
X159008700Y-142573970D01*
X159012020Y-142638280D01*
X159012225Y-142657225D01*
X159012054Y-142691496D01*
X159011349Y-142721843D01*
X159010211Y-142745715D01*
X159008740Y-142760563D01*
X159008011Y-142763587D01*
X159006559Y-142765708D01*
X159003489Y-142767541D01*
X158997934Y-142769108D01*
X158989029Y-142770429D01*
X158975905Y-142771525D01*
X158957697Y-142772417D01*
X158933537Y-142773126D01*
X158902559Y-142773671D01*
X158863896Y-142774076D01*
X158816680Y-142774359D01*
X158760046Y-142774542D01*
X158693126Y-142774646D01*
X158615054Y-142774691D01*
X158545360Y-142774700D01*
X158087273Y-142774700D01*
X158091559Y-142792162D01*
X158104756Y-142828015D01*
X158126105Y-142865671D01*
X158152826Y-142900459D01*
X158161357Y-142909519D01*
X158206231Y-142947099D01*
X158256908Y-142974789D01*
X158314402Y-142992962D01*
X158379723Y-143001989D01*
X158416593Y-143003191D01*
X158478819Y-142999367D01*
X158532957Y-142987137D01*
X158581089Y-142965705D01*
X158625294Y-142934274D01*
X158645614Y-142915516D01*
X158672354Y-142889000D01*
X158984855Y-142889000D01*
X158980430Y-142903287D01*
X158962589Y-142946147D01*
X158934985Y-142992812D01*
X158899093Y-143041174D01*
X158856390Y-143089124D01*
X158836723Y-143108686D01*
X158782263Y-143155946D01*
X158726589Y-143193497D01*
X158666305Y-143223241D01*
X158598011Y-143247079D01*
X158580775Y-143251936D01*
X158553569Y-143257331D01*
X158517150Y-143261779D01*
X158474979Y-143265121D01*
X158430520Y-143267197D01*
X158387234Y-143267846D01*
X158348582Y-143266909D01*
X158318029Y-143264226D01*
X158317250Y-143264114D01*
X158230464Y-143245388D01*
X158148399Y-143215818D01*
X158072014Y-143176194D01*
X158002265Y-143127310D01*
X157940110Y-143069957D01*
X157886507Y-143004927D01*
X157842412Y-142933012D01*
X157808785Y-142855004D01*
X157803542Y-142839194D01*
X157783008Y-142753645D01*
X157774645Y-142667024D01*
X157778175Y-142580621D01*
X157788864Y-142520700D01*
X158076052Y-142520700D01*
X158730855Y-142520700D01*
X158726843Y-142506412D01*
X158716318Y-142477920D01*
X158700630Y-142446053D01*
X158682212Y-142415029D01*
X158663495Y-142389063D01*
X158651908Y-142376511D01*
X158609742Y-142342995D01*
X158564809Y-142318478D01*
X158514902Y-142302194D01*
X158457815Y-142293377D01*
X158405846Y-142291188D01*
X158370597Y-142291507D01*
X158343719Y-142293140D01*
X158320904Y-142296661D01*
X158297844Y-142302644D01*
X158282021Y-142307681D01*
X158223957Y-142332397D01*
X158175259Y-142365245D01*
X158135094Y-142407020D01*
X158102625Y-142458519D01*
X158086770Y-142493712D01*
X158076052Y-142520700D01*
X157788864Y-142520700D01*
X157793320Y-142495727D01*
X157819802Y-142413633D01*
X157857344Y-142335629D01*
X157905668Y-142263006D01*
X157935279Y-142227446D01*
X157984754Y-142179783D01*
X158043634Y-142135437D01*
X158108700Y-142096374D01*
X158176729Y-142064562D01*
X158234700Y-142044629D01*
X158272520Y-142036545D01*
X158318892Y-142030638D01*
X158369821Y-142027107D01*
X158421315Y-142026152D01*
X158469380Y-142027971D01*
G36*
X160024867Y-141629879D02*
G01*
X160077986Y-141633093D01*
X160124699Y-141638582D01*
X160149931Y-141643367D01*
X160251673Y-141672930D01*
X160346142Y-141712885D01*
X160433245Y-141763168D01*
X160512889Y-141823713D01*
X160584980Y-141894454D01*
X160649424Y-141975327D01*
X160670319Y-142006268D01*
X160716613Y-142089146D01*
X160753038Y-142178436D01*
X160779148Y-142272089D01*
X160794494Y-142368057D01*
X160798629Y-142464290D01*
X160791104Y-142558740D01*
X160791095Y-142558800D01*
X160782849Y-142610150D01*
X160773854Y-142653443D01*
X160762884Y-142693310D01*
X160748711Y-142734383D01*
X160735910Y-142767119D01*
X160692262Y-142858564D01*
X160638734Y-142942365D01*
X160575966Y-143017990D01*
X160504600Y-143084907D01*
X160425279Y-143142582D01*
X160338644Y-143190483D01*
X160245337Y-143228076D01*
X160149225Y-143254155D01*
X160118318Y-143259021D01*
X160078302Y-143262919D01*
X160032737Y-143265729D01*
X159985184Y-143267329D01*
X159939206Y-143267600D01*
X159898363Y-143266420D01*
X159866650Y-143263727D01*
X159768073Y-143244467D01*
X159673039Y-143213646D01*
X159582612Y-143171994D01*
X159497860Y-143120241D01*
X159419849Y-143059116D01*
X159349646Y-142989350D01*
X159288316Y-142911672D01*
X159241926Y-142836229D01*
X159202555Y-142750864D01*
X159173028Y-142659921D01*
X159153853Y-142565903D01*
X159145535Y-142471309D01*
X159146988Y-142427110D01*
X159447425Y-142427110D01*
X159448003Y-142486001D01*
X159453288Y-142541546D01*
X159460789Y-142579963D01*
X159487262Y-142659227D01*
X159524080Y-142731572D01*
X159570532Y-142796310D01*
X159625908Y-142852754D01*
X159689495Y-142900217D01*
X159760584Y-142938010D01*
X159838463Y-142965446D01*
X159866650Y-142972356D01*
X159918662Y-142979951D01*
X159977194Y-142982189D01*
X160037311Y-142979200D01*
X160094080Y-142971112D01*
X160117475Y-142965777D01*
X160191522Y-142940135D01*
X160260053Y-142903775D01*
X160321833Y-142857691D01*
X160375627Y-142802877D01*
X160420201Y-142740324D01*
X160437868Y-142708025D01*
X160469241Y-142632095D01*
X160489159Y-142554775D01*
X160498053Y-142477149D01*
X160496355Y-142400301D01*
X160484495Y-142325318D01*
X160462905Y-142253282D01*
X160432016Y-142185280D01*
X160392259Y-142122396D01*
X160344066Y-142065715D01*
X160287868Y-142016322D01*
X160224095Y-141975301D01*
X160153179Y-141943737D01*
X160131174Y-141936457D01*
X160058113Y-141919857D01*
X159983467Y-141913710D01*
X159919831Y-141917224D01*
X159839847Y-141931666D01*
X159768582Y-141954122D01*
X159704329Y-141985348D01*
X159645383Y-142026103D01*
X159614626Y-142052837D01*
X159558807Y-142113344D01*
X159513931Y-142180295D01*
X159479975Y-142253727D01*
X159460416Y-142318176D01*
X159451560Y-142369594D01*
X159447425Y-142427110D01*
X159146988Y-142427110D01*
X159148583Y-142378643D01*
X159148777Y-142376699D01*
X159165254Y-142272303D01*
X159192870Y-142173586D01*
X159231293Y-142081036D01*
X159280188Y-141995142D01*
X159339223Y-141916394D01*
X159408065Y-141845281D01*
X159486382Y-141782290D01*
X159573841Y-141727911D01*
X159599611Y-141714451D01*
X159647673Y-141693060D01*
X159703789Y-141672585D01*
X159763330Y-141654566D01*
X159821665Y-141640542D01*
X159822200Y-141640432D01*
X159864009Y-141634217D01*
X159914186Y-141630408D01*
X159969036Y-141628973D01*
X160024867Y-141629879D01*
G37*
X160024867Y-141629879D02*
X160077986Y-141633093D01*
X160124699Y-141638582D01*
X160149931Y-141643367D01*
X160251673Y-141672930D01*
X160346142Y-141712885D01*
X160433245Y-141763168D01*
X160512889Y-141823713D01*
X160584980Y-141894454D01*
X160649424Y-141975327D01*
X160670319Y-142006268D01*
X160716613Y-142089146D01*
X160753038Y-142178436D01*
X160779148Y-142272089D01*
X160794494Y-142368057D01*
X160798629Y-142464290D01*
X160791104Y-142558740D01*
X160791095Y-142558800D01*
X160782849Y-142610150D01*
X160773854Y-142653443D01*
X160762884Y-142693310D01*
X160748711Y-142734383D01*
X160735910Y-142767119D01*
X160692262Y-142858564D01*
X160638734Y-142942365D01*
X160575966Y-143017990D01*
X160504600Y-143084907D01*
X160425279Y-143142582D01*
X160338644Y-143190483D01*
X160245337Y-143228076D01*
X160149225Y-143254155D01*
X160118318Y-143259021D01*
X160078302Y-143262919D01*
X160032737Y-143265729D01*
X159985184Y-143267329D01*
X159939206Y-143267600D01*
X159898363Y-143266420D01*
X159866650Y-143263727D01*
X159768073Y-143244467D01*
X159673039Y-143213646D01*
X159582612Y-143171994D01*
X159497860Y-143120241D01*
X159419849Y-143059116D01*
X159349646Y-142989350D01*
X159288316Y-142911672D01*
X159241926Y-142836229D01*
X159202555Y-142750864D01*
X159173028Y-142659921D01*
X159153853Y-142565903D01*
X159145535Y-142471309D01*
X159146988Y-142427110D01*
X159447425Y-142427110D01*
X159448003Y-142486001D01*
X159453288Y-142541546D01*
X159460789Y-142579963D01*
X159487262Y-142659227D01*
X159524080Y-142731572D01*
X159570532Y-142796310D01*
X159625908Y-142852754D01*
X159689495Y-142900217D01*
X159760584Y-142938010D01*
X159838463Y-142965446D01*
X159866650Y-142972356D01*
X159918662Y-142979951D01*
X159977194Y-142982189D01*
X160037311Y-142979200D01*
X160094080Y-142971112D01*
X160117475Y-142965777D01*
X160191522Y-142940135D01*
X160260053Y-142903775D01*
X160321833Y-142857691D01*
X160375627Y-142802877D01*
X160420201Y-142740324D01*
X160437868Y-142708025D01*
X160469241Y-142632095D01*
X160489159Y-142554775D01*
X160498053Y-142477149D01*
X160496355Y-142400301D01*
X160484495Y-142325318D01*
X160462905Y-142253282D01*
X160432016Y-142185280D01*
X160392259Y-142122396D01*
X160344066Y-142065715D01*
X160287868Y-142016322D01*
X160224095Y-141975301D01*
X160153179Y-141943737D01*
X160131174Y-141936457D01*
X160058113Y-141919857D01*
X159983467Y-141913710D01*
X159919831Y-141917224D01*
X159839847Y-141931666D01*
X159768582Y-141954122D01*
X159704329Y-141985348D01*
X159645383Y-142026103D01*
X159614626Y-142052837D01*
X159558807Y-142113344D01*
X159513931Y-142180295D01*
X159479975Y-142253727D01*
X159460416Y-142318176D01*
X159451560Y-142369594D01*
X159447425Y-142427110D01*
X159146988Y-142427110D01*
X159148583Y-142378643D01*
X159148777Y-142376699D01*
X159165254Y-142272303D01*
X159192870Y-142173586D01*
X159231293Y-142081036D01*
X159280188Y-141995142D01*
X159339223Y-141916394D01*
X159408065Y-141845281D01*
X159486382Y-141782290D01*
X159573841Y-141727911D01*
X159599611Y-141714451D01*
X159647673Y-141693060D01*
X159703789Y-141672585D01*
X159763330Y-141654566D01*
X159821665Y-141640542D01*
X159822200Y-141640432D01*
X159864009Y-141634217D01*
X159914186Y-141630408D01*
X159969036Y-141628973D01*
X160024867Y-141629879D01*
G36*
X164621299Y-141246371D02*
G01*
X164622973Y-141453900D01*
X164575379Y-141453899D01*
X164497014Y-141459486D01*
X164416745Y-141475554D01*
X164337498Y-141501071D01*
X164262196Y-141535002D01*
X164193766Y-141576313D01*
X164162425Y-141599915D01*
X164155800Y-141606117D01*
X164140692Y-141620781D01*
X164117610Y-141643404D01*
X164087064Y-141673479D01*
X164049562Y-141710501D01*
X164005615Y-141753967D01*
X163955731Y-141803371D01*
X163900421Y-141858208D01*
X163840194Y-141917973D01*
X163775559Y-141982161D01*
X163707026Y-142050268D01*
X163635104Y-142121788D01*
X163560303Y-142196217D01*
X163483132Y-142273049D01*
X163467100Y-142289016D01*
X163372491Y-142383243D01*
X163286438Y-142468928D01*
X163208506Y-142546497D01*
X163138256Y-142616376D01*
X163075253Y-142678990D01*
X163019059Y-142734766D01*
X162969238Y-142784129D01*
X162925354Y-142827504D01*
X162886968Y-142865318D01*
X162853645Y-142897996D01*
X162824947Y-142925964D01*
X162800439Y-142949647D01*
X162779683Y-142969472D01*
X162762242Y-142985863D01*
X162747680Y-142999246D01*
X162735560Y-143010048D01*
X162725445Y-143018694D01*
X162716898Y-143025609D01*
X162709483Y-143031220D01*
X162702763Y-143035952D01*
X162696453Y-143040132D01*
X162680553Y-143050732D01*
X162669558Y-143058618D01*
X162667000Y-143060806D01*
X162656943Y-143068792D01*
X162637859Y-143080981D01*
X162612163Y-143096065D01*
X162582268Y-143112732D01*
X162550587Y-143129675D01*
X162519535Y-143145582D01*
X162491527Y-143159144D01*
X162468975Y-143169051D01*
X162463800Y-143171054D01*
X162392378Y-143196174D01*
X162328769Y-143215545D01*
X162269845Y-143229869D01*
X162212481Y-143239848D01*
X162153548Y-143246184D01*
X162119312Y-143248371D01*
X162032000Y-143252797D01*
X162032000Y-142840070D01*
X162100133Y-142835665D01*
X162185570Y-142824905D01*
X162266280Y-142803577D01*
X162344668Y-142770925D01*
X162397125Y-142742314D01*
X162424571Y-142725103D01*
X162452216Y-142706348D01*
X162475074Y-142689465D01*
X162479675Y-142685757D01*
X162487738Y-142678322D01*
X162504268Y-142662419D01*
X162528747Y-142638558D01*
X162560662Y-142607251D01*
X162599495Y-142569008D01*
X162644731Y-142524339D01*
X162695855Y-142473756D01*
X162752350Y-142417769D01*
X162813702Y-142356890D01*
X162879394Y-142291628D01*
X162948911Y-142222495D01*
X163021738Y-142150001D01*
X163097357Y-142074657D01*
X163175255Y-141996974D01*
X163200400Y-141971884D01*
X163278880Y-141893630D01*
X163355249Y-141817615D01*
X163428991Y-141744346D01*
X163499591Y-141674328D01*
X163566534Y-141608069D01*
X163629305Y-141546074D01*
X163687388Y-141488851D01*
X163740270Y-141436905D01*
X163787434Y-141390742D01*
X163828366Y-141350871D01*
X163862551Y-141317796D01*
X163889474Y-141292024D01*
X163908620Y-141274062D01*
X163919473Y-141264417D01*
X163921125Y-141263160D01*
X163938574Y-141251213D01*
X163951374Y-141241846D01*
X163956050Y-141237811D01*
X163964303Y-141231223D01*
X163981494Y-141220247D01*
X164005220Y-141206216D01*
X164033080Y-141190464D01*
X164062673Y-141174323D01*
X164091596Y-141159127D01*
X164117449Y-141146208D01*
X164137830Y-141136900D01*
X164137840Y-141136896D01*
X164162443Y-141126567D01*
X164183768Y-141117576D01*
X164198140Y-141111473D01*
X164200525Y-141110447D01*
X164245287Y-141093905D01*
X164299495Y-141078491D01*
X164359907Y-141064832D01*
X164423277Y-141053557D01*
X164486364Y-141045295D01*
X164545921Y-141040674D01*
X164563727Y-141040067D01*
X164619625Y-141038843D01*
X164621299Y-141246371D01*
G37*
X164621299Y-141246371D02*
X164622973Y-141453900D01*
X164575379Y-141453899D01*
X164497014Y-141459486D01*
X164416745Y-141475554D01*
X164337498Y-141501071D01*
X164262196Y-141535002D01*
X164193766Y-141576313D01*
X164162425Y-141599915D01*
X164155800Y-141606117D01*
X164140692Y-141620781D01*
X164117610Y-141643404D01*
X164087064Y-141673479D01*
X164049562Y-141710501D01*
X164005615Y-141753967D01*
X163955731Y-141803371D01*
X163900421Y-141858208D01*
X163840194Y-141917973D01*
X163775559Y-141982161D01*
X163707026Y-142050268D01*
X163635104Y-142121788D01*
X163560303Y-142196217D01*
X163483132Y-142273049D01*
X163467100Y-142289016D01*
X163372491Y-142383243D01*
X163286438Y-142468928D01*
X163208506Y-142546497D01*
X163138256Y-142616376D01*
X163075253Y-142678990D01*
X163019059Y-142734766D01*
X162969238Y-142784129D01*
X162925354Y-142827504D01*
X162886968Y-142865318D01*
X162853645Y-142897996D01*
X162824947Y-142925964D01*
X162800439Y-142949647D01*
X162779683Y-142969472D01*
X162762242Y-142985863D01*
X162747680Y-142999246D01*
X162735560Y-143010048D01*
X162725445Y-143018694D01*
X162716898Y-143025609D01*
X162709483Y-143031220D01*
X162702763Y-143035952D01*
X162696453Y-143040132D01*
X162680553Y-143050732D01*
X162669558Y-143058618D01*
X162667000Y-143060806D01*
X162656943Y-143068792D01*
X162637859Y-143080981D01*
X162612163Y-143096065D01*
X162582268Y-143112732D01*
X162550587Y-143129675D01*
X162519535Y-143145582D01*
X162491527Y-143159144D01*
X162468975Y-143169051D01*
X162463800Y-143171054D01*
X162392378Y-143196174D01*
X162328769Y-143215545D01*
X162269845Y-143229869D01*
X162212481Y-143239848D01*
X162153548Y-143246184D01*
X162119312Y-143248371D01*
X162032000Y-143252797D01*
X162032000Y-142840070D01*
X162100133Y-142835665D01*
X162185570Y-142824905D01*
X162266280Y-142803577D01*
X162344668Y-142770925D01*
X162397125Y-142742314D01*
X162424571Y-142725103D01*
X162452216Y-142706348D01*
X162475074Y-142689465D01*
X162479675Y-142685757D01*
X162487738Y-142678322D01*
X162504268Y-142662419D01*
X162528747Y-142638558D01*
X162560662Y-142607251D01*
X162599495Y-142569008D01*
X162644731Y-142524339D01*
X162695855Y-142473756D01*
X162752350Y-142417769D01*
X162813702Y-142356890D01*
X162879394Y-142291628D01*
X162948911Y-142222495D01*
X163021738Y-142150001D01*
X163097357Y-142074657D01*
X163175255Y-141996974D01*
X163200400Y-141971884D01*
X163278880Y-141893630D01*
X163355249Y-141817615D01*
X163428991Y-141744346D01*
X163499591Y-141674328D01*
X163566534Y-141608069D01*
X163629305Y-141546074D01*
X163687388Y-141488851D01*
X163740270Y-141436905D01*
X163787434Y-141390742D01*
X163828366Y-141350871D01*
X163862551Y-141317796D01*
X163889474Y-141292024D01*
X163908620Y-141274062D01*
X163919473Y-141264417D01*
X163921125Y-141263160D01*
X163938574Y-141251213D01*
X163951374Y-141241846D01*
X163956050Y-141237811D01*
X163964303Y-141231223D01*
X163981494Y-141220247D01*
X164005220Y-141206216D01*
X164033080Y-141190464D01*
X164062673Y-141174323D01*
X164091596Y-141159127D01*
X164117449Y-141146208D01*
X164137830Y-141136900D01*
X164137840Y-141136896D01*
X164162443Y-141126567D01*
X164183768Y-141117576D01*
X164198140Y-141111473D01*
X164200525Y-141110447D01*
X164245287Y-141093905D01*
X164299495Y-141078491D01*
X164359907Y-141064832D01*
X164423277Y-141053557D01*
X164486364Y-141045295D01*
X164545921Y-141040674D01*
X164563727Y-141040067D01*
X164619625Y-141038843D01*
X164621299Y-141246371D01*
G36*
X163703230Y-142245656D02*
G01*
X163716699Y-142258153D01*
X163737365Y-142277930D01*
X163764348Y-142304126D01*
X163796765Y-142335882D01*
X163833736Y-142372336D01*
X163874379Y-142412629D01*
X163917813Y-142455899D01*
X163923923Y-142462003D01*
X163980614Y-142518448D01*
X164029286Y-142566438D01*
X164070703Y-142606691D01*
X164105633Y-142639923D01*
X164134841Y-142666850D01*
X164159093Y-142688190D01*
X164179156Y-142704659D01*
X164195794Y-142716973D01*
X164198256Y-142718650D01*
X164272854Y-142763481D01*
X164347142Y-142796866D01*
X164423784Y-142819707D01*
X164505445Y-142832905D01*
X164545012Y-142835964D01*
X164622800Y-142840159D01*
X164622800Y-143250950D01*
X164560887Y-143250018D01*
X164527439Y-143249087D01*
X164492571Y-143247423D01*
X164462354Y-143245335D01*
X164454525Y-143244614D01*
X164424990Y-143240859D01*
X164390773Y-143235309D01*
X164355812Y-143228725D01*
X164324047Y-143221869D01*
X164299414Y-143215502D01*
X164292600Y-143213318D01*
X164278878Y-143208766D01*
X164257350Y-143201915D01*
X164232367Y-143194148D01*
X164229100Y-143193145D01*
X164209051Y-143185975D01*
X164182045Y-143174888D01*
X164150462Y-143161016D01*
X164116683Y-143145492D01*
X164083089Y-143129451D01*
X164052062Y-143114026D01*
X164025982Y-143100350D01*
X164007231Y-143089556D01*
X163998926Y-143083585D01*
X163988807Y-143075696D01*
X163972698Y-143064947D01*
X163965575Y-143060547D01*
X163949797Y-143050666D01*
X163939115Y-143043279D01*
X163937000Y-143041438D01*
X163930765Y-143036061D01*
X163917009Y-143025141D01*
X163898367Y-143010761D01*
X163892550Y-143006336D01*
X163879789Y-142995575D01*
X163859159Y-142976820D01*
X163831726Y-142951097D01*
X163798559Y-142919433D01*
X163760726Y-142882856D01*
X163719296Y-142842393D01*
X163675337Y-142799070D01*
X163629916Y-142753914D01*
X163628009Y-142752009D01*
X163404743Y-142528978D01*
X163548685Y-142385139D01*
X163583843Y-142350162D01*
X163616216Y-142318256D01*
X163644697Y-142290489D01*
X163668178Y-142267929D01*
X163685551Y-142251644D01*
X163695710Y-142242702D01*
X163697840Y-142241300D01*
X163703230Y-142245656D01*
G37*
X163703230Y-142245656D02*
X163716699Y-142258153D01*
X163737365Y-142277930D01*
X163764348Y-142304126D01*
X163796765Y-142335882D01*
X163833736Y-142372336D01*
X163874379Y-142412629D01*
X163917813Y-142455899D01*
X163923923Y-142462003D01*
X163980614Y-142518448D01*
X164029286Y-142566438D01*
X164070703Y-142606691D01*
X164105633Y-142639923D01*
X164134841Y-142666850D01*
X164159093Y-142688190D01*
X164179156Y-142704659D01*
X164195794Y-142716973D01*
X164198256Y-142718650D01*
X164272854Y-142763481D01*
X164347142Y-142796866D01*
X164423784Y-142819707D01*
X164505445Y-142832905D01*
X164545012Y-142835964D01*
X164622800Y-142840159D01*
X164622800Y-143250950D01*
X164560887Y-143250018D01*
X164527439Y-143249087D01*
X164492571Y-143247423D01*
X164462354Y-143245335D01*
X164454525Y-143244614D01*
X164424990Y-143240859D01*
X164390773Y-143235309D01*
X164355812Y-143228725D01*
X164324047Y-143221869D01*
X164299414Y-143215502D01*
X164292600Y-143213318D01*
X164278878Y-143208766D01*
X164257350Y-143201915D01*
X164232367Y-143194148D01*
X164229100Y-143193145D01*
X164209051Y-143185975D01*
X164182045Y-143174888D01*
X164150462Y-143161016D01*
X164116683Y-143145492D01*
X164083089Y-143129451D01*
X164052062Y-143114026D01*
X164025982Y-143100350D01*
X164007231Y-143089556D01*
X163998926Y-143083585D01*
X163988807Y-143075696D01*
X163972698Y-143064947D01*
X163965575Y-143060547D01*
X163949797Y-143050666D01*
X163939115Y-143043279D01*
X163937000Y-143041438D01*
X163930765Y-143036061D01*
X163917009Y-143025141D01*
X163898367Y-143010761D01*
X163892550Y-143006336D01*
X163879789Y-142995575D01*
X163859159Y-142976820D01*
X163831726Y-142951097D01*
X163798559Y-142919433D01*
X163760726Y-142882856D01*
X163719296Y-142842393D01*
X163675337Y-142799070D01*
X163629916Y-142753914D01*
X163628009Y-142752009D01*
X163404743Y-142528978D01*
X163548685Y-142385139D01*
X163583843Y-142350162D01*
X163616216Y-142318256D01*
X163644697Y-142290489D01*
X163668178Y-142267929D01*
X163685551Y-142251644D01*
X163695710Y-142242702D01*
X163697840Y-142241300D01*
X163703230Y-142245656D01*
G36*
X167383462Y-141040609D02*
G01*
X167385741Y-141043473D01*
X167387572Y-141052416D01*
X167388993Y-141068480D01*
X167390046Y-141092704D01*
X167390769Y-141126129D01*
X167391202Y-141169797D01*
X167391387Y-141224747D01*
X167391400Y-141247525D01*
X167391400Y-141453900D01*
X167340717Y-141453899D01*
X167260291Y-141459514D01*
X167178587Y-141475710D01*
X167098369Y-141501519D01*
X167022400Y-141535971D01*
X166953443Y-141578095D01*
X166924675Y-141599915D01*
X166918050Y-141606117D01*
X166902942Y-141620781D01*
X166879860Y-141643404D01*
X166849314Y-141673479D01*
X166811812Y-141710501D01*
X166767865Y-141753967D01*
X166717981Y-141803371D01*
X166662671Y-141858208D01*
X166602444Y-141917973D01*
X166537809Y-141982161D01*
X166469276Y-142050268D01*
X166397354Y-142121788D01*
X166322553Y-142196217D01*
X166245382Y-142273049D01*
X166229350Y-142289016D01*
X166134741Y-142383243D01*
X166048688Y-142468928D01*
X165970756Y-142546497D01*
X165900506Y-142616376D01*
X165837503Y-142678990D01*
X165781309Y-142734766D01*
X165731488Y-142784129D01*
X165687604Y-142827504D01*
X165649218Y-142865318D01*
X165615895Y-142897996D01*
X165587197Y-142925964D01*
X165562689Y-142949647D01*
X165541933Y-142969472D01*
X165524492Y-142985863D01*
X165509930Y-142999246D01*
X165497810Y-143010048D01*
X165487695Y-143018694D01*
X165479148Y-143025609D01*
X165471733Y-143031220D01*
X165465013Y-143035952D01*
X165458703Y-143040132D01*
X165442803Y-143050732D01*
X165431808Y-143058618D01*
X165429250Y-143060806D01*
X165419193Y-143068792D01*
X165400109Y-143080981D01*
X165374413Y-143096065D01*
X165344518Y-143112732D01*
X165312837Y-143129675D01*
X165281785Y-143145582D01*
X165253777Y-143159144D01*
X165231225Y-143169051D01*
X165226050Y-143171054D01*
X165154628Y-143196174D01*
X165091019Y-143215545D01*
X165032095Y-143229869D01*
X164974731Y-143239848D01*
X164915798Y-143246184D01*
X164881562Y-143248371D01*
X164794250Y-143252797D01*
X164794250Y-142840070D01*
X164862383Y-142835665D01*
X164947820Y-142824905D01*
X165028530Y-142803577D01*
X165106918Y-142770925D01*
X165159375Y-142742314D01*
X165186821Y-142725103D01*
X165214466Y-142706348D01*
X165237324Y-142689465D01*
X165241925Y-142685757D01*
X165249988Y-142678322D01*
X165266518Y-142662419D01*
X165290997Y-142638558D01*
X165322912Y-142607251D01*
X165361745Y-142569008D01*
X165406981Y-142524339D01*
X165458105Y-142473756D01*
X165514600Y-142417769D01*
X165575952Y-142356890D01*
X165641644Y-142291628D01*
X165711161Y-142222495D01*
X165783988Y-142150001D01*
X165859607Y-142074657D01*
X165937505Y-141996974D01*
X165962650Y-141971884D01*
X166041130Y-141893630D01*
X166117499Y-141817615D01*
X166191241Y-141744346D01*
X166261841Y-141674328D01*
X166328784Y-141608069D01*
X166391555Y-141546074D01*
X166449638Y-141488851D01*
X166502520Y-141436905D01*
X166549684Y-141390742D01*
X166590616Y-141350871D01*
X166624801Y-141317796D01*
X166651724Y-141292024D01*
X166670870Y-141274062D01*
X166681723Y-141264417D01*
X166683375Y-141263160D01*
X166700824Y-141251213D01*
X166713624Y-141241846D01*
X166718300Y-141237811D01*
X166726553Y-141231223D01*
X166743744Y-141220247D01*
X166767470Y-141206216D01*
X166795330Y-141190464D01*
X166824923Y-141174323D01*
X166853846Y-141159127D01*
X166879699Y-141146208D01*
X166900080Y-141136900D01*
X166900090Y-141136896D01*
X166924693Y-141126567D01*
X166946018Y-141117576D01*
X166960390Y-141111473D01*
X166962775Y-141110447D01*
X167009031Y-141093423D01*
X167064697Y-141077813D01*
X167126509Y-141064158D01*
X167191208Y-141052998D01*
X167255530Y-141044876D01*
X167316216Y-141040333D01*
X167370003Y-141039910D01*
X167383462Y-141040609D01*
G37*
X167383462Y-141040609D02*
X167385741Y-141043473D01*
X167387572Y-141052416D01*
X167388993Y-141068480D01*
X167390046Y-141092704D01*
X167390769Y-141126129D01*
X167391202Y-141169797D01*
X167391387Y-141224747D01*
X167391400Y-141247525D01*
X167391400Y-141453900D01*
X167340717Y-141453899D01*
X167260291Y-141459514D01*
X167178587Y-141475710D01*
X167098369Y-141501519D01*
X167022400Y-141535971D01*
X166953443Y-141578095D01*
X166924675Y-141599915D01*
X166918050Y-141606117D01*
X166902942Y-141620781D01*
X166879860Y-141643404D01*
X166849314Y-141673479D01*
X166811812Y-141710501D01*
X166767865Y-141753967D01*
X166717981Y-141803371D01*
X166662671Y-141858208D01*
X166602444Y-141917973D01*
X166537809Y-141982161D01*
X166469276Y-142050268D01*
X166397354Y-142121788D01*
X166322553Y-142196217D01*
X166245382Y-142273049D01*
X166229350Y-142289016D01*
X166134741Y-142383243D01*
X166048688Y-142468928D01*
X165970756Y-142546497D01*
X165900506Y-142616376D01*
X165837503Y-142678990D01*
X165781309Y-142734766D01*
X165731488Y-142784129D01*
X165687604Y-142827504D01*
X165649218Y-142865318D01*
X165615895Y-142897996D01*
X165587197Y-142925964D01*
X165562689Y-142949647D01*
X165541933Y-142969472D01*
X165524492Y-142985863D01*
X165509930Y-142999246D01*
X165497810Y-143010048D01*
X165487695Y-143018694D01*
X165479148Y-143025609D01*
X165471733Y-143031220D01*
X165465013Y-143035952D01*
X165458703Y-143040132D01*
X165442803Y-143050732D01*
X165431808Y-143058618D01*
X165429250Y-143060806D01*
X165419193Y-143068792D01*
X165400109Y-143080981D01*
X165374413Y-143096065D01*
X165344518Y-143112732D01*
X165312837Y-143129675D01*
X165281785Y-143145582D01*
X165253777Y-143159144D01*
X165231225Y-143169051D01*
X165226050Y-143171054D01*
X165154628Y-143196174D01*
X165091019Y-143215545D01*
X165032095Y-143229869D01*
X164974731Y-143239848D01*
X164915798Y-143246184D01*
X164881562Y-143248371D01*
X164794250Y-143252797D01*
X164794250Y-142840070D01*
X164862383Y-142835665D01*
X164947820Y-142824905D01*
X165028530Y-142803577D01*
X165106918Y-142770925D01*
X165159375Y-142742314D01*
X165186821Y-142725103D01*
X165214466Y-142706348D01*
X165237324Y-142689465D01*
X165241925Y-142685757D01*
X165249988Y-142678322D01*
X165266518Y-142662419D01*
X165290997Y-142638558D01*
X165322912Y-142607251D01*
X165361745Y-142569008D01*
X165406981Y-142524339D01*
X165458105Y-142473756D01*
X165514600Y-142417769D01*
X165575952Y-142356890D01*
X165641644Y-142291628D01*
X165711161Y-142222495D01*
X165783988Y-142150001D01*
X165859607Y-142074657D01*
X165937505Y-141996974D01*
X165962650Y-141971884D01*
X166041130Y-141893630D01*
X166117499Y-141817615D01*
X166191241Y-141744346D01*
X166261841Y-141674328D01*
X166328784Y-141608069D01*
X166391555Y-141546074D01*
X166449638Y-141488851D01*
X166502520Y-141436905D01*
X166549684Y-141390742D01*
X166590616Y-141350871D01*
X166624801Y-141317796D01*
X166651724Y-141292024D01*
X166670870Y-141274062D01*
X166681723Y-141264417D01*
X166683375Y-141263160D01*
X166700824Y-141251213D01*
X166713624Y-141241846D01*
X166718300Y-141237811D01*
X166726553Y-141231223D01*
X166743744Y-141220247D01*
X166767470Y-141206216D01*
X166795330Y-141190464D01*
X166824923Y-141174323D01*
X166853846Y-141159127D01*
X166879699Y-141146208D01*
X166900080Y-141136900D01*
X166900090Y-141136896D01*
X166924693Y-141126567D01*
X166946018Y-141117576D01*
X166960390Y-141111473D01*
X166962775Y-141110447D01*
X167009031Y-141093423D01*
X167064697Y-141077813D01*
X167126509Y-141064158D01*
X167191208Y-141052998D01*
X167255530Y-141044876D01*
X167316216Y-141040333D01*
X167370003Y-141039910D01*
X167383462Y-141040609D01*
G36*
X153059196Y-141057287D02*
G01*
X153102795Y-141059596D01*
X153140039Y-141063423D01*
X153167400Y-141068663D01*
X153256326Y-141098374D01*
X153335808Y-141136281D01*
X153406428Y-141182781D01*
X153468768Y-141238275D01*
X153523409Y-141303162D01*
X153536691Y-141322010D01*
X153568764Y-141376367D01*
X153594443Y-141436202D01*
X153614335Y-141503376D01*
X153629051Y-141579747D01*
X153634508Y-141620676D01*
X153638785Y-141657277D01*
X153433810Y-141655601D01*
X153228834Y-141653925D01*
X153220828Y-141614664D01*
X153207733Y-141566651D01*
X153189295Y-141527698D01*
X153164011Y-141494761D01*
X153159378Y-141489994D01*
X153123611Y-141462701D01*
X153081463Y-141444301D01*
X153035359Y-141434711D01*
X152987726Y-141433847D01*
X152940989Y-141441627D01*
X152897575Y-141457966D01*
X152859908Y-141482781D01*
X152841736Y-141500925D01*
X152832266Y-141514074D01*
X152820347Y-141533284D01*
X152813166Y-141545975D01*
X152805077Y-141562162D01*
X152799990Y-141577053D01*
X152797225Y-141594398D01*
X152796104Y-141617946D01*
X152795934Y-141641225D01*
X152796305Y-141671882D01*
X152797860Y-141693631D01*
X152801268Y-141710251D01*
X152807194Y-141725521D01*
X152812758Y-141736600D01*
X152833701Y-141767624D01*
X152862438Y-141798683D01*
X152894760Y-141825669D01*
X152920292Y-141841526D01*
X152937958Y-141849743D01*
X152963646Y-141860699D01*
X152993454Y-141872764D01*
X153014857Y-141881062D01*
X153045283Y-141892633D01*
X153074475Y-141903757D01*
X153098504Y-141912936D01*
X153110250Y-141917441D01*
X153128030Y-141924280D01*
X153153861Y-141934211D01*
X153183939Y-141945773D01*
X153207775Y-141954933D01*
X153288115Y-141988190D01*
X153357425Y-142022209D01*
X153417372Y-142057970D01*
X153469623Y-142096454D01*
X153509723Y-142132521D01*
X153566983Y-142197271D01*
X153612997Y-142267741D01*
X153647902Y-142344212D01*
X153671831Y-142426965D01*
X153682901Y-142495500D01*
X153686586Y-142583669D01*
X153678515Y-142671801D01*
X153659226Y-142758237D01*
X153629263Y-142841319D01*
X153589165Y-142919388D01*
X153539474Y-142990788D01*
X153510300Y-143024433D01*
X153452305Y-143080787D01*
X153391951Y-143127628D01*
X153327489Y-143165799D01*
X153257173Y-143196142D01*
X153179256Y-143219500D01*
X153091993Y-143236717D01*
X153061171Y-143241151D01*
X153044066Y-143242663D01*
X153035578Y-143240265D01*
X153031875Y-143232569D01*
X153031391Y-143230366D01*
X153030487Y-143220415D01*
X153029407Y-143199560D01*
X153028218Y-143169592D01*
X153026982Y-143132305D01*
X153025765Y-143089490D01*
X153024630Y-143042942D01*
X153024559Y-143039746D01*
X153023475Y-142986082D01*
X153022894Y-142943872D01*
X153022845Y-142911876D01*
X153023359Y-142888858D01*
X153024466Y-142873578D01*
X153026197Y-142864799D01*
X153028581Y-142861283D01*
X153028939Y-142861149D01*
X153039196Y-142859039D01*
X153057829Y-142855812D01*
X153078912Y-142852460D01*
X153132677Y-142838019D01*
X153181834Y-142812548D01*
X153224564Y-142777408D01*
X153259048Y-142733961D01*
X153274106Y-142706454D01*
X153282004Y-142688270D01*
X153286994Y-142671965D01*
X153289689Y-142653720D01*
X153290704Y-142629717D01*
X153290715Y-142603250D01*
X153288285Y-142555326D01*
X153281038Y-142515800D01*
X153267812Y-142480902D01*
X153247443Y-142446868D01*
X153238798Y-142434975D01*
X153224018Y-142417168D01*
X153206918Y-142400477D01*
X153186369Y-142384310D01*
X153161241Y-142368073D01*
X153130404Y-142351175D01*
X153092727Y-142333021D01*
X153047082Y-142313019D01*
X152992338Y-142290577D01*
X152927365Y-142265102D01*
X152881650Y-142247599D01*
X152810848Y-142219420D01*
X152750476Y-142192396D01*
X152698491Y-142165309D01*
X152652845Y-142136939D01*
X152611493Y-142106068D01*
X152572391Y-142071475D01*
X152551450Y-142050777D01*
X152497327Y-141986644D01*
X152454216Y-141916372D01*
X152422344Y-141840530D01*
X152401937Y-141759689D01*
X152393225Y-141674416D01*
X152392898Y-141653925D01*
X152398961Y-141567594D01*
X152416734Y-141485078D01*
X152445591Y-141407168D01*
X152484909Y-141334650D01*
X152534063Y-141268316D01*
X152592427Y-141208953D01*
X152659378Y-141157351D01*
X152734290Y-141114300D01*
X152816540Y-141080588D01*
X152856250Y-141068547D01*
X152884320Y-141063250D01*
X152921803Y-141059477D01*
X152965546Y-141057226D01*
X153012395Y-141056497D01*
X153059196Y-141057287D01*
G37*
X153059196Y-141057287D02*
X153102795Y-141059596D01*
X153140039Y-141063423D01*
X153167400Y-141068663D01*
X153256326Y-141098374D01*
X153335808Y-141136281D01*
X153406428Y-141182781D01*
X153468768Y-141238275D01*
X153523409Y-141303162D01*
X153536691Y-141322010D01*
X153568764Y-141376367D01*
X153594443Y-141436202D01*
X153614335Y-141503376D01*
X153629051Y-141579747D01*
X153634508Y-141620676D01*
X153638785Y-141657277D01*
X153433810Y-141655601D01*
X153228834Y-141653925D01*
X153220828Y-141614664D01*
X153207733Y-141566651D01*
X153189295Y-141527698D01*
X153164011Y-141494761D01*
X153159378Y-141489994D01*
X153123611Y-141462701D01*
X153081463Y-141444301D01*
X153035359Y-141434711D01*
X152987726Y-141433847D01*
X152940989Y-141441627D01*
X152897575Y-141457966D01*
X152859908Y-141482781D01*
X152841736Y-141500925D01*
X152832266Y-141514074D01*
X152820347Y-141533284D01*
X152813166Y-141545975D01*
X152805077Y-141562162D01*
X152799990Y-141577053D01*
X152797225Y-141594398D01*
X152796104Y-141617946D01*
X152795934Y-141641225D01*
X152796305Y-141671882D01*
X152797860Y-141693631D01*
X152801268Y-141710251D01*
X152807194Y-141725521D01*
X152812758Y-141736600D01*
X152833701Y-141767624D01*
X152862438Y-141798683D01*
X152894760Y-141825669D01*
X152920292Y-141841526D01*
X152937958Y-141849743D01*
X152963646Y-141860699D01*
X152993454Y-141872764D01*
X153014857Y-141881062D01*
X153045283Y-141892633D01*
X153074475Y-141903757D01*
X153098504Y-141912936D01*
X153110250Y-141917441D01*
X153128030Y-141924280D01*
X153153861Y-141934211D01*
X153183939Y-141945773D01*
X153207775Y-141954933D01*
X153288115Y-141988190D01*
X153357425Y-142022209D01*
X153417372Y-142057970D01*
X153469623Y-142096454D01*
X153509723Y-142132521D01*
X153566983Y-142197271D01*
X153612997Y-142267741D01*
X153647902Y-142344212D01*
X153671831Y-142426965D01*
X153682901Y-142495500D01*
X153686586Y-142583669D01*
X153678515Y-142671801D01*
X153659226Y-142758237D01*
X153629263Y-142841319D01*
X153589165Y-142919388D01*
X153539474Y-142990788D01*
X153510300Y-143024433D01*
X153452305Y-143080787D01*
X153391951Y-143127628D01*
X153327489Y-143165799D01*
X153257173Y-143196142D01*
X153179256Y-143219500D01*
X153091993Y-143236717D01*
X153061171Y-143241151D01*
X153044066Y-143242663D01*
X153035578Y-143240265D01*
X153031875Y-143232569D01*
X153031391Y-143230366D01*
X153030487Y-143220415D01*
X153029407Y-143199560D01*
X153028218Y-143169592D01*
X153026982Y-143132305D01*
X153025765Y-143089490D01*
X153024630Y-143042942D01*
X153024559Y-143039746D01*
X153023475Y-142986082D01*
X153022894Y-142943872D01*
X153022845Y-142911876D01*
X153023359Y-142888858D01*
X153024466Y-142873578D01*
X153026197Y-142864799D01*
X153028581Y-142861283D01*
X153028939Y-142861149D01*
X153039196Y-142859039D01*
X153057829Y-142855812D01*
X153078912Y-142852460D01*
X153132677Y-142838019D01*
X153181834Y-142812548D01*
X153224564Y-142777408D01*
X153259048Y-142733961D01*
X153274106Y-142706454D01*
X153282004Y-142688270D01*
X153286994Y-142671965D01*
X153289689Y-142653720D01*
X153290704Y-142629717D01*
X153290715Y-142603250D01*
X153288285Y-142555326D01*
X153281038Y-142515800D01*
X153267812Y-142480902D01*
X153247443Y-142446868D01*
X153238798Y-142434975D01*
X153224018Y-142417168D01*
X153206918Y-142400477D01*
X153186369Y-142384310D01*
X153161241Y-142368073D01*
X153130404Y-142351175D01*
X153092727Y-142333021D01*
X153047082Y-142313019D01*
X152992338Y-142290577D01*
X152927365Y-142265102D01*
X152881650Y-142247599D01*
X152810848Y-142219420D01*
X152750476Y-142192396D01*
X152698491Y-142165309D01*
X152652845Y-142136939D01*
X152611493Y-142106068D01*
X152572391Y-142071475D01*
X152551450Y-142050777D01*
X152497327Y-141986644D01*
X152454216Y-141916372D01*
X152422344Y-141840530D01*
X152401937Y-141759689D01*
X152393225Y-141674416D01*
X152392898Y-141653925D01*
X152398961Y-141567594D01*
X152416734Y-141485078D01*
X152445591Y-141407168D01*
X152484909Y-141334650D01*
X152534063Y-141268316D01*
X152592427Y-141208953D01*
X152659378Y-141157351D01*
X152734290Y-141114300D01*
X152816540Y-141080588D01*
X152856250Y-141068547D01*
X152884320Y-141063250D01*
X152921803Y-141059477D01*
X152965546Y-141057226D01*
X153012395Y-141056497D01*
X153059196Y-141057287D01*
G36*
X154525405Y-142029444D02*
G01*
X154555824Y-142030008D01*
X154579017Y-142031332D01*
X154597722Y-142033713D01*
X154614675Y-142037448D01*
X154632613Y-142042833D01*
X154643775Y-142046567D01*
X154686424Y-142062320D01*
X154720670Y-142078213D01*
X154750642Y-142096454D01*
X154780466Y-142119255D01*
X154782141Y-142120650D01*
X154821809Y-142157554D01*
X154853896Y-142196542D01*
X154879905Y-142240179D01*
X154901338Y-142291032D01*
X154919697Y-142351668D01*
X154921525Y-142358775D01*
X154924104Y-142369505D01*
X154926328Y-142380543D01*
X154928231Y-142392910D01*
X154929848Y-142407626D01*
X154931213Y-142425711D01*
X154932361Y-142448185D01*
X154933325Y-142476069D01*
X154934141Y-142510382D01*
X154934841Y-142552144D01*
X154935462Y-142602377D01*
X154936036Y-142662099D01*
X154936598Y-142732332D01*
X154937183Y-142814095D01*
X154937273Y-142827087D01*
X154940141Y-143244600D01*
X154653300Y-143244600D01*
X154653244Y-142950912D01*
X154653029Y-142853818D01*
X154652348Y-142768514D01*
X154651087Y-142694092D01*
X154649129Y-142629646D01*
X154646360Y-142574270D01*
X154642666Y-142527058D01*
X154637931Y-142487103D01*
X154632041Y-142453499D01*
X154624881Y-142425340D01*
X154616336Y-142401720D01*
X154606292Y-142381731D01*
X154594633Y-142364469D01*
X154581245Y-142349026D01*
X154576369Y-142344117D01*
X154540536Y-142317577D01*
X154497984Y-142299905D01*
X154451029Y-142291048D01*
X154401990Y-142290951D01*
X154353185Y-142299562D01*
X154306932Y-142316826D01*
X154265547Y-142342689D01*
X154255022Y-142351579D01*
X154224492Y-142387333D01*
X154200562Y-142432967D01*
X154183887Y-142487141D01*
X154180454Y-142504527D01*
X154178218Y-142519447D01*
X154176336Y-142537184D01*
X154174779Y-142558853D01*
X154173520Y-142585569D01*
X154172532Y-142618447D01*
X154171788Y-142658602D01*
X154171260Y-142707149D01*
X154170921Y-142765204D01*
X154170744Y-142833881D01*
X154170700Y-142902531D01*
X154170700Y-143244600D01*
X154028883Y-143244600D01*
X153987667Y-143244418D01*
X153950782Y-143243909D01*
X153920099Y-143243126D01*
X153897489Y-143242125D01*
X153884822Y-143240959D01*
X153882833Y-143240366D01*
X153882221Y-143233542D01*
X153881636Y-143214905D01*
X153881084Y-143185345D01*
X153880571Y-143145751D01*
X153880103Y-143097009D01*
X153879687Y-143040008D01*
X153879329Y-142975638D01*
X153879035Y-142904785D01*
X153878811Y-142828339D01*
X153878665Y-142747187D01*
X153878602Y-142662218D01*
X153878600Y-142643340D01*
X153878600Y-142050547D01*
X154013537Y-142052261D01*
X154148475Y-142053975D01*
X154150313Y-142106022D01*
X154152152Y-142158070D01*
X154193372Y-142125217D01*
X154247959Y-142086201D01*
X154301943Y-142057190D01*
X154338975Y-142042543D01*
X154355199Y-142037533D01*
X154371887Y-142033953D01*
X154391580Y-142031573D01*
X154416817Y-142030165D01*
X154450140Y-142029498D01*
X154485025Y-142029343D01*
X154525405Y-142029444D01*
G37*
X154525405Y-142029444D02*
X154555824Y-142030008D01*
X154579017Y-142031332D01*
X154597722Y-142033713D01*
X154614675Y-142037448D01*
X154632613Y-142042833D01*
X154643775Y-142046567D01*
X154686424Y-142062320D01*
X154720670Y-142078213D01*
X154750642Y-142096454D01*
X154780466Y-142119255D01*
X154782141Y-142120650D01*
X154821809Y-142157554D01*
X154853896Y-142196542D01*
X154879905Y-142240179D01*
X154901338Y-142291032D01*
X154919697Y-142351668D01*
X154921525Y-142358775D01*
X154924104Y-142369505D01*
X154926328Y-142380543D01*
X154928231Y-142392910D01*
X154929848Y-142407626D01*
X154931213Y-142425711D01*
X154932361Y-142448185D01*
X154933325Y-142476069D01*
X154934141Y-142510382D01*
X154934841Y-142552144D01*
X154935462Y-142602377D01*
X154936036Y-142662099D01*
X154936598Y-142732332D01*
X154937183Y-142814095D01*
X154937273Y-142827087D01*
X154940141Y-143244600D01*
X154653300Y-143244600D01*
X154653244Y-142950912D01*
X154653029Y-142853818D01*
X154652348Y-142768514D01*
X154651087Y-142694092D01*
X154649129Y-142629646D01*
X154646360Y-142574270D01*
X154642666Y-142527058D01*
X154637931Y-142487103D01*
X154632041Y-142453499D01*
X154624881Y-142425340D01*
X154616336Y-142401720D01*
X154606292Y-142381731D01*
X154594633Y-142364469D01*
X154581245Y-142349026D01*
X154576369Y-142344117D01*
X154540536Y-142317577D01*
X154497984Y-142299905D01*
X154451029Y-142291048D01*
X154401990Y-142290951D01*
X154353185Y-142299562D01*
X154306932Y-142316826D01*
X154265547Y-142342689D01*
X154255022Y-142351579D01*
X154224492Y-142387333D01*
X154200562Y-142432967D01*
X154183887Y-142487141D01*
X154180454Y-142504527D01*
X154178218Y-142519447D01*
X154176336Y-142537184D01*
X154174779Y-142558853D01*
X154173520Y-142585569D01*
X154172532Y-142618447D01*
X154171788Y-142658602D01*
X154171260Y-142707149D01*
X154170921Y-142765204D01*
X154170744Y-142833881D01*
X154170700Y-142902531D01*
X154170700Y-143244600D01*
X154028883Y-143244600D01*
X153987667Y-143244418D01*
X153950782Y-143243909D01*
X153920099Y-143243126D01*
X153897489Y-143242125D01*
X153884822Y-143240959D01*
X153882833Y-143240366D01*
X153882221Y-143233542D01*
X153881636Y-143214905D01*
X153881084Y-143185345D01*
X153880571Y-143145751D01*
X153880103Y-143097009D01*
X153879687Y-143040008D01*
X153879329Y-142975638D01*
X153879035Y-142904785D01*
X153878811Y-142828339D01*
X153878665Y-142747187D01*
X153878602Y-142662218D01*
X153878600Y-142643340D01*
X153878600Y-142050547D01*
X154013537Y-142052261D01*
X154148475Y-142053975D01*
X154150313Y-142106022D01*
X154152152Y-142158070D01*
X154193372Y-142125217D01*
X154247959Y-142086201D01*
X154301943Y-142057190D01*
X154338975Y-142042543D01*
X154355199Y-142037533D01*
X154371887Y-142033953D01*
X154391580Y-142031573D01*
X154416817Y-142030165D01*
X154450140Y-142029498D01*
X154485025Y-142029343D01*
X154525405Y-142029444D01*
G36*
X156872625Y-142605028D02*
G01*
X156933928Y-142513651D01*
X156953810Y-142484104D01*
X156979247Y-142446434D01*
X157008636Y-142403009D01*
X157040373Y-142356196D01*
X157072855Y-142308363D01*
X157104478Y-142261875D01*
X157107679Y-142257175D01*
X157135972Y-142215568D01*
X157162467Y-142176478D01*
X157186177Y-142141373D01*
X157206113Y-142111722D01*
X157221286Y-142088992D01*
X157230708Y-142074651D01*
X157232740Y-142071437D01*
X157245354Y-142050800D01*
X157416706Y-142050800D01*
X157471854Y-142051024D01*
X157516823Y-142051685D01*
X157551047Y-142052761D01*
X157573961Y-142054232D01*
X157584999Y-142056075D01*
X157585941Y-142057021D01*
X157581742Y-142063683D01*
X157571067Y-142079098D01*
X157554966Y-142101791D01*
X157534493Y-142130289D01*
X157510698Y-142163116D01*
X157491968Y-142188784D01*
X157433369Y-142268890D01*
X157380165Y-142341656D01*
X157332623Y-142406717D01*
X157291010Y-142463708D01*
X157255593Y-142512262D01*
X157226640Y-142552013D01*
X157204416Y-142582595D01*
X157189188Y-142603643D01*
X157181540Y-142614340D01*
X157167067Y-142634955D01*
X157257971Y-142746933D01*
X157291580Y-142788319D01*
X157329396Y-142834862D01*
X157368308Y-142882732D01*
X157405203Y-142928101D01*
X157434774Y-142964443D01*
X157483100Y-143023828D01*
X157523998Y-143074119D01*
X157558068Y-143116065D01*
X157585910Y-143150414D01*
X157608124Y-143177912D01*
X157625310Y-143199308D01*
X157638069Y-143215350D01*
X157647000Y-143226784D01*
X157652704Y-143234358D01*
X157655780Y-143238821D01*
X157656830Y-143240919D01*
X157656850Y-143241096D01*
X157650757Y-143241966D01*
X157633511Y-143242750D01*
X157606656Y-143243419D01*
X157571738Y-143243947D01*
X157530303Y-143244307D01*
X157483897Y-143244472D01*
X157464762Y-143244477D01*
X157272675Y-143244354D01*
X157195849Y-143138114D01*
X157168070Y-143099754D01*
X157136173Y-143055800D01*
X157101500Y-143008093D01*
X157065394Y-142958476D01*
X157029198Y-142908791D01*
X156994253Y-142860880D01*
X156961902Y-142816584D01*
X156933488Y-142777746D01*
X156910353Y-142746209D01*
X156899256Y-142731138D01*
X156869450Y-142690752D01*
X156869450Y-143244600D01*
X156583700Y-143244600D01*
X156583700Y-141650750D01*
X156869369Y-141650750D01*
X156872625Y-142605028D01*
G37*
X156872625Y-142605028D02*
X156933928Y-142513651D01*
X156953810Y-142484104D01*
X156979247Y-142446434D01*
X157008636Y-142403009D01*
X157040373Y-142356196D01*
X157072855Y-142308363D01*
X157104478Y-142261875D01*
X157107679Y-142257175D01*
X157135972Y-142215568D01*
X157162467Y-142176478D01*
X157186177Y-142141373D01*
X157206113Y-142111722D01*
X157221286Y-142088992D01*
X157230708Y-142074651D01*
X157232740Y-142071437D01*
X157245354Y-142050800D01*
X157416706Y-142050800D01*
X157471854Y-142051024D01*
X157516823Y-142051685D01*
X157551047Y-142052761D01*
X157573961Y-142054232D01*
X157584999Y-142056075D01*
X157585941Y-142057021D01*
X157581742Y-142063683D01*
X157571067Y-142079098D01*
X157554966Y-142101791D01*
X157534493Y-142130289D01*
X157510698Y-142163116D01*
X157491968Y-142188784D01*
X157433369Y-142268890D01*
X157380165Y-142341656D01*
X157332623Y-142406717D01*
X157291010Y-142463708D01*
X157255593Y-142512262D01*
X157226640Y-142552013D01*
X157204416Y-142582595D01*
X157189188Y-142603643D01*
X157181540Y-142614340D01*
X157167067Y-142634955D01*
X157257971Y-142746933D01*
X157291580Y-142788319D01*
X157329396Y-142834862D01*
X157368308Y-142882732D01*
X157405203Y-142928101D01*
X157434774Y-142964443D01*
X157483100Y-143023828D01*
X157523998Y-143074119D01*
X157558068Y-143116065D01*
X157585910Y-143150414D01*
X157608124Y-143177912D01*
X157625310Y-143199308D01*
X157638069Y-143215350D01*
X157647000Y-143226784D01*
X157652704Y-143234358D01*
X157655780Y-143238821D01*
X157656830Y-143240919D01*
X157656850Y-143241096D01*
X157650757Y-143241966D01*
X157633511Y-143242750D01*
X157606656Y-143243419D01*
X157571738Y-143243947D01*
X157530303Y-143244307D01*
X157483897Y-143244472D01*
X157464762Y-143244477D01*
X157272675Y-143244354D01*
X157195849Y-143138114D01*
X157168070Y-143099754D01*
X157136173Y-143055800D01*
X157101500Y-143008093D01*
X157065394Y-142958476D01*
X157029198Y-142908791D01*
X156994253Y-142860880D01*
X156961902Y-142816584D01*
X156933488Y-142777746D01*
X156910353Y-142746209D01*
X156899256Y-142731138D01*
X156869450Y-142690752D01*
X156869450Y-143244600D01*
X156583700Y-143244600D01*
X156583700Y-141650750D01*
X156869369Y-141650750D01*
X156872625Y-142605028D01*
G36*
X161282700Y-143244600D02*
G01*
X160996950Y-143244600D01*
X160996950Y-142050800D01*
X161282700Y-142050800D01*
X161282700Y-143244600D01*
G37*
X161282700Y-143244600D02*
X160996950Y-143244600D01*
X160996950Y-142050800D01*
X161282700Y-142050800D01*
X161282700Y-143244600D01*
G36*
X161797050Y-143244600D02*
G01*
X161511250Y-143244600D01*
X161512862Y-142449262D01*
X161514475Y-141653925D01*
X161655762Y-141652216D01*
X161797050Y-141650507D01*
X161797050Y-143244600D01*
G37*
X161797050Y-143244600D02*
X161511250Y-143244600D01*
X161512862Y-142449262D01*
X161514475Y-141653925D01*
X161655762Y-141652216D01*
X161797050Y-141650507D01*
X161797050Y-143244600D01*
G36*
X152831072Y-142812231D02*
G01*
X152851468Y-142825223D01*
X152872148Y-142835715D01*
X152879160Y-142838426D01*
X152893457Y-142844194D01*
X152898707Y-142851732D01*
X152897886Y-142866004D01*
X152897441Y-142868915D01*
X152893739Y-142891243D01*
X152888268Y-142922465D01*
X152881675Y-142959004D01*
X152874609Y-142997288D01*
X152867716Y-143033740D01*
X152865626Y-143044575D01*
X152860599Y-143071154D01*
X152854451Y-143104654D01*
X152848204Y-143139476D01*
X152845628Y-143154112D01*
X152839734Y-143185091D01*
X152834625Y-143205104D01*
X152829762Y-143215816D01*
X152824616Y-143218890D01*
X152814425Y-143216755D01*
X152795767Y-143211345D01*
X152772123Y-143203694D01*
X152764175Y-143200975D01*
X152681109Y-143166333D01*
X152603903Y-143122390D01*
X152538750Y-143073699D01*
X152516525Y-143054728D01*
X152532400Y-143039617D01*
X152549270Y-143023748D01*
X152572171Y-143002478D01*
X152599517Y-142977251D01*
X152629729Y-142949509D01*
X152661223Y-142920697D01*
X152692416Y-142892257D01*
X152721727Y-142865633D01*
X152747574Y-142842268D01*
X152768373Y-142823606D01*
X152782544Y-142811090D01*
X152787708Y-142806729D01*
X152804892Y-142793266D01*
X152831072Y-142812231D01*
G37*
X152831072Y-142812231D02*
X152851468Y-142825223D01*
X152872148Y-142835715D01*
X152879160Y-142838426D01*
X152893457Y-142844194D01*
X152898707Y-142851732D01*
X152897886Y-142866004D01*
X152897441Y-142868915D01*
X152893739Y-142891243D01*
X152888268Y-142922465D01*
X152881675Y-142959004D01*
X152874609Y-142997288D01*
X152867716Y-143033740D01*
X152865626Y-143044575D01*
X152860599Y-143071154D01*
X152854451Y-143104654D01*
X152848204Y-143139476D01*
X152845628Y-143154112D01*
X152839734Y-143185091D01*
X152834625Y-143205104D01*
X152829762Y-143215816D01*
X152824616Y-143218890D01*
X152814425Y-143216755D01*
X152795767Y-143211345D01*
X152772123Y-143203694D01*
X152764175Y-143200975D01*
X152681109Y-143166333D01*
X152603903Y-143122390D01*
X152538750Y-143073699D01*
X152516525Y-143054728D01*
X152532400Y-143039617D01*
X152549270Y-143023748D01*
X152572171Y-143002478D01*
X152599517Y-142977251D01*
X152629729Y-142949509D01*
X152661223Y-142920697D01*
X152692416Y-142892257D01*
X152721727Y-142865633D01*
X152747574Y-142842268D01*
X152768373Y-142823606D01*
X152782544Y-142811090D01*
X152787708Y-142806729D01*
X152804892Y-142793266D01*
X152831072Y-142812231D01*
G36*
X152740918Y-142696546D02*
G01*
X152748440Y-142701695D01*
X152754594Y-142711335D01*
X152761541Y-142725640D01*
X152761747Y-142726067D01*
X152778317Y-142760307D01*
X152622021Y-142868021D01*
X152582385Y-142895312D01*
X152545970Y-142920336D01*
X152514135Y-142942163D01*
X152488239Y-142959865D01*
X152469640Y-142972511D01*
X152459697Y-142979171D01*
X152458562Y-142979888D01*
X152451660Y-142976970D01*
X152440114Y-142964580D01*
X152425424Y-142944362D01*
X152423387Y-142941283D01*
X152390453Y-142886306D01*
X152365898Y-142835090D01*
X152361880Y-142824898D01*
X152359430Y-142817159D01*
X152360397Y-142811522D01*
X152366810Y-142806669D01*
X152380699Y-142801279D01*
X152404093Y-142794037D01*
X152413869Y-142791127D01*
X152441172Y-142782940D01*
X152465442Y-142775528D01*
X152482990Y-142770023D01*
X152487950Y-142768389D01*
X152501704Y-142763969D01*
X152523284Y-142757353D01*
X152548316Y-142749879D01*
X152551450Y-142748956D01*
X152581306Y-142740004D01*
X152616327Y-142729235D01*
X152649609Y-142718775D01*
X152653934Y-142717393D01*
X152688537Y-142706313D01*
X152713127Y-142699029D01*
X152729868Y-142695716D01*
X152740918Y-142696546D01*
G37*
X152740918Y-142696546D02*
X152748440Y-142701695D01*
X152754594Y-142711335D01*
X152761541Y-142725640D01*
X152761747Y-142726067D01*
X152778317Y-142760307D01*
X152622021Y-142868021D01*
X152582385Y-142895312D01*
X152545970Y-142920336D01*
X152514135Y-142942163D01*
X152488239Y-142959865D01*
X152469640Y-142972511D01*
X152459697Y-142979171D01*
X152458562Y-142979888D01*
X152451660Y-142976970D01*
X152440114Y-142964580D01*
X152425424Y-142944362D01*
X152423387Y-142941283D01*
X152390453Y-142886306D01*
X152365898Y-142835090D01*
X152361880Y-142824898D01*
X152359430Y-142817159D01*
X152360397Y-142811522D01*
X152366810Y-142806669D01*
X152380699Y-142801279D01*
X152404093Y-142794037D01*
X152413869Y-142791127D01*
X152441172Y-142782940D01*
X152465442Y-142775528D01*
X152482990Y-142770023D01*
X152487950Y-142768389D01*
X152501704Y-142763969D01*
X152523284Y-142757353D01*
X152548316Y-142749879D01*
X152551450Y-142748956D01*
X152581306Y-142740004D01*
X152616327Y-142729235D01*
X152649609Y-142718775D01*
X152653934Y-142717393D01*
X152688537Y-142706313D01*
X152713127Y-142699029D01*
X152729868Y-142695716D01*
X152740918Y-142696546D01*
G36*
X152730829Y-142620712D02*
G01*
X152732465Y-142636429D01*
X152732786Y-142645426D01*
X152732626Y-142646067D01*
X152726293Y-142648066D01*
X152711400Y-142651476D01*
X152700190Y-142653771D01*
X152676370Y-142658613D01*
X152647604Y-142664665D01*
X152627650Y-142668975D01*
X152568804Y-142681881D01*
X152520856Y-142692428D01*
X152482292Y-142700954D01*
X152451601Y-142707795D01*
X152427268Y-142713288D01*
X152407782Y-142717771D01*
X152394569Y-142720878D01*
X152367488Y-142726944D01*
X152350171Y-142729503D01*
X152340158Y-142728484D01*
X152334987Y-142723818D01*
X152333156Y-142719137D01*
X152328841Y-142700885D01*
X152324228Y-142676143D01*
X152320114Y-142649892D01*
X152317292Y-142627109D01*
X152316500Y-142614783D01*
X152316500Y-142596900D01*
X152727860Y-142596900D01*
X152730829Y-142620712D01*
G37*
X152730829Y-142620712D02*
X152732465Y-142636429D01*
X152732786Y-142645426D01*
X152732626Y-142646067D01*
X152726293Y-142648066D01*
X152711400Y-142651476D01*
X152700190Y-142653771D01*
X152676370Y-142658613D01*
X152647604Y-142664665D01*
X152627650Y-142668975D01*
X152568804Y-142681881D01*
X152520856Y-142692428D01*
X152482292Y-142700954D01*
X152451601Y-142707795D01*
X152427268Y-142713288D01*
X152407782Y-142717771D01*
X152394569Y-142720878D01*
X152367488Y-142726944D01*
X152350171Y-142729503D01*
X152340158Y-142728484D01*
X152334987Y-142723818D01*
X152333156Y-142719137D01*
X152328841Y-142700885D01*
X152324228Y-142676143D01*
X152320114Y-142649892D01*
X152317292Y-142627109D01*
X152316500Y-142614783D01*
X152316500Y-142596900D01*
X152727860Y-142596900D01*
X152730829Y-142620712D01*
G36*
X162081212Y-141041186D02*
G01*
X162111826Y-141042123D01*
X162143717Y-141044534D01*
X162168525Y-141047682D01*
X162194330Y-141051794D01*
X162219474Y-141055382D01*
X162232025Y-141056933D01*
X162249218Y-141059838D01*
X162275189Y-141065428D01*
X162306517Y-141072864D01*
X162339777Y-141081306D01*
X162371549Y-141089913D01*
X162397125Y-141097445D01*
X162424841Y-141107237D01*
X162460144Y-141121443D01*
X162499381Y-141138564D01*
X162517775Y-141147018D01*
X162534464Y-141155289D01*
X162556918Y-141167032D01*
X162582172Y-141180621D01*
X162607258Y-141194428D01*
X162629211Y-141206825D01*
X162645064Y-141216184D01*
X162651125Y-141220197D01*
X162658660Y-141225869D01*
X162673991Y-141237213D01*
X162694656Y-141252413D01*
X162711450Y-141264719D01*
X162729459Y-141279207D01*
X162755576Y-141302145D01*
X162789080Y-141332854D01*
X162829251Y-141370655D01*
X162875369Y-141414868D01*
X162926713Y-141464814D01*
X162982562Y-141519812D01*
X162996642Y-141533774D01*
X163227860Y-141763335D01*
X163080064Y-141910242D01*
X163044574Y-141945475D01*
X163012092Y-141977636D01*
X162983676Y-142005684D01*
X162960386Y-142028578D01*
X162943282Y-142045275D01*
X162933421Y-142054733D01*
X162931396Y-142056504D01*
X162926901Y-142051999D01*
X162914368Y-142039347D01*
X162894681Y-142019442D01*
X162868721Y-141993177D01*
X162837372Y-141961447D01*
X162801517Y-141925143D01*
X162762038Y-141885160D01*
X162724150Y-141846779D01*
X162666921Y-141789014D01*
X162617441Y-141739616D01*
X162574730Y-141697727D01*
X162537811Y-141662489D01*
X162505703Y-141633045D01*
X162477427Y-141608536D01*
X162452004Y-141588104D01*
X162428456Y-141570891D01*
X162405802Y-141556038D01*
X162383063Y-141542689D01*
X162367569Y-141534303D01*
X162300331Y-141502593D01*
X162234725Y-141479830D01*
X162166418Y-141464805D01*
X162091075Y-141456306D01*
X162087562Y-141456065D01*
X162032000Y-141452346D01*
X162032000Y-141041150D01*
X162081212Y-141041186D01*
G37*
X162081212Y-141041186D02*
X162111826Y-141042123D01*
X162143717Y-141044534D01*
X162168525Y-141047682D01*
X162194330Y-141051794D01*
X162219474Y-141055382D01*
X162232025Y-141056933D01*
X162249218Y-141059838D01*
X162275189Y-141065428D01*
X162306517Y-141072864D01*
X162339777Y-141081306D01*
X162371549Y-141089913D01*
X162397125Y-141097445D01*
X162424841Y-141107237D01*
X162460144Y-141121443D01*
X162499381Y-141138564D01*
X162517775Y-141147018D01*
X162534464Y-141155289D01*
X162556918Y-141167032D01*
X162582172Y-141180621D01*
X162607258Y-141194428D01*
X162629211Y-141206825D01*
X162645064Y-141216184D01*
X162651125Y-141220197D01*
X162658660Y-141225869D01*
X162673991Y-141237213D01*
X162694656Y-141252413D01*
X162711450Y-141264719D01*
X162729459Y-141279207D01*
X162755576Y-141302145D01*
X162789080Y-141332854D01*
X162829251Y-141370655D01*
X162875369Y-141414868D01*
X162926713Y-141464814D01*
X162982562Y-141519812D01*
X162996642Y-141533774D01*
X163227860Y-141763335D01*
X163080064Y-141910242D01*
X163044574Y-141945475D01*
X163012092Y-141977636D01*
X162983676Y-142005684D01*
X162960386Y-142028578D01*
X162943282Y-142045275D01*
X162933421Y-142054733D01*
X162931396Y-142056504D01*
X162926901Y-142051999D01*
X162914368Y-142039347D01*
X162894681Y-142019442D01*
X162868721Y-141993177D01*
X162837372Y-141961447D01*
X162801517Y-141925143D01*
X162762038Y-141885160D01*
X162724150Y-141846779D01*
X162666921Y-141789014D01*
X162617441Y-141739616D01*
X162574730Y-141697727D01*
X162537811Y-141662489D01*
X162505703Y-141633045D01*
X162477427Y-141608536D01*
X162452004Y-141588104D01*
X162428456Y-141570891D01*
X162405802Y-141556038D01*
X162383063Y-141542689D01*
X162367569Y-141534303D01*
X162300331Y-141502593D01*
X162234725Y-141479830D01*
X162166418Y-141464805D01*
X162091075Y-141456306D01*
X162087562Y-141456065D01*
X162032000Y-141452346D01*
X162032000Y-141041150D01*
X162081212Y-141041186D01*
G36*
X164843462Y-141041186D02*
G01*
X164874076Y-141042123D01*
X164905967Y-141044534D01*
X164930775Y-141047682D01*
X164956580Y-141051794D01*
X164981724Y-141055382D01*
X164994275Y-141056933D01*
X165011468Y-141059838D01*
X165037439Y-141065428D01*
X165068767Y-141072864D01*
X165102027Y-141081306D01*
X165133799Y-141089913D01*
X165159375Y-141097445D01*
X165187091Y-141107237D01*
X165222394Y-141121443D01*
X165261631Y-141138564D01*
X165280025Y-141147018D01*
X165296714Y-141155289D01*
X165319168Y-141167032D01*
X165344422Y-141180621D01*
X165369508Y-141194428D01*
X165391461Y-141206825D01*
X165407314Y-141216184D01*
X165413375Y-141220197D01*
X165420910Y-141225869D01*
X165436241Y-141237213D01*
X165456906Y-141252413D01*
X165473700Y-141264719D01*
X165491709Y-141279207D01*
X165517826Y-141302145D01*
X165551330Y-141332854D01*
X165591501Y-141370655D01*
X165637619Y-141414868D01*
X165688963Y-141464814D01*
X165744812Y-141519812D01*
X165758892Y-141533774D01*
X165990110Y-141763335D01*
X165842314Y-141910242D01*
X165806824Y-141945475D01*
X165774342Y-141977636D01*
X165745926Y-142005684D01*
X165722636Y-142028578D01*
X165705532Y-142045275D01*
X165695671Y-142054733D01*
X165693646Y-142056504D01*
X165689151Y-142051999D01*
X165676618Y-142039347D01*
X165656931Y-142019442D01*
X165630971Y-141993177D01*
X165599622Y-141961447D01*
X165563767Y-141925143D01*
X165524288Y-141885160D01*
X165486400Y-141846779D01*
X165429171Y-141789014D01*
X165379691Y-141739616D01*
X165336980Y-141697727D01*
X165300061Y-141662489D01*
X165267953Y-141633045D01*
X165239677Y-141608536D01*
X165214254Y-141588104D01*
X165190706Y-141570891D01*
X165168052Y-141556038D01*
X165145313Y-141542689D01*
X165129819Y-141534303D01*
X165062581Y-141502593D01*
X164996975Y-141479830D01*
X164928668Y-141464805D01*
X164853325Y-141456306D01*
X164849812Y-141456065D01*
X164794250Y-141452346D01*
X164794250Y-141041150D01*
X164843462Y-141041186D01*
G37*
X164843462Y-141041186D02*
X164874076Y-141042123D01*
X164905967Y-141044534D01*
X164930775Y-141047682D01*
X164956580Y-141051794D01*
X164981724Y-141055382D01*
X164994275Y-141056933D01*
X165011468Y-141059838D01*
X165037439Y-141065428D01*
X165068767Y-141072864D01*
X165102027Y-141081306D01*
X165133799Y-141089913D01*
X165159375Y-141097445D01*
X165187091Y-141107237D01*
X165222394Y-141121443D01*
X165261631Y-141138564D01*
X165280025Y-141147018D01*
X165296714Y-141155289D01*
X165319168Y-141167032D01*
X165344422Y-141180621D01*
X165369508Y-141194428D01*
X165391461Y-141206825D01*
X165407314Y-141216184D01*
X165413375Y-141220197D01*
X165420910Y-141225869D01*
X165436241Y-141237213D01*
X165456906Y-141252413D01*
X165473700Y-141264719D01*
X165491709Y-141279207D01*
X165517826Y-141302145D01*
X165551330Y-141332854D01*
X165591501Y-141370655D01*
X165637619Y-141414868D01*
X165688963Y-141464814D01*
X165744812Y-141519812D01*
X165758892Y-141533774D01*
X165990110Y-141763335D01*
X165842314Y-141910242D01*
X165806824Y-141945475D01*
X165774342Y-141977636D01*
X165745926Y-142005684D01*
X165722636Y-142028578D01*
X165705532Y-142045275D01*
X165695671Y-142054733D01*
X165693646Y-142056504D01*
X165689151Y-142051999D01*
X165676618Y-142039347D01*
X165656931Y-142019442D01*
X165630971Y-141993177D01*
X165599622Y-141961447D01*
X165563767Y-141925143D01*
X165524288Y-141885160D01*
X165486400Y-141846779D01*
X165429171Y-141789014D01*
X165379691Y-141739616D01*
X165336980Y-141697727D01*
X165300061Y-141662489D01*
X165267953Y-141633045D01*
X165239677Y-141608536D01*
X165214254Y-141588104D01*
X165190706Y-141570891D01*
X165168052Y-141556038D01*
X165145313Y-141542689D01*
X165129819Y-141534303D01*
X165062581Y-141502593D01*
X164996975Y-141479830D01*
X164928668Y-141464805D01*
X164853325Y-141456306D01*
X164849812Y-141456065D01*
X164794250Y-141452346D01*
X164794250Y-141041150D01*
X164843462Y-141041186D01*
G36*
X161282700Y-141923800D02*
G01*
X160996697Y-141923800D01*
X160998411Y-141788862D01*
X161000125Y-141653925D01*
X161141412Y-141652216D01*
X161282700Y-141650507D01*
X161282700Y-141923800D01*
G37*
X161282700Y-141923800D02*
X160996697Y-141923800D01*
X160998411Y-141788862D01*
X161000125Y-141653925D01*
X161141412Y-141652216D01*
X161282700Y-141650507D01*
X161282700Y-141923800D01*
%LPC*%
D12*
X177000000Y-129750000D03*
X177000000Y-110000000D03*
X177000000Y-90250000D03*
X143000000Y-90250000D03*
X143000000Y-110000000D03*
X143000000Y-129750000D03*
D13*
X160000000Y-130000000D03*
D14*
X142679492Y-140000000D03*
X160000000Y-110000000D03*
X177320508Y-140000000D03*
D15*
X156500000Y-88000000D03*
D16*
X160000000Y-88000000D03*
D15*
X163500000Y-88000000D03*
M02*
