ISO-10303-21;
HEADER;
/* Generated by software containing ST-Developer
 * from STEP Tools, Inc. (www.steptools.com) 
 */
/* OPTION: using custom renumber hook */

FILE_DESCRIPTION(
/* description */ ('STEP AP214'),
/* implementation_level */ '2;1');

FILE_NAME(
/* name */ 'NSK_51101',
/* time_stamp */ '2025-12-30T07:41:31+01:00',
/* author */ ('License CC BY-ND 4.0'),
/* organization */ ('CADENAS'),
/* preprocessor_version */ 'ST-DEVELOPER v20',
/* originating_system */ 'PARTsolutions',
/* authorisation */ '  ');

FILE_SCHEMA (('AUTOMOTIVE_DESIGN {1 0 10303 214 3 1 1}'));
ENDSEC;

DATA;
#10=PROPERTY_DEFINITION_REPRESENTATION(#14,#12);
#11=PROPERTY_DEFINITION_REPRESENTATION(#15,#13);
#12=REPRESENTATION('',(#16),#579);
#13=REPRESENTATION('',(#17),#579);
#14=PROPERTY_DEFINITION('pmi validation property','',#590);
#15=PROPERTY_DEFINITION('pmi validation property','',#590);
#16=VALUE_REPRESENTATION_ITEM('number of annotations',COUNT_MEASURE(0.));
#17=VALUE_REPRESENTATION_ITEM('number of views',COUNT_MEASURE(0.));
#18=VERTEX_LOOP('',#172);
#19=SPHERICAL_SURFACE('',#380,2.25);
#20=CONTEXT_DEPENDENT_SHAPE_REPRESENTATION(#46,#592);
#21=CONTEXT_DEPENDENT_SHAPE_REPRESENTATION(#47,#594);
#22=CONTEXT_DEPENDENT_SHAPE_REPRESENTATION(#48,#596);
#23=CONTEXT_DEPENDENT_SHAPE_REPRESENTATION(#49,#597);
#24=CONTEXT_DEPENDENT_SHAPE_REPRESENTATION(#50,#598);
#25=CONTEXT_DEPENDENT_SHAPE_REPRESENTATION(#51,#599);
#26=CONTEXT_DEPENDENT_SHAPE_REPRESENTATION(#52,#600);
#27=CONTEXT_DEPENDENT_SHAPE_REPRESENTATION(#53,#601);
#28=CONTEXT_DEPENDENT_SHAPE_REPRESENTATION(#54,#602);
#29=CONTEXT_DEPENDENT_SHAPE_REPRESENTATION(#55,#603);
#30=CONTEXT_DEPENDENT_SHAPE_REPRESENTATION(#56,#604);
#31=CONTEXT_DEPENDENT_SHAPE_REPRESENTATION(#57,#605);
#32=CONTEXT_DEPENDENT_SHAPE_REPRESENTATION(#58,#606);
#33=NEXT_ASSEMBLY_USAGE_OCCURRENCE('NAUO1','51101 Housing washer',
'51101 Housing washer',#607,#608,'');
#34=NEXT_ASSEMBLY_USAGE_OCCURRENCE('NAUO2','51101 Shaft washer',
'51101 Shaft washer',#607,#609,'');
#35=NEXT_ASSEMBLY_USAGE_OCCURRENCE('NAUO3','51101 Ball','51101 Ball',#607,
#610,'');
#36=NEXT_ASSEMBLY_USAGE_OCCURRENCE('NAUO4','51101 Ball','51101 Ball',#607,
#610,'');
#37=NEXT_ASSEMBLY_USAGE_OCCURRENCE('NAUO5','51101 Ball','51101 Ball',#607,
#610,'');
#38=NEXT_ASSEMBLY_USAGE_OCCURRENCE('NAUO6','51101 Ball','51101 Ball',#607,
#610,'');
#39=NEXT_ASSEMBLY_USAGE_OCCURRENCE('NAUO7','51101 Ball','51101 Ball',#607,
#610,'');
#40=NEXT_ASSEMBLY_USAGE_OCCURRENCE('NAUO8','51101 Ball','51101 Ball',#607,
#610,'');
#41=NEXT_ASSEMBLY_USAGE_OCCURRENCE('NAUO9','51101 Ball','51101 Ball',#607,
#610,'');
#42=NEXT_ASSEMBLY_USAGE_OCCURRENCE('NAUO10','51101 Ball','51101 Ball',#607,
#610,'');
#43=NEXT_ASSEMBLY_USAGE_OCCURRENCE('NAUO11','51101 Ball','51101 Ball',#607,
#610,'');
#44=NEXT_ASSEMBLY_USAGE_OCCURRENCE('NAUO12','51101 Ball','51101 Ball',#607,
#610,'');
#45=NEXT_ASSEMBLY_USAGE_OCCURRENCE('NAUO13','51101 Ball','51101 Ball',#607,
#610,'');
#46=(
REPRESENTATION_RELATIONSHIP(' ',' ',#334,#333)
REPRESENTATION_RELATIONSHIP_WITH_TRANSFORMATION(#59)
SHAPE_REPRESENTATION_RELATIONSHIP()
);
#47=(
REPRESENTATION_RELATIONSHIP(' ',' ',#335,#333)
REPRESENTATION_RELATIONSHIP_WITH_TRANSFORMATION(#60)
SHAPE_REPRESENTATION_RELATIONSHIP()
);
#48=(
REPRESENTATION_RELATIONSHIP(' ',' ',#336,#333)
REPRESENTATION_RELATIONSHIP_WITH_TRANSFORMATION(#61)
SHAPE_REPRESENTATION_RELATIONSHIP()
);
#49=(
REPRESENTATION_RELATIONSHIP(' ',' ',#336,#333)
REPRESENTATION_RELATIONSHIP_WITH_TRANSFORMATION(#62)
SHAPE_REPRESENTATION_RELATIONSHIP()
);
#50=(
REPRESENTATION_RELATIONSHIP(' ',' ',#336,#333)
REPRESENTATION_RELATIONSHIP_WITH_TRANSFORMATION(#63)
SHAPE_REPRESENTATION_RELATIONSHIP()
);
#51=(
REPRESENTATION_RELATIONSHIP(' ',' ',#336,#333)
REPRESENTATION_RELATIONSHIP_WITH_TRANSFORMATION(#64)
SHAPE_REPRESENTATION_RELATIONSHIP()
);
#52=(
REPRESENTATION_RELATIONSHIP(' ',' ',#336,#333)
REPRESENTATION_RELATIONSHIP_WITH_TRANSFORMATION(#65)
SHAPE_REPRESENTATION_RELATIONSHIP()
);
#53=(
REPRESENTATION_RELATIONSHIP(' ',' ',#336,#333)
REPRESENTATION_RELATIONSHIP_WITH_TRANSFORMATION(#66)
SHAPE_REPRESENTATION_RELATIONSHIP()
);
#54=(
REPRESENTATION_RELATIONSHIP(' ',' ',#336,#333)
REPRESENTATION_RELATIONSHIP_WITH_TRANSFORMATION(#67)
SHAPE_REPRESENTATION_RELATIONSHIP()
);
#55=(
REPRESENTATION_RELATIONSHIP(' ',' ',#336,#333)
REPRESENTATION_RELATIONSHIP_WITH_TRANSFORMATION(#68)
SHAPE_REPRESENTATION_RELATIONSHIP()
);
#56=(
REPRESENTATION_RELATIONSHIP(' ',' ',#336,#333)
REPRESENTATION_RELATIONSHIP_WITH_TRANSFORMATION(#69)
SHAPE_REPRESENTATION_RELATIONSHIP()
);
#57=(
REPRESENTATION_RELATIONSHIP(' ',' ',#336,#333)
REPRESENTATION_RELATIONSHIP_WITH_TRANSFORMATION(#70)
SHAPE_REPRESENTATION_RELATIONSHIP()
);
#58=(
REPRESENTATION_RELATIONSHIP(' ',' ',#336,#333)
REPRESENTATION_RELATIONSHIP_WITH_TRANSFORMATION(#71)
SHAPE_REPRESENTATION_RELATIONSHIP()
);
#59=ITEM_DEFINED_TRANSFORMATION(' ',' ',#337,#358);
#60=ITEM_DEFINED_TRANSFORMATION(' ',' ',#337,#379);
#61=ITEM_DEFINED_TRANSFORMATION(' ',' ',#337,#381);
#62=ITEM_DEFINED_TRANSFORMATION(' ',' ',#337,#382);
#63=ITEM_DEFINED_TRANSFORMATION(' ',' ',#337,#383);
#64=ITEM_DEFINED_TRANSFORMATION(' ',' ',#337,#384);
#65=ITEM_DEFINED_TRANSFORMATION(' ',' ',#337,#385);
#66=ITEM_DEFINED_TRANSFORMATION(' ',' ',#337,#386);
#67=ITEM_DEFINED_TRANSFORMATION(' ',' ',#337,#387);
#68=ITEM_DEFINED_TRANSFORMATION(' ',' ',#337,#388);
#69=ITEM_DEFINED_TRANSFORMATION(' ',' ',#337,#389);
#70=ITEM_DEFINED_TRANSFORMATION(' ',' ',#337,#390);
#71=ITEM_DEFINED_TRANSFORMATION(' ',' ',#337,#391);
#72=SHAPE_REPRESENTATION_RELATIONSHIP('','',#334,#75);
#73=SHAPE_REPRESENTATION_RELATIONSHIP('','',#335,#76);
#74=SHAPE_REPRESENTATION_RELATIONSHIP('','',#336,#77);
#75=ADVANCED_BREP_SHAPE_REPRESENTATION('',(#326),#580);
#76=ADVANCED_BREP_SHAPE_REPRESENTATION('',(#327),#581);
#77=ADVANCED_BREP_SHAPE_REPRESENTATION('',(#328),#582);
#78=CYLINDRICAL_SURFACE('',#343,6.5);
#79=CYLINDRICAL_SURFACE('',#355,13.);
#80=CYLINDRICAL_SURFACE('',#368,6.);
#81=CYLINDRICAL_SURFACE('',#376,13.);
#82=TOROIDAL_SURFACE('',#341,6.8,0.299999999999999);
#83=TOROIDAL_SURFACE('',#345,6.8,0.299999999999998);
#84=TOROIDAL_SURFACE('',#349,9.75,2.25000000000001);
#85=TOROIDAL_SURFACE('',#353,12.7,0.300000000000002);
#86=TOROIDAL_SURFACE('',#357,12.7,0.300000000000002);
#87=TOROIDAL_SURFACE('',#362,9.75,2.25);
#88=TOROIDAL_SURFACE('',#366,6.3,0.3);
#89=TOROIDAL_SURFACE('',#370,6.3,0.299999999999998);
#90=TOROIDAL_SURFACE('',#374,12.7,0.300000000000001);
#91=TOROIDAL_SURFACE('',#378,12.7,0.300000000000003);
#92=ORIENTED_EDGE('',*,*,#132,.T.);
#93=ORIENTED_EDGE('',*,*,#133,.F.);
#94=ORIENTED_EDGE('',*,*,#134,.T.);
#95=ORIENTED_EDGE('',*,*,#132,.F.);
#96=ORIENTED_EDGE('',*,*,#135,.T.);
#97=ORIENTED_EDGE('',*,*,#134,.F.);
#98=ORIENTED_EDGE('',*,*,#136,.T.);
#99=ORIENTED_EDGE('',*,*,#135,.F.);
#100=ORIENTED_EDGE('',*,*,#137,.T.);
#101=ORIENTED_EDGE('',*,*,#136,.F.);
#102=ORIENTED_EDGE('',*,*,#137,.F.);
#103=ORIENTED_EDGE('',*,*,#138,.T.);
#104=ORIENTED_EDGE('',*,*,#139,.T.);
#105=ORIENTED_EDGE('',*,*,#138,.F.);
#106=ORIENTED_EDGE('',*,*,#140,.T.);
#107=ORIENTED_EDGE('',*,*,#139,.F.);
#108=ORIENTED_EDGE('',*,*,#141,.T.);
#109=ORIENTED_EDGE('',*,*,#140,.F.);
#110=ORIENTED_EDGE('',*,*,#133,.T.);
#111=ORIENTED_EDGE('',*,*,#141,.F.);
#112=ORIENTED_EDGE('',*,*,#142,.T.);
#113=ORIENTED_EDGE('',*,*,#143,.F.);
#114=ORIENTED_EDGE('',*,*,#142,.F.);
#115=ORIENTED_EDGE('',*,*,#144,.T.);
#116=ORIENTED_EDGE('',*,*,#145,.T.);
#117=ORIENTED_EDGE('',*,*,#144,.F.);
#118=ORIENTED_EDGE('',*,*,#146,.T.);
#119=ORIENTED_EDGE('',*,*,#145,.F.);
#120=ORIENTED_EDGE('',*,*,#147,.T.);
#121=ORIENTED_EDGE('',*,*,#146,.F.);
#122=ORIENTED_EDGE('',*,*,#148,.T.);
#123=ORIENTED_EDGE('',*,*,#147,.F.);
#124=ORIENTED_EDGE('',*,*,#149,.T.);
#125=ORIENTED_EDGE('',*,*,#148,.F.);
#126=ORIENTED_EDGE('',*,*,#150,.T.);
#127=ORIENTED_EDGE('',*,*,#149,.F.);
#128=ORIENTED_EDGE('',*,*,#151,.T.);
#129=ORIENTED_EDGE('',*,*,#150,.F.);
#130=ORIENTED_EDGE('',*,*,#143,.T.);
#131=ORIENTED_EDGE('',*,*,#151,.F.);
#132=EDGE_CURVE('',#152,#152,#173,.T.);
#133=EDGE_CURVE('',#153,#153,#174,.T.);
#134=EDGE_CURVE('',#154,#154,#175,.T.);
#135=EDGE_CURVE('',#155,#155,#176,.T.);
#136=EDGE_CURVE('',#156,#156,#177,.T.);
#137=EDGE_CURVE('',#157,#157,#178,.T.);
#138=EDGE_CURVE('',#158,#158,#179,.T.);
#139=EDGE_CURVE('',#159,#159,#180,.T.);
#140=EDGE_CURVE('',#160,#160,#181,.T.);
#141=EDGE_CURVE('',#161,#161,#182,.T.);
#142=EDGE_CURVE('',#162,#162,#183,.T.);
#143=EDGE_CURVE('',#163,#163,#184,.T.);
#144=EDGE_CURVE('',#164,#164,#185,.T.);
#145=EDGE_CURVE('',#165,#165,#186,.T.);
#146=EDGE_CURVE('',#166,#166,#187,.T.);
#147=EDGE_CURVE('',#167,#167,#188,.T.);
#148=EDGE_CURVE('',#168,#168,#189,.T.);
#149=EDGE_CURVE('',#169,#169,#190,.T.);
#150=EDGE_CURVE('',#170,#170,#191,.T.);
#151=EDGE_CURVE('',#171,#171,#192,.T.);
#152=VERTEX_POINT('',#505);
#153=VERTEX_POINT('',#507);
#154=VERTEX_POINT('',#510);
#155=VERTEX_POINT('',#513);
#156=VERTEX_POINT('',#516);
#157=VERTEX_POINT('',#519);
#158=VERTEX_POINT('',#522);
#159=VERTEX_POINT('',#525);
#160=VERTEX_POINT('',#528);
#161=VERTEX_POINT('',#531);
#162=VERTEX_POINT('',#536);
#163=VERTEX_POINT('',#538);
#164=VERTEX_POINT('',#541);
#165=VERTEX_POINT('',#544);
#166=VERTEX_POINT('',#547);
#167=VERTEX_POINT('',#550);
#168=VERTEX_POINT('',#553);
#169=VERTEX_POINT('',#556);
#170=VERTEX_POINT('',#559);
#171=VERTEX_POINT('',#562);
#172=VERTEX_POINT('',#566);
#173=CIRCLE('',#339,6.8);
#174=CIRCLE('',#340,12.7);
#175=CIRCLE('',#342,6.5);
#176=CIRCLE('',#344,6.5);
#177=CIRCLE('',#346,6.8);
#178=CIRCLE('',#348,8.71922359359558);
#179=CIRCLE('',#350,10.7807764064044);
#180=CIRCLE('',#352,12.7);
#181=CIRCLE('',#354,13.);
#182=CIRCLE('',#356,13.);
#183=CIRCLE('',#360,10.7807764064044);
#184=CIRCLE('',#361,12.7);
#185=CIRCLE('',#363,8.71922359359558);
#186=CIRCLE('',#365,6.3);
#187=CIRCLE('',#367,6.);
#188=CIRCLE('',#369,6.);
#189=CIRCLE('',#371,6.3);
#190=CIRCLE('',#373,12.7);
#191=CIRCLE('',#375,13.);
#192=CIRCLE('',#377,13.);
#193=EDGE_LOOP('',(#92));
#194=EDGE_LOOP('',(#93));
#195=EDGE_LOOP('',(#94));
#196=EDGE_LOOP('',(#95));
#197=EDGE_LOOP('',(#96));
#198=EDGE_LOOP('',(#97));
#199=EDGE_LOOP('',(#98));
#200=EDGE_LOOP('',(#99));
#201=EDGE_LOOP('',(#100));
#202=EDGE_LOOP('',(#101));
#203=EDGE_LOOP('',(#102));
#204=EDGE_LOOP('',(#103));
#205=EDGE_LOOP('',(#104));
#206=EDGE_LOOP('',(#105));
#207=EDGE_LOOP('',(#106));
#208=EDGE_LOOP('',(#107));
#209=EDGE_LOOP('',(#108));
#210=EDGE_LOOP('',(#109));
#211=EDGE_LOOP('',(#110));
#212=EDGE_LOOP('',(#111));
#213=EDGE_LOOP('',(#112));
#214=EDGE_LOOP('',(#113));
#215=EDGE_LOOP('',(#114));
#216=EDGE_LOOP('',(#115));
#217=EDGE_LOOP('',(#116));
#218=EDGE_LOOP('',(#117));
#219=EDGE_LOOP('',(#118));
#220=EDGE_LOOP('',(#119));
#221=EDGE_LOOP('',(#120));
#222=EDGE_LOOP('',(#121));
#223=EDGE_LOOP('',(#122));
#224=EDGE_LOOP('',(#123));
#225=EDGE_LOOP('',(#124));
#226=EDGE_LOOP('',(#125));
#227=EDGE_LOOP('',(#126));
#228=EDGE_LOOP('',(#127));
#229=EDGE_LOOP('',(#128));
#230=EDGE_LOOP('',(#129));
#231=EDGE_LOOP('',(#130));
#232=EDGE_LOOP('',(#131));
#233=FACE_BOUND('',#193,.T.);
#234=FACE_BOUND('',#194,.T.);
#235=FACE_BOUND('',#195,.T.);
#236=FACE_BOUND('',#196,.T.);
#237=FACE_BOUND('',#197,.T.);
#238=FACE_BOUND('',#198,.T.);
#239=FACE_BOUND('',#199,.T.);
#240=FACE_BOUND('',#200,.T.);
#241=FACE_BOUND('',#201,.T.);
#242=FACE_BOUND('',#202,.T.);
#243=FACE_BOUND('',#203,.T.);
#244=FACE_BOUND('',#204,.T.);
#245=FACE_BOUND('',#205,.T.);
#246=FACE_BOUND('',#206,.T.);
#247=FACE_BOUND('',#207,.T.);
#248=FACE_BOUND('',#208,.T.);
#249=FACE_BOUND('',#209,.T.);
#250=FACE_BOUND('',#210,.T.);
#251=FACE_BOUND('',#211,.T.);
#252=FACE_BOUND('',#212,.T.);
#253=FACE_BOUND('',#213,.T.);
#254=FACE_BOUND('',#214,.T.);
#255=FACE_BOUND('',#215,.T.);
#256=FACE_BOUND('',#216,.T.);
#257=FACE_BOUND('',#217,.T.);
#258=FACE_BOUND('',#218,.T.);
#259=FACE_BOUND('',#219,.T.);
#260=FACE_BOUND('',#220,.T.);
#261=FACE_BOUND('',#221,.T.);
#262=FACE_BOUND('',#222,.T.);
#263=FACE_BOUND('',#223,.T.);
#264=FACE_BOUND('',#224,.T.);
#265=FACE_BOUND('',#225,.T.);
#266=FACE_BOUND('',#226,.T.);
#267=FACE_BOUND('',#227,.T.);
#268=FACE_BOUND('',#228,.T.);
#269=FACE_BOUND('',#229,.T.);
#270=FACE_BOUND('',#230,.T.);
#271=FACE_BOUND('',#231,.T.);
#272=FACE_BOUND('',#232,.T.);
#273=FACE_BOUND('',#18,.T.);
#274=PLANE('',#338);
#275=PLANE('',#347);
#276=PLANE('',#351);
#277=PLANE('',#359);
#278=PLANE('',#364);
#279=PLANE('',#372);
#280=ADVANCED_FACE('',(#233,#234),#274,.T.);
#281=ADVANCED_FACE('',(#235,#236),#82,.T.);
#282=ADVANCED_FACE('',(#237,#238),#78,.F.);
#283=ADVANCED_FACE('',(#239,#240),#83,.T.);
#284=ADVANCED_FACE('',(#241,#242),#275,.T.);
#285=ADVANCED_FACE('',(#243,#244),#84,.F.);
#286=ADVANCED_FACE('',(#245,#246),#276,.T.);
#287=ADVANCED_FACE('',(#247,#248),#85,.T.);
#288=ADVANCED_FACE('',(#249,#250),#79,.T.);
#289=ADVANCED_FACE('',(#251,#252),#86,.T.);
#290=ADVANCED_FACE('',(#253,#254),#277,.T.);
#291=ADVANCED_FACE('',(#255,#256),#87,.F.);
#292=ADVANCED_FACE('',(#257,#258),#278,.T.);
#293=ADVANCED_FACE('',(#259,#260),#88,.T.);
#294=ADVANCED_FACE('',(#261,#262),#80,.F.);
#295=ADVANCED_FACE('',(#263,#264),#89,.T.);
#296=ADVANCED_FACE('',(#265,#266),#279,.T.);
#297=ADVANCED_FACE('',(#267,#268),#90,.T.);
#298=ADVANCED_FACE('',(#269,#270),#81,.T.);
#299=ADVANCED_FACE('',(#271,#272),#91,.T.);
#300=ADVANCED_FACE('',(#273),#19,.T.);
#301=CLOSED_SHELL('',(#280,#281,#282,#283,#284,#285,#286,#287,#288,#289));
#302=CLOSED_SHELL('',(#290,#291,#292,#293,#294,#295,#296,#297,#298,#299));
#303=CLOSED_SHELL('',(#300));
#304=STYLED_ITEM('',(#307),#326);
#305=STYLED_ITEM('',(#308),#327);
#306=STYLED_ITEM('',(#309),#328);
#307=PRESENTATION_STYLE_ASSIGNMENT((#310));
#308=PRESENTATION_STYLE_ASSIGNMENT((#311));
#309=PRESENTATION_STYLE_ASSIGNMENT((#312));
#310=SURFACE_STYLE_USAGE(.BOTH.,#313);
#311=SURFACE_STYLE_USAGE(.BOTH.,#314);
#312=SURFACE_STYLE_USAGE(.BOTH.,#315);
#313=SURFACE_SIDE_STYLE('',(#316));
#314=SURFACE_SIDE_STYLE('',(#317));
#315=SURFACE_SIDE_STYLE('',(#318));
#316=SURFACE_STYLE_FILL_AREA(#319);
#317=SURFACE_STYLE_FILL_AREA(#320);
#318=SURFACE_STYLE_FILL_AREA(#321);
#319=FILL_AREA_STYLE('',(#322));
#320=FILL_AREA_STYLE('',(#323));
#321=FILL_AREA_STYLE('',(#324));
#322=FILL_AREA_STYLE_COLOUR('',#325);
#323=FILL_AREA_STYLE_COLOUR('',#325);
#324=FILL_AREA_STYLE_COLOUR('',#325);
#325=COLOUR_RGB('',0.689999997615814,0.689999997615814,0.689999997615814);
#326=MANIFOLD_SOLID_BREP('51101 Housing washer',#301);
#327=MANIFOLD_SOLID_BREP('51101 Shaft washer',#302);
#328=MANIFOLD_SOLID_BREP('51101 Ball',#303);
#329=SHAPE_DEFINITION_REPRESENTATION(#590,#333);
#330=SHAPE_DEFINITION_REPRESENTATION(#591,#334);
#331=SHAPE_DEFINITION_REPRESENTATION(#593,#335);
#332=SHAPE_DEFINITION_REPRESENTATION(#595,#336);
#333=SHAPE_REPRESENTATION('NSK_51101',(#337,#358,#379,#381,#382,#383,#384,
#385,#386,#387,#388,#389,#390,#391),#579);
#334=SHAPE_REPRESENTATION('51101 Housing washer',(#337),#580);
#335=SHAPE_REPRESENTATION('51101 Shaft washer',(#337),#581);
#336=SHAPE_REPRESENTATION('51101 Ball',(#337),#582);
#337=AXIS2_PLACEMENT_3D('',#502,#392,#393);
#338=AXIS2_PLACEMENT_3D('',#503,#394,#395);
#339=AXIS2_PLACEMENT_3D('',#504,#396,#397);
#340=AXIS2_PLACEMENT_3D('',#506,#398,#399);
#341=AXIS2_PLACEMENT_3D('',#508,#400,#401);
#342=AXIS2_PLACEMENT_3D('',#509,#402,#403);
#343=AXIS2_PLACEMENT_3D('',#511,#404,#405);
#344=AXIS2_PLACEMENT_3D('',#512,#406,#407);
#345=AXIS2_PLACEMENT_3D('',#514,#408,#409);
#346=AXIS2_PLACEMENT_3D('',#515,#410,#411);
#347=AXIS2_PLACEMENT_3D('',#517,#412,#413);
#348=AXIS2_PLACEMENT_3D('',#518,#414,#415);
#349=AXIS2_PLACEMENT_3D('',#520,#416,#417);
#350=AXIS2_PLACEMENT_3D('',#521,#418,#419);
#351=AXIS2_PLACEMENT_3D('',#523,#420,#421);
#352=AXIS2_PLACEMENT_3D('',#524,#422,#423);
#353=AXIS2_PLACEMENT_3D('',#526,#424,#425);
#354=AXIS2_PLACEMENT_3D('',#527,#426,#427);
#355=AXIS2_PLACEMENT_3D('',#529,#428,#429);
#356=AXIS2_PLACEMENT_3D('',#530,#430,#431);
#357=AXIS2_PLACEMENT_3D('',#532,#432,#433);
#358=AXIS2_PLACEMENT_3D('',#533,#434,#435);
#359=AXIS2_PLACEMENT_3D('',#534,#436,#437);
#360=AXIS2_PLACEMENT_3D('',#535,#438,#439);
#361=AXIS2_PLACEMENT_3D('',#537,#440,#441);
#362=AXIS2_PLACEMENT_3D('',#539,#442,#443);
#363=AXIS2_PLACEMENT_3D('',#540,#444,#445);
#364=AXIS2_PLACEMENT_3D('',#542,#446,#447);
#365=AXIS2_PLACEMENT_3D('',#543,#448,#449);
#366=AXIS2_PLACEMENT_3D('',#545,#450,#451);
#367=AXIS2_PLACEMENT_3D('',#546,#452,#453);
#368=AXIS2_PLACEMENT_3D('',#548,#454,#455);
#369=AXIS2_PLACEMENT_3D('',#549,#456,#457);
#370=AXIS2_PLACEMENT_3D('',#551,#458,#459);
#371=AXIS2_PLACEMENT_3D('',#552,#460,#461);
#372=AXIS2_PLACEMENT_3D('',#554,#462,#463);
#373=AXIS2_PLACEMENT_3D('',#555,#464,#465);
#374=AXIS2_PLACEMENT_3D('',#557,#466,#467);
#375=AXIS2_PLACEMENT_3D('',#558,#468,#469);
#376=AXIS2_PLACEMENT_3D('',#560,#470,#471);
#377=AXIS2_PLACEMENT_3D('',#561,#472,#473);
#378=AXIS2_PLACEMENT_3D('',#563,#474,#475);
#379=AXIS2_PLACEMENT_3D('',#564,#476,#477);
#380=AXIS2_PLACEMENT_3D('',#565,#478,#479);
#381=AXIS2_PLACEMENT_3D('',#567,#480,#481);
#382=AXIS2_PLACEMENT_3D('',#568,#482,#483);
#383=AXIS2_PLACEMENT_3D('',#569,#484,#485);
#384=AXIS2_PLACEMENT_3D('',#570,#486,#487);
#385=AXIS2_PLACEMENT_3D('',#571,#488,#489);
#386=AXIS2_PLACEMENT_3D('',#572,#490,#491);
#387=AXIS2_PLACEMENT_3D('',#573,#492,#493);
#388=AXIS2_PLACEMENT_3D('',#574,#494,#495);
#389=AXIS2_PLACEMENT_3D('',#575,#496,#497);
#390=AXIS2_PLACEMENT_3D('',#576,#498,#499);
#391=AXIS2_PLACEMENT_3D('',#577,#500,#501);
#392=DIRECTION('',(0.,0.,1.));
#393=DIRECTION('',(1.,0.,0.));
#394=DIRECTION('',(-6.12323399573677E-17,-1.,0.));
#395=DIRECTION('',(1.,-6.12323399573677E-17,0.));
#396=DIRECTION('',(6.12323399573677E-17,1.,0.));
#397=DIRECTION('',(-1.,6.12323399573677E-17,0.));
#398=DIRECTION('',(6.12323399573677E-17,1.,0.));
#399=DIRECTION('',(-1.,6.12323399573677E-17,0.));
#400=DIRECTION('',(6.12323399573677E-17,1.,0.));
#401=DIRECTION('',(-1.,6.12323399573677E-17,0.));
#402=DIRECTION('',(6.12323399573677E-17,1.,0.));
#403=DIRECTION('',(-1.,6.12323399573677E-17,0.));
#404=DIRECTION('',(6.12323399573677E-17,1.,0.));
#405=DIRECTION('',(-1.,6.12323399573677E-17,0.));
#406=DIRECTION('',(6.12323399573677E-17,1.,0.));
#407=DIRECTION('',(-1.,6.12323399573677E-17,0.));
#408=DIRECTION('',(6.12323399573677E-17,1.,0.));
#409=DIRECTION('',(-1.,6.12323399573677E-17,0.));
#410=DIRECTION('',(6.12323399573677E-17,1.,0.));
#411=DIRECTION('',(-1.,6.12323399573677E-17,0.));
#412=DIRECTION('',(6.12323399573677E-17,1.,0.));
#413=DIRECTION('',(-1.,6.12323399573677E-17,0.));
#414=DIRECTION('',(6.12323399573677E-17,1.,0.));
#415=DIRECTION('',(-1.,6.12323399573677E-17,0.));
#416=DIRECTION('',(6.12323399573677E-17,1.,0.));
#417=DIRECTION('',(-1.,6.12323399573677E-17,0.));
#418=DIRECTION('',(6.12323399573677E-17,1.,0.));
#419=DIRECTION('',(-1.,6.12323399573677E-17,0.));
#420=DIRECTION('',(6.12323399573677E-17,1.,0.));
#421=DIRECTION('',(-1.,6.12323399573677E-17,0.));
#422=DIRECTION('',(6.12323399573677E-17,1.,0.));
#423=DIRECTION('',(-1.,6.12323399573677E-17,0.));
#424=DIRECTION('',(6.12323399573677E-17,1.,0.));
#425=DIRECTION('',(-1.,6.12323399573677E-17,0.));
#426=DIRECTION('',(6.12323399573677E-17,1.,0.));
#427=DIRECTION('',(-1.,6.12323399573677E-17,0.));
#428=DIRECTION('',(6.12323399573677E-17,1.,0.));
#429=DIRECTION('',(-1.,6.12323399573677E-17,0.));
#430=DIRECTION('',(6.12323399573677E-17,1.,0.));
#431=DIRECTION('',(-1.,6.12323399573677E-17,0.));
#432=DIRECTION('',(6.12323399573677E-17,1.,0.));
#433=DIRECTION('',(-1.,6.12323399573677E-17,0.));
#434=DIRECTION('',(0.,0.,1.));
#435=DIRECTION('',(1.,0.,0.));
#436=DIRECTION('',(-1.,0.,0.));
#437=DIRECTION('',(0.,0.,1.));
#438=DIRECTION('',(1.,0.,0.));
#439=DIRECTION('',(0.,0.,-1.));
#440=DIRECTION('',(1.,0.,0.));
#441=DIRECTION('',(0.,0.,-1.));
#442=DIRECTION('',(1.,0.,0.));
#443=DIRECTION('',(0.,0.,-1.));
#444=DIRECTION('',(1.,0.,0.));
#445=DIRECTION('',(0.,0.,-1.));
#446=DIRECTION('',(-1.,0.,0.));
#447=DIRECTION('',(0.,0.,1.));
#448=DIRECTION('',(1.,0.,0.));
#449=DIRECTION('',(0.,0.,-1.));
#450=DIRECTION('',(1.,0.,0.));
#451=DIRECTION('',(0.,0.,-1.));
#452=DIRECTION('',(1.,0.,0.));
#453=DIRECTION('',(0.,0.,-1.));
#454=DIRECTION('',(1.,0.,0.));
#455=DIRECTION('',(0.,0.,-1.));
#456=DIRECTION('',(1.,0.,0.));
#457=DIRECTION('',(0.,0.,-1.));
#458=DIRECTION('',(1.,0.,0.));
#459=DIRECTION('',(0.,0.,-1.));
#460=DIRECTION('',(1.,0.,0.));
#461=DIRECTION('',(0.,0.,-1.));
#462=DIRECTION('',(1.,0.,0.));
#463=DIRECTION('',(0.,0.,-1.));
#464=DIRECTION('',(1.,0.,0.));
#465=DIRECTION('',(0.,0.,-1.));
#466=DIRECTION('',(1.,0.,0.));
#467=DIRECTION('',(0.,0.,-1.));
#468=DIRECTION('',(1.,0.,0.));
#469=DIRECTION('',(0.,0.,-1.));
#470=DIRECTION('',(1.,0.,0.));
#471=DIRECTION('',(0.,0.,-1.));
#472=DIRECTION('',(1.,0.,0.));
#473=DIRECTION('',(0.,0.,-1.));
#474=DIRECTION('',(1.,0.,0.));
#475=DIRECTION('',(0.,0.,-1.));
#476=DIRECTION('',(0.,0.,1.));
#477=DIRECTION('',(0.,1.,0.));
#478=DIRECTION('',(1.,0.,0.));
#479=DIRECTION('',(0.,-1.,0.));
#480=DIRECTION('',(0.,0.,1.));
#481=DIRECTION('',(0.,-1.,0.));
#482=DIRECTION('',(0.,0.,1.));
#483=DIRECTION('',(0.,-1.,0.));
#484=DIRECTION('',(0.,0.,1.));
#485=DIRECTION('',(0.,-1.,0.));
#486=DIRECTION('',(0.,0.,1.));
#487=DIRECTION('',(0.,-1.,0.));
#488=DIRECTION('',(0.,0.,1.));
#489=DIRECTION('',(0.,-1.,0.));
#490=DIRECTION('',(0.,0.,1.));
#491=DIRECTION('',(0.,-1.,0.));
#492=DIRECTION('',(0.,0.,1.));
#493=DIRECTION('',(0.,-1.,0.));
#494=DIRECTION('',(0.,0.,1.));
#495=DIRECTION('',(0.,-1.,0.));
#496=DIRECTION('',(0.,0.,1.));
#497=DIRECTION('',(0.,-1.,0.));
#498=DIRECTION('',(0.,0.,1.));
#499=DIRECTION('',(0.,-1.,0.));
#500=DIRECTION('',(0.,0.,1.));
#501=DIRECTION('',(0.,-1.,0.));
#502=CARTESIAN_POINT('',(0.,0.,0.));
#503=CARTESIAN_POINT('',(-12.7,9.39576923614088E-16,0.));
#504=CARTESIAN_POINT('',(0.,0.,0.));
#505=CARTESIAN_POINT('',(-6.8,4.163799117101E-16,0.));
#506=CARTESIAN_POINT('',(2.40741243048404E-32,4.33680868994202E-16,0.));
#507=CARTESIAN_POINT('',(-12.7,1.21133158645277E-15,0.));
#508=CARTESIAN_POINT('',(0.,0.299999999999999,0.));
#509=CARTESIAN_POINT('',(1.83697019872103E-17,0.3,0.));
#510=CARTESIAN_POINT('',(-6.5,0.3,0.));
#511=CARTESIAN_POINT('',(1.53080849893419E-16,2.5,0.));
#512=CARTESIAN_POINT('',(1.34711147906209E-16,2.2,0.));
#513=CARTESIAN_POINT('',(-6.5,2.2,0.));
#514=CARTESIAN_POINT('',(0.,2.2,0.));
#515=CARTESIAN_POINT('',(1.53080849893419E-16,2.5,0.));
#516=CARTESIAN_POINT('',(-6.8,2.5,0.));
#517=CARTESIAN_POINT('',(-6.8,2.5,0.));
#518=CARTESIAN_POINT('',(1.53080849893419E-16,2.5,0.));
#519=CARTESIAN_POINT('',(-8.71922359359558,2.5,0.));
#520=CARTESIAN_POINT('',(0.,4.50000000000001,0.));
#521=CARTESIAN_POINT('',(1.53080849893419E-16,2.5,0.));
#522=CARTESIAN_POINT('',(-10.7807764064044,2.5,0.));
#523=CARTESIAN_POINT('',(-10.7807764064044,2.5,0.));
#524=CARTESIAN_POINT('',(1.53080849893419E-16,2.5,0.));
#525=CARTESIAN_POINT('',(-12.7,2.5,0.));
#526=CARTESIAN_POINT('',(0.,2.2,0.));
#527=CARTESIAN_POINT('',(1.34711147906209E-16,2.2,0.));
#528=CARTESIAN_POINT('',(-13.,2.2,0.));
#529=CARTESIAN_POINT('',(1.53080849893419E-16,2.5,0.));
#530=CARTESIAN_POINT('',(1.83697019872103E-17,0.3,0.));
#531=CARTESIAN_POINT('',(-13.,0.300000000000001,0.));
#532=CARTESIAN_POINT('',(0.,0.300000000000002,0.));
#533=CARTESIAN_POINT('',(0.,0.,0.));
#534=CARTESIAN_POINT('',(-5.6920614055489E-16,12.7,0.));
#535=CARTESIAN_POINT('',(-4.33680868994202E-16,0.,0.));
#536=CARTESIAN_POINT('',(-4.33680868994202E-16,0.,-10.7807764064044));
#537=CARTESIAN_POINT('',(-8.67361737988404E-16,0.,0.));
#538=CARTESIAN_POINT('',(-8.67361737988404E-16,0.,-12.7));
#539=CARTESIAN_POINT('',(-2.,0.,0.));
#540=CARTESIAN_POINT('',(-4.33680868994202E-16,0.,0.));
#541=CARTESIAN_POINT('',(-4.33680868994202E-16,0.,-8.71922359359558));
#542=CARTESIAN_POINT('',(-2.16840434497101E-16,8.71922359359558,0.));
#543=CARTESIAN_POINT('',(0.,0.,0.));
#544=CARTESIAN_POINT('',(0.,0.,-6.3));
#545=CARTESIAN_POINT('',(0.3,0.,0.));
#546=CARTESIAN_POINT('',(0.3,0.,0.));
#547=CARTESIAN_POINT('',(0.3,0.,-6.));
#548=CARTESIAN_POINT('',(2.5,0.,0.));
#549=CARTESIAN_POINT('',(2.2,0.,0.));
#550=CARTESIAN_POINT('',(2.2,0.,-6.));
#551=CARTESIAN_POINT('',(2.2,0.,0.));
#552=CARTESIAN_POINT('',(2.5,0.,0.));
#553=CARTESIAN_POINT('',(2.5,0.,-6.3));
#554=CARTESIAN_POINT('',(2.5,6.3,0.));
#555=CARTESIAN_POINT('',(2.5,0.,0.));
#556=CARTESIAN_POINT('',(2.5,0.,-12.7));
#557=CARTESIAN_POINT('',(2.2,0.,0.));
#558=CARTESIAN_POINT('',(2.2,0.,0.));
#559=CARTESIAN_POINT('',(2.2,0.,-13.));
#560=CARTESIAN_POINT('',(2.5,0.,0.));
#561=CARTESIAN_POINT('',(0.3,0.,0.));
#562=CARTESIAN_POINT('',(0.3,0.,-13.));
#563=CARTESIAN_POINT('',(0.300000000000003,0.,0.));
#564=CARTESIAN_POINT('',(0.,6.5,0.));
#565=CARTESIAN_POINT('',(0.,0.,0.));
#566=CARTESIAN_POINT('',(-2.25,-1.37772764904077E-16,0.));
#567=CARTESIAN_POINT('',(-9.75,4.5,0.));
#568=CARTESIAN_POINT('',(-8.20222194510402,4.5,5.27124797019208));
#569=CARTESIAN_POINT('',(-4.05029637676839,4.5,8.86891195470655));
#570=CARTESIAN_POINT('',(1.38756967316453,4.5,9.65075905833909));
#571=CARTESIAN_POINT('',(6.38489215596653,4.5,7.36855834995402));
#572=CARTESIAN_POINT('',(9.35505649274135,4.5,2.74689242920394));
#573=CARTESIAN_POINT('',(9.35505649274135,4.5,-2.74689242920394));
#574=CARTESIAN_POINT('',(6.38489215596653,4.5,-7.36855834995402));
#575=CARTESIAN_POINT('',(1.38756967316453,4.5,-9.65075905833909));
#576=CARTESIAN_POINT('',(-4.05029637676839,4.5,-8.86891195470655));
#577=CARTESIAN_POINT('',(-8.20222194510401,4.5,-5.27124797019208));
#578=MECHANICAL_DESIGN_GEOMETRIC_PRESENTATION_REPRESENTATION('',(#304,#305,
#306),#579);
#579=(
GEOMETRIC_REPRESENTATION_CONTEXT(3)
GLOBAL_UNCERTAINTY_ASSIGNED_CONTEXT((#583))
GLOBAL_UNIT_ASSIGNED_CONTEXT((#589,#588,#587))
REPRESENTATION_CONTEXT('NSK_51101','TOP_LEVEL_ASSEMBLY_PART')
);
#580=(
GEOMETRIC_REPRESENTATION_CONTEXT(3)
GLOBAL_UNCERTAINTY_ASSIGNED_CONTEXT((#584))
GLOBAL_UNIT_ASSIGNED_CONTEXT((#589,#588,#587))
REPRESENTATION_CONTEXT('51101 Housing washer','COMPONENT_PART')
);
#581=(
GEOMETRIC_REPRESENTATION_CONTEXT(3)
GLOBAL_UNCERTAINTY_ASSIGNED_CONTEXT((#585))
GLOBAL_UNIT_ASSIGNED_CONTEXT((#589,#588,#587))
REPRESENTATION_CONTEXT('51101 Shaft washer','COMPONENT_PART')
);
#582=(
GEOMETRIC_REPRESENTATION_CONTEXT(3)
GLOBAL_UNCERTAINTY_ASSIGNED_CONTEXT((#586))
GLOBAL_UNIT_ASSIGNED_CONTEXT((#589,#588,#587))
REPRESENTATION_CONTEXT('51101 Ball','COMPONENT_PART')
);
#583=UNCERTAINTY_MEASURE_WITH_UNIT(LENGTH_MEASURE(1.E-5),#589,
'DISTANCE_ACCURACY_VALUE','Maximum Tolerance applied to model');
#584=UNCERTAINTY_MEASURE_WITH_UNIT(LENGTH_MEASURE(1.E-5),#589,
'DISTANCE_ACCURACY_VALUE','Maximum Tolerance applied to model');
#585=UNCERTAINTY_MEASURE_WITH_UNIT(LENGTH_MEASURE(1.E-5),#589,
'DISTANCE_ACCURACY_VALUE','Maximum Tolerance applied to model');
#586=UNCERTAINTY_MEASURE_WITH_UNIT(LENGTH_MEASURE(1.E-5),#589,
'DISTANCE_ACCURACY_VALUE','Maximum Tolerance applied to model');
#587=(
NAMED_UNIT(*)
SI_UNIT($,.STERADIAN.)
SOLID_ANGLE_UNIT()
);
#588=(
NAMED_UNIT(*)
PLANE_ANGLE_UNIT()
SI_UNIT($,.RADIAN.)
);
#589=(
LENGTH_UNIT()
NAMED_UNIT(*)
SI_UNIT(.MILLI.,.METRE.)
);
#590=PRODUCT_DEFINITION_SHAPE('','',#607);
#591=PRODUCT_DEFINITION_SHAPE('','',#608);
#592=PRODUCT_DEFINITION_SHAPE(' ','NAUO PRDDFN',#33);
#593=PRODUCT_DEFINITION_SHAPE('','',#609);
#594=PRODUCT_DEFINITION_SHAPE(' ','NAUO PRDDFN',#34);
#595=PRODUCT_DEFINITION_SHAPE('','',#610);
#596=PRODUCT_DEFINITION_SHAPE(' ','NAUO PRDDFN',#35);
#597=PRODUCT_DEFINITION_SHAPE(' ','NAUO PRDDFN',#36);
#598=PRODUCT_DEFINITION_SHAPE(' ','NAUO PRDDFN',#37);
#599=PRODUCT_DEFINITION_SHAPE(' ','NAUO PRDDFN',#38);
#600=PRODUCT_DEFINITION_SHAPE(' ','NAUO PRDDFN',#39);
#601=PRODUCT_DEFINITION_SHAPE(' ','NAUO PRDDFN',#40);
#602=PRODUCT_DEFINITION_SHAPE(' ','NAUO PRDDFN',#41);
#603=PRODUCT_DEFINITION_SHAPE(' ','NAUO PRDDFN',#42);
#604=PRODUCT_DEFINITION_SHAPE(' ','NAUO PRDDFN',#43);
#605=PRODUCT_DEFINITION_SHAPE(' ','NAUO PRDDFN',#44);
#606=PRODUCT_DEFINITION_SHAPE(' ','NAUO PRDDFN',#45);
#607=PRODUCT_DEFINITION('','',#615,#611);
#608=PRODUCT_DEFINITION('','',#616,#612);
#609=PRODUCT_DEFINITION('','',#617,#613);
#610=PRODUCT_DEFINITION('','',#618,#614);
#611=PRODUCT_DEFINITION_CONTEXT('',#636,'design');
#612=PRODUCT_DEFINITION_CONTEXT('',#636,'design');
#613=PRODUCT_DEFINITION_CONTEXT('',#636,'design');
#614=PRODUCT_DEFINITION_CONTEXT('',#636,'design');
#615=PRODUCT_DEFINITION_FORMATION_WITH_SPECIFIED_SOURCE('','',#623,
 .NOT_KNOWN.);
#616=PRODUCT_DEFINITION_FORMATION_WITH_SPECIFIED_SOURCE('','',#624,
 .NOT_KNOWN.);
#617=PRODUCT_DEFINITION_FORMATION_WITH_SPECIFIED_SOURCE('','',#625,
 .NOT_KNOWN.);
#618=PRODUCT_DEFINITION_FORMATION_WITH_SPECIFIED_SOURCE('','',#626,
 .NOT_KNOWN.);
#619=PRODUCT_RELATED_PRODUCT_CATEGORY('','',(#623));
#620=PRODUCT_RELATED_PRODUCT_CATEGORY('','',(#624));
#621=PRODUCT_RELATED_PRODUCT_CATEGORY('','',(#625));
#622=PRODUCT_RELATED_PRODUCT_CATEGORY('','',(#626));
#623=PRODUCT('NSK_51101','NSK_51101','NSK_51101',(#631));
#624=PRODUCT('51101 Housing washer','51101 Housing washer',
'51101 Housing washer',(#632));
#625=PRODUCT('51101 Shaft washer','51101 Shaft washer',
'51101 Shaft washer',(#633));
#626=PRODUCT('51101 Ball','51101 Ball','51101 Ball',(#634));
#627=PRODUCT_CATEGORY('','');
#628=PRODUCT_CATEGORY('','');
#629=PRODUCT_CATEGORY('','');
#630=PRODUCT_CATEGORY('','');
#631=PRODUCT_CONTEXT('',#636,'mechanical');
#632=PRODUCT_CONTEXT('',#636,'mechanical');
#633=PRODUCT_CONTEXT('',#636,'mechanical');
#634=PRODUCT_CONTEXT('',#636,'mechanical');
#635=APPLICATION_PROTOCOL_DEFINITION('international standard',
'automotive_design',2010,#636);
#636=APPLICATION_CONTEXT(
'core data for automotive mechanical design processes');
ENDSEC;
END-ISO-10303-21;
