ISO-10303-21;
HEADER;
/* Generated by software containing ST-Developer
 * from STEP Tools, Inc. (www.steptools.com) 
 */
/* OPTION: using custom renumber hook */

FILE_DESCRIPTION(
/* description */ ('STEP AP214'),
/* implementation_level */ '2;1');

FILE_NAME(
/* name */ 'NSK_51100',
/* time_stamp */ '2025-12-17T06:08:08+01:00',
/* author */ ('License CC BY-ND 4.0'),
/* organization */ ('CADENAS'),
/* preprocessor_version */ 'ST-DEVELOPER v20',
/* originating_system */ 'PARTsolutions',
/* authorisation */ '  ');

FILE_SCHEMA (('AUTOMOTIVE_DESIGN {1 0 10303 214 3 1 1}'));
ENDSEC;

DATA;
#10=PROPERTY_DEFINITION_REPRESENTATION(#14,#12);
#11=PROPERTY_DEFINITION_REPRESENTATION(#15,#13);
#12=REPRESENTATION('',(#16),#571);
#13=REPRESENTATION('',(#17),#571);
#14=PROPERTY_DEFINITION('pmi validation property','',#582);
#15=PROPERTY_DEFINITION('pmi validation property','',#582);
#16=VALUE_REPRESENTATION_ITEM('number of annotations',COUNT_MEASURE(0.));
#17=VALUE_REPRESENTATION_ITEM('number of views',COUNT_MEASURE(0.));
#18=VERTEX_LOOP('',#168);
#19=SPHERICAL_SURFACE('',#376,2.25);
#20=CONTEXT_DEPENDENT_SHAPE_REPRESENTATION(#44,#584);
#21=CONTEXT_DEPENDENT_SHAPE_REPRESENTATION(#45,#586);
#22=CONTEXT_DEPENDENT_SHAPE_REPRESENTATION(#46,#588);
#23=CONTEXT_DEPENDENT_SHAPE_REPRESENTATION(#47,#589);
#24=CONTEXT_DEPENDENT_SHAPE_REPRESENTATION(#48,#590);
#25=CONTEXT_DEPENDENT_SHAPE_REPRESENTATION(#49,#591);
#26=CONTEXT_DEPENDENT_SHAPE_REPRESENTATION(#50,#592);
#27=CONTEXT_DEPENDENT_SHAPE_REPRESENTATION(#51,#593);
#28=CONTEXT_DEPENDENT_SHAPE_REPRESENTATION(#52,#594);
#29=CONTEXT_DEPENDENT_SHAPE_REPRESENTATION(#53,#595);
#30=CONTEXT_DEPENDENT_SHAPE_REPRESENTATION(#54,#596);
#31=CONTEXT_DEPENDENT_SHAPE_REPRESENTATION(#55,#597);
#32=NEXT_ASSEMBLY_USAGE_OCCURRENCE('NAUO1','51100 Housing washer',
'51100 Housing washer',#598,#599,'');
#33=NEXT_ASSEMBLY_USAGE_OCCURRENCE('NAUO2','51100 Shaft washer',
'51100 Shaft washer',#598,#600,'');
#34=NEXT_ASSEMBLY_USAGE_OCCURRENCE('NAUO3','51100 Ball','51100 Ball',#598,
#601,'');
#35=NEXT_ASSEMBLY_USAGE_OCCURRENCE('NAUO4','51100 Ball','51100 Ball',#598,
#601,'');
#36=NEXT_ASSEMBLY_USAGE_OCCURRENCE('NAUO5','51100 Ball','51100 Ball',#598,
#601,'');
#37=NEXT_ASSEMBLY_USAGE_OCCURRENCE('NAUO6','51100 Ball','51100 Ball',#598,
#601,'');
#38=NEXT_ASSEMBLY_USAGE_OCCURRENCE('NAUO7','51100 Ball','51100 Ball',#598,
#601,'');
#39=NEXT_ASSEMBLY_USAGE_OCCURRENCE('NAUO8','51100 Ball','51100 Ball',#598,
#601,'');
#40=NEXT_ASSEMBLY_USAGE_OCCURRENCE('NAUO9','51100 Ball','51100 Ball',#598,
#601,'');
#41=NEXT_ASSEMBLY_USAGE_OCCURRENCE('NAUO10','51100 Ball','51100 Ball',#598,
#601,'');
#42=NEXT_ASSEMBLY_USAGE_OCCURRENCE('NAUO11','51100 Ball','51100 Ball',#598,
#601,'');
#43=NEXT_ASSEMBLY_USAGE_OCCURRENCE('NAUO12','51100 Ball','51100 Ball',#598,
#601,'');
#44=(
REPRESENTATION_RELATIONSHIP(' ',' ',#330,#329)
REPRESENTATION_RELATIONSHIP_WITH_TRANSFORMATION(#56)
SHAPE_REPRESENTATION_RELATIONSHIP()
);
#45=(
REPRESENTATION_RELATIONSHIP(' ',' ',#331,#329)
REPRESENTATION_RELATIONSHIP_WITH_TRANSFORMATION(#57)
SHAPE_REPRESENTATION_RELATIONSHIP()
);
#46=(
REPRESENTATION_RELATIONSHIP(' ',' ',#332,#329)
REPRESENTATION_RELATIONSHIP_WITH_TRANSFORMATION(#58)
SHAPE_REPRESENTATION_RELATIONSHIP()
);
#47=(
REPRESENTATION_RELATIONSHIP(' ',' ',#332,#329)
REPRESENTATION_RELATIONSHIP_WITH_TRANSFORMATION(#59)
SHAPE_REPRESENTATION_RELATIONSHIP()
);
#48=(
REPRESENTATION_RELATIONSHIP(' ',' ',#332,#329)
REPRESENTATION_RELATIONSHIP_WITH_TRANSFORMATION(#60)
SHAPE_REPRESENTATION_RELATIONSHIP()
);
#49=(
REPRESENTATION_RELATIONSHIP(' ',' ',#332,#329)
REPRESENTATION_RELATIONSHIP_WITH_TRANSFORMATION(#61)
SHAPE_REPRESENTATION_RELATIONSHIP()
);
#50=(
REPRESENTATION_RELATIONSHIP(' ',' ',#332,#329)
REPRESENTATION_RELATIONSHIP_WITH_TRANSFORMATION(#62)
SHAPE_REPRESENTATION_RELATIONSHIP()
);
#51=(
REPRESENTATION_RELATIONSHIP(' ',' ',#332,#329)
REPRESENTATION_RELATIONSHIP_WITH_TRANSFORMATION(#63)
SHAPE_REPRESENTATION_RELATIONSHIP()
);
#52=(
REPRESENTATION_RELATIONSHIP(' ',' ',#332,#329)
REPRESENTATION_RELATIONSHIP_WITH_TRANSFORMATION(#64)
SHAPE_REPRESENTATION_RELATIONSHIP()
);
#53=(
REPRESENTATION_RELATIONSHIP(' ',' ',#332,#329)
REPRESENTATION_RELATIONSHIP_WITH_TRANSFORMATION(#65)
SHAPE_REPRESENTATION_RELATIONSHIP()
);
#54=(
REPRESENTATION_RELATIONSHIP(' ',' ',#332,#329)
REPRESENTATION_RELATIONSHIP_WITH_TRANSFORMATION(#66)
SHAPE_REPRESENTATION_RELATIONSHIP()
);
#55=(
REPRESENTATION_RELATIONSHIP(' ',' ',#332,#329)
REPRESENTATION_RELATIONSHIP_WITH_TRANSFORMATION(#67)
SHAPE_REPRESENTATION_RELATIONSHIP()
);
#56=ITEM_DEFINED_TRANSFORMATION(' ',' ',#333,#354);
#57=ITEM_DEFINED_TRANSFORMATION(' ',' ',#333,#375);
#58=ITEM_DEFINED_TRANSFORMATION(' ',' ',#333,#377);
#59=ITEM_DEFINED_TRANSFORMATION(' ',' ',#333,#378);
#60=ITEM_DEFINED_TRANSFORMATION(' ',' ',#333,#379);
#61=ITEM_DEFINED_TRANSFORMATION(' ',' ',#333,#380);
#62=ITEM_DEFINED_TRANSFORMATION(' ',' ',#333,#381);
#63=ITEM_DEFINED_TRANSFORMATION(' ',' ',#333,#382);
#64=ITEM_DEFINED_TRANSFORMATION(' ',' ',#333,#383);
#65=ITEM_DEFINED_TRANSFORMATION(' ',' ',#333,#384);
#66=ITEM_DEFINED_TRANSFORMATION(' ',' ',#333,#385);
#67=ITEM_DEFINED_TRANSFORMATION(' ',' ',#333,#386);
#68=SHAPE_REPRESENTATION_RELATIONSHIP('','',#330,#71);
#69=SHAPE_REPRESENTATION_RELATIONSHIP('','',#331,#72);
#70=SHAPE_REPRESENTATION_RELATIONSHIP('','',#332,#73);
#71=ADVANCED_BREP_SHAPE_REPRESENTATION('',(#322),#572);
#72=ADVANCED_BREP_SHAPE_REPRESENTATION('',(#323),#573);
#73=ADVANCED_BREP_SHAPE_REPRESENTATION('',(#324),#574);
#74=CYLINDRICAL_SURFACE('',#339,5.5);
#75=CYLINDRICAL_SURFACE('',#351,12.);
#76=CYLINDRICAL_SURFACE('',#364,5.);
#77=CYLINDRICAL_SURFACE('',#372,12.);
#78=TOROIDAL_SURFACE('',#337,5.8,0.3);
#79=TOROIDAL_SURFACE('',#341,5.8,0.300000000000001);
#80=TOROIDAL_SURFACE('',#345,8.75,2.25);
#81=TOROIDAL_SURFACE('',#349,11.7,0.300000000000002);
#82=TOROIDAL_SURFACE('',#353,11.7,0.300000000000002);
#83=TOROIDAL_SURFACE('',#358,8.75,2.25);
#84=TOROIDAL_SURFACE('',#362,5.3,0.300000000000001);
#85=TOROIDAL_SURFACE('',#366,5.3,0.299999999999999);
#86=TOROIDAL_SURFACE('',#370,11.7,0.300000000000002);
#87=TOROIDAL_SURFACE('',#374,11.7,0.300000000000002);
#88=ORIENTED_EDGE('',*,*,#128,.T.);
#89=ORIENTED_EDGE('',*,*,#129,.F.);
#90=ORIENTED_EDGE('',*,*,#130,.T.);
#91=ORIENTED_EDGE('',*,*,#128,.F.);
#92=ORIENTED_EDGE('',*,*,#131,.T.);
#93=ORIENTED_EDGE('',*,*,#130,.F.);
#94=ORIENTED_EDGE('',*,*,#132,.T.);
#95=ORIENTED_EDGE('',*,*,#131,.F.);
#96=ORIENTED_EDGE('',*,*,#133,.T.);
#97=ORIENTED_EDGE('',*,*,#132,.F.);
#98=ORIENTED_EDGE('',*,*,#133,.F.);
#99=ORIENTED_EDGE('',*,*,#134,.T.);
#100=ORIENTED_EDGE('',*,*,#135,.T.);
#101=ORIENTED_EDGE('',*,*,#134,.F.);
#102=ORIENTED_EDGE('',*,*,#136,.T.);
#103=ORIENTED_EDGE('',*,*,#135,.F.);
#104=ORIENTED_EDGE('',*,*,#137,.T.);
#105=ORIENTED_EDGE('',*,*,#136,.F.);
#106=ORIENTED_EDGE('',*,*,#129,.T.);
#107=ORIENTED_EDGE('',*,*,#137,.F.);
#108=ORIENTED_EDGE('',*,*,#138,.T.);
#109=ORIENTED_EDGE('',*,*,#139,.F.);
#110=ORIENTED_EDGE('',*,*,#138,.F.);
#111=ORIENTED_EDGE('',*,*,#140,.T.);
#112=ORIENTED_EDGE('',*,*,#141,.T.);
#113=ORIENTED_EDGE('',*,*,#140,.F.);
#114=ORIENTED_EDGE('',*,*,#142,.T.);
#115=ORIENTED_EDGE('',*,*,#141,.F.);
#116=ORIENTED_EDGE('',*,*,#143,.T.);
#117=ORIENTED_EDGE('',*,*,#142,.F.);
#118=ORIENTED_EDGE('',*,*,#144,.T.);
#119=ORIENTED_EDGE('',*,*,#143,.F.);
#120=ORIENTED_EDGE('',*,*,#145,.T.);
#121=ORIENTED_EDGE('',*,*,#144,.F.);
#122=ORIENTED_EDGE('',*,*,#146,.T.);
#123=ORIENTED_EDGE('',*,*,#145,.F.);
#124=ORIENTED_EDGE('',*,*,#147,.T.);
#125=ORIENTED_EDGE('',*,*,#146,.F.);
#126=ORIENTED_EDGE('',*,*,#139,.T.);
#127=ORIENTED_EDGE('',*,*,#147,.F.);
#128=EDGE_CURVE('',#148,#148,#169,.T.);
#129=EDGE_CURVE('',#149,#149,#170,.T.);
#130=EDGE_CURVE('',#150,#150,#171,.T.);
#131=EDGE_CURVE('',#151,#151,#172,.T.);
#132=EDGE_CURVE('',#152,#152,#173,.T.);
#133=EDGE_CURVE('',#153,#153,#174,.T.);
#134=EDGE_CURVE('',#154,#154,#175,.T.);
#135=EDGE_CURVE('',#155,#155,#176,.T.);
#136=EDGE_CURVE('',#156,#156,#177,.T.);
#137=EDGE_CURVE('',#157,#157,#178,.T.);
#138=EDGE_CURVE('',#158,#158,#179,.T.);
#139=EDGE_CURVE('',#159,#159,#180,.T.);
#140=EDGE_CURVE('',#160,#160,#181,.T.);
#141=EDGE_CURVE('',#161,#161,#182,.T.);
#142=EDGE_CURVE('',#162,#162,#183,.T.);
#143=EDGE_CURVE('',#163,#163,#184,.T.);
#144=EDGE_CURVE('',#164,#164,#185,.T.);
#145=EDGE_CURVE('',#165,#165,#186,.T.);
#146=EDGE_CURVE('',#166,#166,#187,.T.);
#147=EDGE_CURVE('',#167,#167,#188,.T.);
#148=VERTEX_POINT('',#498);
#149=VERTEX_POINT('',#500);
#150=VERTEX_POINT('',#503);
#151=VERTEX_POINT('',#506);
#152=VERTEX_POINT('',#509);
#153=VERTEX_POINT('',#512);
#154=VERTEX_POINT('',#515);
#155=VERTEX_POINT('',#518);
#156=VERTEX_POINT('',#521);
#157=VERTEX_POINT('',#524);
#158=VERTEX_POINT('',#529);
#159=VERTEX_POINT('',#531);
#160=VERTEX_POINT('',#534);
#161=VERTEX_POINT('',#537);
#162=VERTEX_POINT('',#540);
#163=VERTEX_POINT('',#543);
#164=VERTEX_POINT('',#546);
#165=VERTEX_POINT('',#549);
#166=VERTEX_POINT('',#552);
#167=VERTEX_POINT('',#555);
#168=VERTEX_POINT('',#559);
#169=CIRCLE('',#335,5.8);
#170=CIRCLE('',#336,11.7);
#171=CIRCLE('',#338,5.5);
#172=CIRCLE('',#340,5.5);
#173=CIRCLE('',#342,5.8);
#174=CIRCLE('',#344,7.71922359359558);
#175=CIRCLE('',#346,9.78077640640442);
#176=CIRCLE('',#348,11.7);
#177=CIRCLE('',#350,12.);
#178=CIRCLE('',#352,12.);
#179=CIRCLE('',#356,9.78077640640442);
#180=CIRCLE('',#357,11.7);
#181=CIRCLE('',#359,7.71922359359559);
#182=CIRCLE('',#361,5.3);
#183=CIRCLE('',#363,5.);
#184=CIRCLE('',#365,5.);
#185=CIRCLE('',#367,5.3);
#186=CIRCLE('',#369,11.7);
#187=CIRCLE('',#371,12.);
#188=CIRCLE('',#373,12.);
#189=EDGE_LOOP('',(#88));
#190=EDGE_LOOP('',(#89));
#191=EDGE_LOOP('',(#90));
#192=EDGE_LOOP('',(#91));
#193=EDGE_LOOP('',(#92));
#194=EDGE_LOOP('',(#93));
#195=EDGE_LOOP('',(#94));
#196=EDGE_LOOP('',(#95));
#197=EDGE_LOOP('',(#96));
#198=EDGE_LOOP('',(#97));
#199=EDGE_LOOP('',(#98));
#200=EDGE_LOOP('',(#99));
#201=EDGE_LOOP('',(#100));
#202=EDGE_LOOP('',(#101));
#203=EDGE_LOOP('',(#102));
#204=EDGE_LOOP('',(#103));
#205=EDGE_LOOP('',(#104));
#206=EDGE_LOOP('',(#105));
#207=EDGE_LOOP('',(#106));
#208=EDGE_LOOP('',(#107));
#209=EDGE_LOOP('',(#108));
#210=EDGE_LOOP('',(#109));
#211=EDGE_LOOP('',(#110));
#212=EDGE_LOOP('',(#111));
#213=EDGE_LOOP('',(#112));
#214=EDGE_LOOP('',(#113));
#215=EDGE_LOOP('',(#114));
#216=EDGE_LOOP('',(#115));
#217=EDGE_LOOP('',(#116));
#218=EDGE_LOOP('',(#117));
#219=EDGE_LOOP('',(#118));
#220=EDGE_LOOP('',(#119));
#221=EDGE_LOOP('',(#120));
#222=EDGE_LOOP('',(#121));
#223=EDGE_LOOP('',(#122));
#224=EDGE_LOOP('',(#123));
#225=EDGE_LOOP('',(#124));
#226=EDGE_LOOP('',(#125));
#227=EDGE_LOOP('',(#126));
#228=EDGE_LOOP('',(#127));
#229=FACE_BOUND('',#189,.T.);
#230=FACE_BOUND('',#190,.T.);
#231=FACE_BOUND('',#191,.T.);
#232=FACE_BOUND('',#192,.T.);
#233=FACE_BOUND('',#193,.T.);
#234=FACE_BOUND('',#194,.T.);
#235=FACE_BOUND('',#195,.T.);
#236=FACE_BOUND('',#196,.T.);
#237=FACE_BOUND('',#197,.T.);
#238=FACE_BOUND('',#198,.T.);
#239=FACE_BOUND('',#199,.T.);
#240=FACE_BOUND('',#200,.T.);
#241=FACE_BOUND('',#201,.T.);
#242=FACE_BOUND('',#202,.T.);
#243=FACE_BOUND('',#203,.T.);
#244=FACE_BOUND('',#204,.T.);
#245=FACE_BOUND('',#205,.T.);
#246=FACE_BOUND('',#206,.T.);
#247=FACE_BOUND('',#207,.T.);
#248=FACE_BOUND('',#208,.T.);
#249=FACE_BOUND('',#209,.T.);
#250=FACE_BOUND('',#210,.T.);
#251=FACE_BOUND('',#211,.T.);
#252=FACE_BOUND('',#212,.T.);
#253=FACE_BOUND('',#213,.T.);
#254=FACE_BOUND('',#214,.T.);
#255=FACE_BOUND('',#215,.T.);
#256=FACE_BOUND('',#216,.T.);
#257=FACE_BOUND('',#217,.T.);
#258=FACE_BOUND('',#218,.T.);
#259=FACE_BOUND('',#219,.T.);
#260=FACE_BOUND('',#220,.T.);
#261=FACE_BOUND('',#221,.T.);
#262=FACE_BOUND('',#222,.T.);
#263=FACE_BOUND('',#223,.T.);
#264=FACE_BOUND('',#224,.T.);
#265=FACE_BOUND('',#225,.T.);
#266=FACE_BOUND('',#226,.T.);
#267=FACE_BOUND('',#227,.T.);
#268=FACE_BOUND('',#228,.T.);
#269=FACE_BOUND('',#18,.T.);
#270=PLANE('',#334);
#271=PLANE('',#343);
#272=PLANE('',#347);
#273=PLANE('',#355);
#274=PLANE('',#360);
#275=PLANE('',#368);
#276=ADVANCED_FACE('',(#229,#230),#270,.T.);
#277=ADVANCED_FACE('',(#231,#232),#78,.T.);
#278=ADVANCED_FACE('',(#233,#234),#74,.F.);
#279=ADVANCED_FACE('',(#235,#236),#79,.T.);
#280=ADVANCED_FACE('',(#237,#238),#271,.T.);
#281=ADVANCED_FACE('',(#239,#240),#80,.F.);
#282=ADVANCED_FACE('',(#241,#242),#272,.T.);
#283=ADVANCED_FACE('',(#243,#244),#81,.T.);
#284=ADVANCED_FACE('',(#245,#246),#75,.T.);
#285=ADVANCED_FACE('',(#247,#248),#82,.T.);
#286=ADVANCED_FACE('',(#249,#250),#273,.T.);
#287=ADVANCED_FACE('',(#251,#252),#83,.F.);
#288=ADVANCED_FACE('',(#253,#254),#274,.T.);
#289=ADVANCED_FACE('',(#255,#256),#84,.T.);
#290=ADVANCED_FACE('',(#257,#258),#76,.F.);
#291=ADVANCED_FACE('',(#259,#260),#85,.T.);
#292=ADVANCED_FACE('',(#261,#262),#275,.T.);
#293=ADVANCED_FACE('',(#263,#264),#86,.T.);
#294=ADVANCED_FACE('',(#265,#266),#77,.T.);
#295=ADVANCED_FACE('',(#267,#268),#87,.T.);
#296=ADVANCED_FACE('',(#269),#19,.T.);
#297=CLOSED_SHELL('',(#276,#277,#278,#279,#280,#281,#282,#283,#284,#285));
#298=CLOSED_SHELL('',(#286,#287,#288,#289,#290,#291,#292,#293,#294,#295));
#299=CLOSED_SHELL('',(#296));
#300=STYLED_ITEM('',(#303),#322);
#301=STYLED_ITEM('',(#304),#323);
#302=STYLED_ITEM('',(#305),#324);
#303=PRESENTATION_STYLE_ASSIGNMENT((#306));
#304=PRESENTATION_STYLE_ASSIGNMENT((#307));
#305=PRESENTATION_STYLE_ASSIGNMENT((#308));
#306=SURFACE_STYLE_USAGE(.BOTH.,#309);
#307=SURFACE_STYLE_USAGE(.BOTH.,#310);
#308=SURFACE_STYLE_USAGE(.BOTH.,#311);
#309=SURFACE_SIDE_STYLE('',(#312));
#310=SURFACE_SIDE_STYLE('',(#313));
#311=SURFACE_SIDE_STYLE('',(#314));
#312=SURFACE_STYLE_FILL_AREA(#315);
#313=SURFACE_STYLE_FILL_AREA(#316);
#314=SURFACE_STYLE_FILL_AREA(#317);
#315=FILL_AREA_STYLE('',(#318));
#316=FILL_AREA_STYLE('',(#319));
#317=FILL_AREA_STYLE('',(#320));
#318=FILL_AREA_STYLE_COLOUR('',#321);
#319=FILL_AREA_STYLE_COLOUR('',#321);
#320=FILL_AREA_STYLE_COLOUR('',#321);
#321=COLOUR_RGB('',0.689999997615814,0.689999997615814,0.689999997615814);
#322=MANIFOLD_SOLID_BREP('51100 Housing washer',#297);
#323=MANIFOLD_SOLID_BREP('51100 Shaft washer',#298);
#324=MANIFOLD_SOLID_BREP('51100 Ball',#299);
#325=SHAPE_DEFINITION_REPRESENTATION(#582,#329);
#326=SHAPE_DEFINITION_REPRESENTATION(#583,#330);
#327=SHAPE_DEFINITION_REPRESENTATION(#585,#331);
#328=SHAPE_DEFINITION_REPRESENTATION(#587,#332);
#329=SHAPE_REPRESENTATION('NSK_51100',(#333,#354,#375,#377,#378,#379,#380,
#381,#382,#383,#384,#385,#386),#571);
#330=SHAPE_REPRESENTATION('51100 Housing washer',(#333),#572);
#331=SHAPE_REPRESENTATION('51100 Shaft washer',(#333),#573);
#332=SHAPE_REPRESENTATION('51100 Ball',(#333),#574);
#333=AXIS2_PLACEMENT_3D('',#495,#387,#388);
#334=AXIS2_PLACEMENT_3D('',#496,#389,#390);
#335=AXIS2_PLACEMENT_3D('',#497,#391,#392);
#336=AXIS2_PLACEMENT_3D('',#499,#393,#394);
#337=AXIS2_PLACEMENT_3D('',#501,#395,#396);
#338=AXIS2_PLACEMENT_3D('',#502,#397,#398);
#339=AXIS2_PLACEMENT_3D('',#504,#399,#400);
#340=AXIS2_PLACEMENT_3D('',#505,#401,#402);
#341=AXIS2_PLACEMENT_3D('',#507,#403,#404);
#342=AXIS2_PLACEMENT_3D('',#508,#405,#406);
#343=AXIS2_PLACEMENT_3D('',#510,#407,#408);
#344=AXIS2_PLACEMENT_3D('',#511,#409,#410);
#345=AXIS2_PLACEMENT_3D('',#513,#411,#412);
#346=AXIS2_PLACEMENT_3D('',#514,#413,#414);
#347=AXIS2_PLACEMENT_3D('',#516,#415,#416);
#348=AXIS2_PLACEMENT_3D('',#517,#417,#418);
#349=AXIS2_PLACEMENT_3D('',#519,#419,#420);
#350=AXIS2_PLACEMENT_3D('',#520,#421,#422);
#351=AXIS2_PLACEMENT_3D('',#522,#423,#424);
#352=AXIS2_PLACEMENT_3D('',#523,#425,#426);
#353=AXIS2_PLACEMENT_3D('',#525,#427,#428);
#354=AXIS2_PLACEMENT_3D('',#526,#429,#430);
#355=AXIS2_PLACEMENT_3D('',#527,#431,#432);
#356=AXIS2_PLACEMENT_3D('',#528,#433,#434);
#357=AXIS2_PLACEMENT_3D('',#530,#435,#436);
#358=AXIS2_PLACEMENT_3D('',#532,#437,#438);
#359=AXIS2_PLACEMENT_3D('',#533,#439,#440);
#360=AXIS2_PLACEMENT_3D('',#535,#441,#442);
#361=AXIS2_PLACEMENT_3D('',#536,#443,#444);
#362=AXIS2_PLACEMENT_3D('',#538,#445,#446);
#363=AXIS2_PLACEMENT_3D('',#539,#447,#448);
#364=AXIS2_PLACEMENT_3D('',#541,#449,#450);
#365=AXIS2_PLACEMENT_3D('',#542,#451,#452);
#366=AXIS2_PLACEMENT_3D('',#544,#453,#454);
#367=AXIS2_PLACEMENT_3D('',#545,#455,#456);
#368=AXIS2_PLACEMENT_3D('',#547,#457,#458);
#369=AXIS2_PLACEMENT_3D('',#548,#459,#460);
#370=AXIS2_PLACEMENT_3D('',#550,#461,#462);
#371=AXIS2_PLACEMENT_3D('',#551,#463,#464);
#372=AXIS2_PLACEMENT_3D('',#553,#465,#466);
#373=AXIS2_PLACEMENT_3D('',#554,#467,#468);
#374=AXIS2_PLACEMENT_3D('',#556,#469,#470);
#375=AXIS2_PLACEMENT_3D('',#557,#471,#472);
#376=AXIS2_PLACEMENT_3D('',#558,#473,#474);
#377=AXIS2_PLACEMENT_3D('',#560,#475,#476);
#378=AXIS2_PLACEMENT_3D('',#561,#477,#478);
#379=AXIS2_PLACEMENT_3D('',#562,#479,#480);
#380=AXIS2_PLACEMENT_3D('',#563,#481,#482);
#381=AXIS2_PLACEMENT_3D('',#564,#483,#484);
#382=AXIS2_PLACEMENT_3D('',#565,#485,#486);
#383=AXIS2_PLACEMENT_3D('',#566,#487,#488);
#384=AXIS2_PLACEMENT_3D('',#567,#489,#490);
#385=AXIS2_PLACEMENT_3D('',#568,#491,#492);
#386=AXIS2_PLACEMENT_3D('',#569,#493,#494);
#387=DIRECTION('',(0.,0.,1.));
#388=DIRECTION('',(1.,0.,0.));
#389=DIRECTION('',(-6.12323399573677E-17,-1.,0.));
#390=DIRECTION('',(1.,-6.12323399573677E-17,0.));
#391=DIRECTION('',(6.12323399573677E-17,1.,0.));
#392=DIRECTION('',(-1.,6.12323399573677E-17,0.));
#393=DIRECTION('',(6.12323399573677E-17,1.,0.));
#394=DIRECTION('',(-1.,6.12323399573677E-17,0.));
#395=DIRECTION('',(6.12323399573677E-17,1.,0.));
#396=DIRECTION('',(-1.,6.12323399573677E-17,0.));
#397=DIRECTION('',(6.12323399573677E-17,1.,0.));
#398=DIRECTION('',(-1.,6.12323399573677E-17,0.));
#399=DIRECTION('',(6.12323399573677E-17,1.,0.));
#400=DIRECTION('',(-1.,6.12323399573677E-17,0.));
#401=DIRECTION('',(6.12323399573677E-17,1.,0.));
#402=DIRECTION('',(-1.,6.12323399573677E-17,0.));
#403=DIRECTION('',(6.12323399573677E-17,1.,0.));
#404=DIRECTION('',(-1.,6.12323399573677E-17,0.));
#405=DIRECTION('',(6.12323399573677E-17,1.,0.));
#406=DIRECTION('',(-1.,6.12323399573677E-17,0.));
#407=DIRECTION('',(6.12323399573677E-17,1.,0.));
#408=DIRECTION('',(-1.,6.12323399573677E-17,0.));
#409=DIRECTION('',(6.12323399573677E-17,1.,0.));
#410=DIRECTION('',(-1.,6.12323399573677E-17,0.));
#411=DIRECTION('',(6.12323399573677E-17,1.,0.));
#412=DIRECTION('',(-1.,6.12323399573677E-17,0.));
#413=DIRECTION('',(6.12323399573677E-17,1.,0.));
#414=DIRECTION('',(-1.,6.12323399573677E-17,0.));
#415=DIRECTION('',(6.12323399573677E-17,1.,0.));
#416=DIRECTION('',(-1.,6.12323399573677E-17,0.));
#417=DIRECTION('',(6.12323399573677E-17,1.,0.));
#418=DIRECTION('',(-1.,6.12323399573677E-17,0.));
#419=DIRECTION('',(6.12323399573677E-17,1.,0.));
#420=DIRECTION('',(-1.,6.12323399573677E-17,0.));
#421=DIRECTION('',(6.12323399573677E-17,1.,0.));
#422=DIRECTION('',(-1.,6.12323399573677E-17,0.));
#423=DIRECTION('',(6.12323399573677E-17,1.,0.));
#424=DIRECTION('',(-1.,6.12323399573677E-17,0.));
#425=DIRECTION('',(6.12323399573677E-17,1.,0.));
#426=DIRECTION('',(-1.,6.12323399573677E-17,0.));
#427=DIRECTION('',(6.12323399573677E-17,1.,0.));
#428=DIRECTION('',(-1.,6.12323399573677E-17,0.));
#429=DIRECTION('',(0.,0.,1.));
#430=DIRECTION('',(1.,0.,0.));
#431=DIRECTION('',(-1.,0.,0.));
#432=DIRECTION('',(0.,0.,1.));
#433=DIRECTION('',(1.,0.,0.));
#434=DIRECTION('',(0.,0.,-1.));
#435=DIRECTION('',(1.,0.,0.));
#436=DIRECTION('',(0.,0.,-1.));
#437=DIRECTION('',(1.,0.,0.));
#438=DIRECTION('',(0.,0.,-1.));
#439=DIRECTION('',(1.,0.,0.));
#440=DIRECTION('',(0.,0.,-1.));
#441=DIRECTION('',(-1.,0.,0.));
#442=DIRECTION('',(0.,0.,1.));
#443=DIRECTION('',(1.,0.,0.));
#444=DIRECTION('',(0.,0.,-1.));
#445=DIRECTION('',(1.,0.,0.));
#446=DIRECTION('',(0.,0.,-1.));
#447=DIRECTION('',(1.,0.,0.));
#448=DIRECTION('',(0.,0.,-1.));
#449=DIRECTION('',(1.,0.,0.));
#450=DIRECTION('',(0.,0.,-1.));
#451=DIRECTION('',(1.,0.,0.));
#452=DIRECTION('',(0.,0.,-1.));
#453=DIRECTION('',(1.,0.,0.));
#454=DIRECTION('',(0.,0.,-1.));
#455=DIRECTION('',(1.,0.,0.));
#456=DIRECTION('',(0.,0.,-1.));
#457=DIRECTION('',(1.,0.,0.));
#458=DIRECTION('',(0.,0.,-1.));
#459=DIRECTION('',(1.,0.,0.));
#460=DIRECTION('',(0.,0.,-1.));
#461=DIRECTION('',(1.,0.,0.));
#462=DIRECTION('',(0.,0.,-1.));
#463=DIRECTION('',(1.,0.,0.));
#464=DIRECTION('',(0.,0.,-1.));
#465=DIRECTION('',(1.,0.,0.));
#466=DIRECTION('',(0.,0.,-1.));
#467=DIRECTION('',(1.,0.,0.));
#468=DIRECTION('',(0.,0.,-1.));
#469=DIRECTION('',(1.,0.,0.));
#470=DIRECTION('',(0.,0.,-1.));
#471=DIRECTION('',(0.,0.,1.));
#472=DIRECTION('',(0.,1.,0.));
#473=DIRECTION('',(1.,0.,0.));
#474=DIRECTION('',(0.,-1.,0.));
#475=DIRECTION('',(0.,0.,1.));
#476=DIRECTION('',(0.,-1.,0.));
#477=DIRECTION('',(0.,0.,1.));
#478=DIRECTION('',(0.,-1.,0.));
#479=DIRECTION('',(0.,0.,1.));
#480=DIRECTION('',(0.,-1.,0.));
#481=DIRECTION('',(0.,0.,1.));
#482=DIRECTION('',(0.,-1.,0.));
#483=DIRECTION('',(0.,0.,1.));
#484=DIRECTION('',(0.,-1.,0.));
#485=DIRECTION('',(0.,0.,1.));
#486=DIRECTION('',(0.,-1.,0.));
#487=DIRECTION('',(0.,0.,1.));
#488=DIRECTION('',(0.,-1.,0.));
#489=DIRECTION('',(0.,0.,1.));
#490=DIRECTION('',(0.,-1.,0.));
#491=DIRECTION('',(0.,0.,1.));
#492=DIRECTION('',(0.,-1.,0.));
#493=DIRECTION('',(0.,0.,1.));
#494=DIRECTION('',(0.,-1.,0.));
#495=CARTESIAN_POINT('',(0.,0.,0.));
#496=CARTESIAN_POINT('',(-11.7,1.10220724948691E-15,0.));
#497=CARTESIAN_POINT('',(0.,0.,0.));
#498=CARTESIAN_POINT('',(-5.8,3.55147571752732E-16,0.));
#499=CARTESIAN_POINT('',(2.40741243048404E-32,4.33680868994202E-16,0.));
#500=CARTESIAN_POINT('',(-11.7,1.1500992464954E-15,0.));
#501=CARTESIAN_POINT('',(0.,0.3,0.));
#502=CARTESIAN_POINT('',(1.83697019872103E-17,0.3,0.));
#503=CARTESIAN_POINT('',(-5.5,0.3,0.));
#504=CARTESIAN_POINT('',(1.53080849893419E-16,2.5,0.));
#505=CARTESIAN_POINT('',(1.34711147906209E-16,2.2,0.));
#506=CARTESIAN_POINT('',(-5.5,2.2,0.));
#507=CARTESIAN_POINT('',(0.,2.2,0.));
#508=CARTESIAN_POINT('',(1.53080849893419E-16,2.5,0.));
#509=CARTESIAN_POINT('',(-5.8,2.5,0.));
#510=CARTESIAN_POINT('',(-5.8,2.5,0.));
#511=CARTESIAN_POINT('',(1.53080849893419E-16,2.5,0.));
#512=CARTESIAN_POINT('',(-7.71922359359558,2.5,0.));
#513=CARTESIAN_POINT('',(0.,4.5,0.));
#514=CARTESIAN_POINT('',(1.53080849893419E-16,2.5,0.));
#515=CARTESIAN_POINT('',(-9.78077640640442,2.5,0.));
#516=CARTESIAN_POINT('',(-9.78077640640442,2.5,0.));
#517=CARTESIAN_POINT('',(1.53080849893419E-16,2.5,0.));
#518=CARTESIAN_POINT('',(-11.7,2.5,0.));
#519=CARTESIAN_POINT('',(0.,2.2,0.));
#520=CARTESIAN_POINT('',(1.34711147906209E-16,2.2,0.));
#521=CARTESIAN_POINT('',(-12.,2.2,0.));
#522=CARTESIAN_POINT('',(1.53080849893419E-16,2.5,0.));
#523=CARTESIAN_POINT('',(1.83697019872103E-17,0.3,0.));
#524=CARTESIAN_POINT('',(-12.,0.300000000000001,0.));
#525=CARTESIAN_POINT('',(0.,0.300000000000002,0.));
#526=CARTESIAN_POINT('',(0.,0.,0.));
#527=CARTESIAN_POINT('',(-1.35525271560688E-16,11.7,0.));
#528=CARTESIAN_POINT('',(-8.67361737988404E-16,0.,0.));
#529=CARTESIAN_POINT('',(-8.67361737988404E-16,0.,-9.78077640640442));
#530=CARTESIAN_POINT('',(4.33680868994202E-16,0.,0.));
#531=CARTESIAN_POINT('',(4.33680868994202E-16,0.,-11.7));
#532=CARTESIAN_POINT('',(-2.,0.,0.));
#533=CARTESIAN_POINT('',(0.,0.,0.));
#534=CARTESIAN_POINT('',(0.,0.,-7.71922359359559));
#535=CARTESIAN_POINT('',(0.,7.71922359359558,0.));
#536=CARTESIAN_POINT('',(0.,0.,0.));
#537=CARTESIAN_POINT('',(0.,0.,-5.3));
#538=CARTESIAN_POINT('',(0.300000000000001,0.,0.));
#539=CARTESIAN_POINT('',(0.299999999999999,0.,0.));
#540=CARTESIAN_POINT('',(0.299999999999999,0.,-5.));
#541=CARTESIAN_POINT('',(2.5,0.,0.));
#542=CARTESIAN_POINT('',(2.2,0.,0.));
#543=CARTESIAN_POINT('',(2.2,0.,-5.));
#544=CARTESIAN_POINT('',(2.2,0.,0.));
#545=CARTESIAN_POINT('',(2.5,0.,0.));
#546=CARTESIAN_POINT('',(2.5,0.,-5.3));
#547=CARTESIAN_POINT('',(2.5,5.3,0.));
#548=CARTESIAN_POINT('',(2.5,0.,0.));
#549=CARTESIAN_POINT('',(2.5,0.,-11.7));
#550=CARTESIAN_POINT('',(2.2,0.,0.));
#551=CARTESIAN_POINT('',(2.2,0.,0.));
#552=CARTESIAN_POINT('',(2.2,0.,-12.));
#553=CARTESIAN_POINT('',(2.5,0.,0.));
#554=CARTESIAN_POINT('',(0.3,0.,0.));
#555=CARTESIAN_POINT('',(0.3,0.,-12.));
#556=CARTESIAN_POINT('',(0.300000000000002,0.,0.));
#557=CARTESIAN_POINT('',(0.,6.5,0.));
#558=CARTESIAN_POINT('',(0.,0.,0.));
#559=CARTESIAN_POINT('',(-2.25,-1.37772764904077E-16,0.));
#560=CARTESIAN_POINT('',(-8.75,4.5,0.));
#561=CARTESIAN_POINT('',(-7.07889870078079,4.5,5.14312095755914));
#562=CARTESIAN_POINT('',(-2.70389870078079,4.5,8.32174451758259));
#563=CARTESIAN_POINT('',(2.70389870078079,4.5,8.32174451758259));
#564=CARTESIAN_POINT('',(7.07889870078079,4.5,5.14312095755914));
#565=CARTESIAN_POINT('',(8.75,4.5,8.88178419700125E-16));
#566=CARTESIAN_POINT('',(7.07889870078079,4.5,-5.14312095755914));
#567=CARTESIAN_POINT('',(2.70389870078079,4.5,-8.32174451758259));
#568=CARTESIAN_POINT('',(-2.70389870078079,4.5,-8.3217445175826));
#569=CARTESIAN_POINT('',(-7.07889870078079,4.5,-5.14312095755914));
#570=MECHANICAL_DESIGN_GEOMETRIC_PRESENTATION_REPRESENTATION('',(#300,#301,
#302),#571);
#571=(
GEOMETRIC_REPRESENTATION_CONTEXT(3)
GLOBAL_UNCERTAINTY_ASSIGNED_CONTEXT((#575))
GLOBAL_UNIT_ASSIGNED_CONTEXT((#581,#580,#579))
REPRESENTATION_CONTEXT('NSK_51100','TOP_LEVEL_ASSEMBLY_PART')
);
#572=(
GEOMETRIC_REPRESENTATION_CONTEXT(3)
GLOBAL_UNCERTAINTY_ASSIGNED_CONTEXT((#576))
GLOBAL_UNIT_ASSIGNED_CONTEXT((#581,#580,#579))
REPRESENTATION_CONTEXT('51100 Housing washer','COMPONENT_PART')
);
#573=(
GEOMETRIC_REPRESENTATION_CONTEXT(3)
GLOBAL_UNCERTAINTY_ASSIGNED_CONTEXT((#577))
GLOBAL_UNIT_ASSIGNED_CONTEXT((#581,#580,#579))
REPRESENTATION_CONTEXT('51100 Shaft washer','COMPONENT_PART')
);
#574=(
GEOMETRIC_REPRESENTATION_CONTEXT(3)
GLOBAL_UNCERTAINTY_ASSIGNED_CONTEXT((#578))
GLOBAL_UNIT_ASSIGNED_CONTEXT((#581,#580,#579))
REPRESENTATION_CONTEXT('51100 Ball','COMPONENT_PART')
);
#575=UNCERTAINTY_MEASURE_WITH_UNIT(LENGTH_MEASURE(1.E-5),#581,
'DISTANCE_ACCURACY_VALUE','Maximum Tolerance applied to model');
#576=UNCERTAINTY_MEASURE_WITH_UNIT(LENGTH_MEASURE(1.E-5),#581,
'DISTANCE_ACCURACY_VALUE','Maximum Tolerance applied to model');
#577=UNCERTAINTY_MEASURE_WITH_UNIT(LENGTH_MEASURE(1.E-5),#581,
'DISTANCE_ACCURACY_VALUE','Maximum Tolerance applied to model');
#578=UNCERTAINTY_MEASURE_WITH_UNIT(LENGTH_MEASURE(1.E-5),#581,
'DISTANCE_ACCURACY_VALUE','Maximum Tolerance applied to model');
#579=(
NAMED_UNIT(*)
SI_UNIT($,.STERADIAN.)
SOLID_ANGLE_UNIT()
);
#580=(
NAMED_UNIT(*)
PLANE_ANGLE_UNIT()
SI_UNIT($,.RADIAN.)
);
#581=(
LENGTH_UNIT()
NAMED_UNIT(*)
SI_UNIT(.MILLI.,.METRE.)
);
#582=PRODUCT_DEFINITION_SHAPE('','',#598);
#583=PRODUCT_DEFINITION_SHAPE('','',#599);
#584=PRODUCT_DEFINITION_SHAPE(' ','NAUO PRDDFN',#32);
#585=PRODUCT_DEFINITION_SHAPE('','',#600);
#586=PRODUCT_DEFINITION_SHAPE(' ','NAUO PRDDFN',#33);
#587=PRODUCT_DEFINITION_SHAPE('','',#601);
#588=PRODUCT_DEFINITION_SHAPE(' ','NAUO PRDDFN',#34);
#589=PRODUCT_DEFINITION_SHAPE(' ','NAUO PRDDFN',#35);
#590=PRODUCT_DEFINITION_SHAPE(' ','NAUO PRDDFN',#36);
#591=PRODUCT_DEFINITION_SHAPE(' ','NAUO PRDDFN',#37);
#592=PRODUCT_DEFINITION_SHAPE(' ','NAUO PRDDFN',#38);
#593=PRODUCT_DEFINITION_SHAPE(' ','NAUO PRDDFN',#39);
#594=PRODUCT_DEFINITION_SHAPE(' ','NAUO PRDDFN',#40);
#595=PRODUCT_DEFINITION_SHAPE(' ','NAUO PRDDFN',#41);
#596=PRODUCT_DEFINITION_SHAPE(' ','NAUO PRDDFN',#42);
#597=PRODUCT_DEFINITION_SHAPE(' ','NAUO PRDDFN',#43);
#598=PRODUCT_DEFINITION('','',#606,#602);
#599=PRODUCT_DEFINITION('','',#607,#603);
#600=PRODUCT_DEFINITION('','',#608,#604);
#601=PRODUCT_DEFINITION('','',#609,#605);
#602=PRODUCT_DEFINITION_CONTEXT('',#627,'design');
#603=PRODUCT_DEFINITION_CONTEXT('',#627,'design');
#604=PRODUCT_DEFINITION_CONTEXT('',#627,'design');
#605=PRODUCT_DEFINITION_CONTEXT('',#627,'design');
#606=PRODUCT_DEFINITION_FORMATION_WITH_SPECIFIED_SOURCE('','',#614,
 .NOT_KNOWN.);
#607=PRODUCT_DEFINITION_FORMATION_WITH_SPECIFIED_SOURCE('','',#615,
 .NOT_KNOWN.);
#608=PRODUCT_DEFINITION_FORMATION_WITH_SPECIFIED_SOURCE('','',#616,
 .NOT_KNOWN.);
#609=PRODUCT_DEFINITION_FORMATION_WITH_SPECIFIED_SOURCE('','',#617,
 .NOT_KNOWN.);
#610=PRODUCT_RELATED_PRODUCT_CATEGORY('','',(#614));
#611=PRODUCT_RELATED_PRODUCT_CATEGORY('','',(#615));
#612=PRODUCT_RELATED_PRODUCT_CATEGORY('','',(#616));
#613=PRODUCT_RELATED_PRODUCT_CATEGORY('','',(#617));
#614=PRODUCT('NSK_51100','NSK_51100','NSK_51100',(#622));
#615=PRODUCT('51100 Housing washer','51100 Housing washer',
'51100 Housing washer',(#623));
#616=PRODUCT('51100 Shaft washer','51100 Shaft washer',
'51100 Shaft washer',(#624));
#617=PRODUCT('51100 Ball','51100 Ball','51100 Ball',(#625));
#618=PRODUCT_CATEGORY('','');
#619=PRODUCT_CATEGORY('','');
#620=PRODUCT_CATEGORY('','');
#621=PRODUCT_CATEGORY('','');
#622=PRODUCT_CONTEXT('',#627,'mechanical');
#623=PRODUCT_CONTEXT('',#627,'mechanical');
#624=PRODUCT_CONTEXT('',#627,'mechanical');
#625=PRODUCT_CONTEXT('',#627,'mechanical');
#626=APPLICATION_PROTOCOL_DEFINITION('international standard',
'automotive_design',2010,#627);
#627=APPLICATION_CONTEXT(
'core data for automotive mechanical design processes');
ENDSEC;
END-ISO-10303-21;
