ISO-10303-21;
HEADER;
/* Generated by software containing ST-Developer
 * from STEP Tools, Inc. (www.steptools.com) 
 */
/* OPTION: using custom renumber hook */

FILE_DESCRIPTION(
/* description */ ('STEP AP203'),
/* implementation_level */ '2;1');

FILE_NAME(
/* name */ 'SSCC12-12',
/* time_stamp */ '2026-01-01T12:21:16+01:00',
/* author */ ('License CC BY-ND 4.0'),
/* organization */ ('CADENAS'),
/* preprocessor_version */ 'ST-DEVELOPER v19.3',
/* originating_system */ 'PARTsolutions',
/* authorisation */ '  ');

FILE_SCHEMA (('CONFIG_CONTROL_DESIGN'));
ENDSEC;

DATA;
#10=PROPERTY_DEFINITION_REPRESENTATION(#14,#12);
#11=PROPERTY_DEFINITION_REPRESENTATION(#15,#13);
#12=REPRESENTATION('',(#16),#774);
#13=REPRESENTATION('',(#17),#774);
#14=PROPERTY_DEFINITION('pmi validation property','',#783);
#15=PROPERTY_DEFINITION('pmi validation property','',#783);
#16=VALUE_REPRESENTATION_ITEM('number of annotations',COUNT_MEASURE(0.));
#17=VALUE_REPRESENTATION_ITEM('number of views',COUNT_MEASURE(0.));
#18=LINE('',#747,#30);
#19=LINE('',#749,#31);
#20=LINE('',#751,#32);
#21=LINE('',#753,#33);
#22=LINE('',#755,#34);
#23=LINE('',#757,#35);
#24=LINE('',#759,#36);
#25=LINE('',#761,#37);
#26=LINE('',#763,#38);
#27=LINE('',#765,#39);
#28=LINE('',#767,#40);
#29=LINE('',#769,#41);
#30=VECTOR('',#575,1000.);
#31=VECTOR('',#576,1000.);
#32=VECTOR('',#577,1000.);
#33=VECTOR('',#580,1000.);
#34=VECTOR('',#581,1000.);
#35=VECTOR('',#584,1000.);
#36=VECTOR('',#585,1000.);
#37=VECTOR('',#588,1000.);
#38=VECTOR('',#589,1000.);
#39=VECTOR('',#592,1000.);
#40=VECTOR('',#593,1000.);
#41=VECTOR('',#596,1000.);
#42=CONTEXT_DEPENDENT_SHAPE_REPRESENTATION(#48,#785);
#43=CONTEXT_DEPENDENT_SHAPE_REPRESENTATION(#49,#787);
#44=CONTEXT_DEPENDENT_SHAPE_REPRESENTATION(#50,#788);
#45=NEXT_ASSEMBLY_USAGE_OCCURRENCE('NAUO1','SSCC12-12_b','SSCC12-12_b',
#789,#790,'');
#46=NEXT_ASSEMBLY_USAGE_OCCURRENCE('NAUO2',
'Hexagon socket set screw with flat point DIN 913 - M5x5',
'Hexagon socket set screw with flat point DIN 913 - M5x5',#789,#791,'');
#47=NEXT_ASSEMBLY_USAGE_OCCURRENCE('NAUO3',
'Hexagon socket set screw with flat point DIN 913 - M5x5',
'Hexagon socket set screw with flat point DIN 913 - M5x5',#789,#791,'');
#48=(
REPRESENTATION_RELATIONSHIP(' ',' ',#427,#426)
REPRESENTATION_RELATIONSHIP_WITH_TRANSFORMATION(#51)
SHAPE_REPRESENTATION_RELATIONSHIP()
);
#49=(
REPRESENTATION_RELATIONSHIP(' ',' ',#428,#426)
REPRESENTATION_RELATIONSHIP_WITH_TRANSFORMATION(#52)
SHAPE_REPRESENTATION_RELATIONSHIP()
);
#50=(
REPRESENTATION_RELATIONSHIP(' ',' ',#428,#426)
REPRESENTATION_RELATIONSHIP_WITH_TRANSFORMATION(#53)
SHAPE_REPRESENTATION_RELATIONSHIP()
);
#51=ITEM_DEFINED_TRANSFORMATION(' ',' ',#429,#452);
#52=ITEM_DEFINED_TRANSFORMATION(' ',' ',#429,#481);
#53=ITEM_DEFINED_TRANSFORMATION(' ',' ',#429,#482);
#54=SHAPE_REPRESENTATION_RELATIONSHIP('','',#427,#56);
#55=SHAPE_REPRESENTATION_RELATIONSHIP('','',#428,#57);
#56=ADVANCED_BREP_SHAPE_REPRESENTATION('',(#421),#775);
#57=ADVANCED_BREP_SHAPE_REPRESENTATION('',(#422),#776);
#58=PLANE('',#438);
#59=PLANE('',#443);
#60=PLANE('',#465);
#61=PLANE('',#473);
#62=PLANE('',#474);
#63=PLANE('',#475);
#64=PLANE('',#476);
#65=PLANE('',#477);
#66=PLANE('',#478);
#67=PLANE('',#479);
#68=PLANE('',#480);
#69=CONICAL_SURFACE('',#436,13.,1.0471975511966);
#70=CONICAL_SURFACE('',#440,6.5,0.785398163397448);
#71=CONICAL_SURFACE('',#441,6.,0.785398163397448);
#72=CONICAL_SURFACE('',#445,12.5,0.785398163397448);
#73=CONICAL_SURFACE('',#448,2.067,0.785398163397447);
#74=CONICAL_SURFACE('',#451,2.067,0.785398163397447);
#75=CONICAL_SURFACE('',#453,1.44337567297406,1.0471975511966);
#76=CONICAL_SURFACE('',#455,1.44337567297406,1.0471975511966);
#77=CONICAL_SURFACE('',#457,1.44337567297406,1.0471975511966);
#78=CONICAL_SURFACE('',#459,1.44337567297406,1.0471975511966);
#79=CONICAL_SURFACE('',#461,1.44337567297406,1.0471975511966);
#80=CONICAL_SURFACE('',#463,1.44337567297406,1.0471975511966);
#81=CONICAL_SURFACE('',#467,1.75,0.785398163397448);
#82=CONICAL_SURFACE('',#471,2.5,1.0471975511966);
#83=B_SPLINE_CURVE_WITH_KNOTS('',3,(#607,#608,#609,#610,#611,#612,#613,
#614,#615,#616,#617),.UNSPECIFIED.,.T.,.F.,(1,1,1,1,1,1,1,1,1,1,1,1,1,1,
1),(-0.00488374494076184,-0.00325582996050789,-0.00162791498025395,0.,0.00162791498025395,
0.00325582996050789,0.00488374494076184,0.00651165992101578,0.00813957490126973,
0.00976748988152367,0.0113954048617776,0.0130233198420316,0.0146512348222855,
0.0162791498025395,0.0179070647827934),.UNSPECIFIED.);
#84=B_SPLINE_CURVE_WITH_KNOTS('',3,(#621,#622,#623,#624,#625,#626,#627,
#628,#629,#630,#631),.UNSPECIFIED.,.T.,.F.,(1,1,1,1,1,1,1,1,1,1,1,1,1,1,
1),(-0.00488390858684432,-0.00325593905789621,-0.00162796952894811,0.,0.00162796952894811,
0.00325593905789621,0.00488390858684432,0.00651187811579243,0.00813984764474054,
0.00976781717368864,0.0113957867026368,0.0130237562315849,0.014651725760533,
0.0162796952894811,0.0179076648184292),.UNSPECIFIED.);
#85=B_SPLINE_CURVE_WITH_KNOTS('',3,(#636,#637,#638,#639,#640,#641,#642,
#643,#644,#645,#646,#647,#648),.UNSPECIFIED.,.T.,.F.,(1,1,1,1,1,1,1,1,1,
1,1,1,1,1,1,1,1),(-0.00376824188764073,-0.00282618141573054,-0.00188412094382036,
0.,0.00188412094382036,0.00376824188764073,0.00565236283146109,0.00659442330337127,
0.00753648377528145,0.00942060471910181,0.0113047256629222,0.0122467861348324,
0.0131888466067425,0.0150729675505629,0.0169570884943833,0.0188412094382036,
0.020725330382024),.UNSPECIFIED.);
#86=B_SPLINE_CURVE_WITH_KNOTS('',3,(#652,#653,#654,#655,#656,#657,#658,
#659,#660,#661,#662,#663,#664),.UNSPECIFIED.,.T.,.F.,(1,1,1,1,1,1,1,1,1,
1,1,1,1,1,1,1,1),(-0.0047060561558193,-0.00376484492465544,-0.00188242246232772,
0.,0.00188242246232772,0.00282363369349158,0.00376484492465544,0.00564726738698316,
0.00752968984931088,0.0094121123116386,0.0103533235428025,0.0112945347739663,
0.013176957236294,0.0150593796986218,0.0169418021609495,0.0178830133921133,
0.0188242246232772),.UNSPECIFIED.);
#87=B_SPLINE_CURVE_WITH_KNOTS('',3,(#690,#691,#692,#693),.UNSPECIFIED.,
 .F.,.F.,(4,4),(2.38076376806171E-7,0.00145797508308211),.UNSPECIFIED.);
#88=B_SPLINE_CURVE_WITH_KNOTS('',3,(#698,#699,#700,#701),.UNSPECIFIED.,
 .F.,.F.,(4,4),(2.38076376806133E-7,0.00145797508308211),.UNSPECIFIED.);
#89=B_SPLINE_CURVE_WITH_KNOTS('',3,(#705,#706,#707,#708,#709),
 .UNSPECIFIED.,.F.,.F.,(4,1,4),(0.0018183819826713,0.00255323016089327,
0.00328807833911524),.UNSPECIFIED.);
#90=B_SPLINE_CURVE_WITH_KNOTS('',3,(#713,#714,#715,#716),.UNSPECIFIED.,
 .F.,.F.,(4,4),(2.38076376806133E-7,0.00145797508308211),.UNSPECIFIED.);
#91=B_SPLINE_CURVE_WITH_KNOTS('',3,(#720,#721,#722,#723),.UNSPECIFIED.,
 .F.,.F.,(4,4),(2.38076376805985E-7,0.00145797508308211),.UNSPECIFIED.);
#92=B_SPLINE_CURVE_WITH_KNOTS('',3,(#727,#728,#729,#730,#731),
 .UNSPECIFIED.,.F.,.F.,(4,1,4),(0.0018183819826713,0.00255323016089327,
0.00328807833911524),.UNSPECIFIED.);
#93=ORIENTED_EDGE('',*,*,#177,.T.);
#94=ORIENTED_EDGE('',*,*,#178,.T.);
#95=ORIENTED_EDGE('',*,*,#179,.F.);
#96=ORIENTED_EDGE('',*,*,#180,.T.);
#97=ORIENTED_EDGE('',*,*,#181,.T.);
#98=ORIENTED_EDGE('',*,*,#182,.T.);
#99=ORIENTED_EDGE('',*,*,#183,.F.);
#100=ORIENTED_EDGE('',*,*,#184,.T.);
#101=ORIENTED_EDGE('',*,*,#185,.T.);
#102=ORIENTED_EDGE('',*,*,#181,.F.);
#103=ORIENTED_EDGE('',*,*,#186,.T.);
#104=ORIENTED_EDGE('',*,*,#185,.F.);
#105=ORIENTED_EDGE('',*,*,#179,.T.);
#106=ORIENTED_EDGE('',*,*,#186,.F.);
#107=ORIENTED_EDGE('',*,*,#187,.T.);
#108=ORIENTED_EDGE('',*,*,#177,.F.);
#109=ORIENTED_EDGE('',*,*,#188,.T.);
#110=ORIENTED_EDGE('',*,*,#187,.F.);
#111=ORIENTED_EDGE('',*,*,#183,.T.);
#112=ORIENTED_EDGE('',*,*,#188,.F.);
#113=ORIENTED_EDGE('',*,*,#189,.T.);
#114=ORIENTED_EDGE('',*,*,#178,.F.);
#115=ORIENTED_EDGE('',*,*,#182,.F.);
#116=ORIENTED_EDGE('',*,*,#189,.F.);
#117=ORIENTED_EDGE('',*,*,#190,.T.);
#118=ORIENTED_EDGE('',*,*,#180,.F.);
#119=ORIENTED_EDGE('',*,*,#184,.F.);
#120=ORIENTED_EDGE('',*,*,#190,.F.);
#121=ORIENTED_EDGE('',*,*,#191,.F.);
#122=ORIENTED_EDGE('',*,*,#192,.T.);
#123=ORIENTED_EDGE('',*,*,#193,.F.);
#124=ORIENTED_EDGE('',*,*,#194,.T.);
#125=ORIENTED_EDGE('',*,*,#195,.F.);
#126=ORIENTED_EDGE('',*,*,#196,.T.);
#127=ORIENTED_EDGE('',*,*,#197,.F.);
#128=ORIENTED_EDGE('',*,*,#198,.T.);
#129=ORIENTED_EDGE('',*,*,#199,.F.);
#130=ORIENTED_EDGE('',*,*,#200,.T.);
#131=ORIENTED_EDGE('',*,*,#201,.F.);
#132=ORIENTED_EDGE('',*,*,#202,.T.);
#133=ORIENTED_EDGE('',*,*,#203,.F.);
#134=ORIENTED_EDGE('',*,*,#204,.F.);
#135=ORIENTED_EDGE('',*,*,#203,.T.);
#136=ORIENTED_EDGE('',*,*,#205,.F.);
#137=ORIENTED_EDGE('',*,*,#204,.T.);
#138=ORIENTED_EDGE('',*,*,#206,.F.);
#139=ORIENTED_EDGE('',*,*,#205,.T.);
#140=ORIENTED_EDGE('',*,*,#196,.F.);
#141=ORIENTED_EDGE('',*,*,#198,.F.);
#142=ORIENTED_EDGE('',*,*,#200,.F.);
#143=ORIENTED_EDGE('',*,*,#202,.F.);
#144=ORIENTED_EDGE('',*,*,#194,.F.);
#145=ORIENTED_EDGE('',*,*,#192,.F.);
#146=ORIENTED_EDGE('',*,*,#206,.T.);
#147=ORIENTED_EDGE('',*,*,#193,.T.);
#148=ORIENTED_EDGE('',*,*,#207,.F.);
#149=ORIENTED_EDGE('',*,*,#208,.T.);
#150=ORIENTED_EDGE('',*,*,#209,.T.);
#151=ORIENTED_EDGE('',*,*,#191,.T.);
#152=ORIENTED_EDGE('',*,*,#209,.F.);
#153=ORIENTED_EDGE('',*,*,#210,.T.);
#154=ORIENTED_EDGE('',*,*,#211,.T.);
#155=ORIENTED_EDGE('',*,*,#195,.T.);
#156=ORIENTED_EDGE('',*,*,#211,.F.);
#157=ORIENTED_EDGE('',*,*,#212,.T.);
#158=ORIENTED_EDGE('',*,*,#213,.T.);
#159=ORIENTED_EDGE('',*,*,#197,.T.);
#160=ORIENTED_EDGE('',*,*,#213,.F.);
#161=ORIENTED_EDGE('',*,*,#214,.T.);
#162=ORIENTED_EDGE('',*,*,#215,.T.);
#163=ORIENTED_EDGE('',*,*,#199,.T.);
#164=ORIENTED_EDGE('',*,*,#215,.F.);
#165=ORIENTED_EDGE('',*,*,#216,.T.);
#166=ORIENTED_EDGE('',*,*,#217,.T.);
#167=ORIENTED_EDGE('',*,*,#201,.T.);
#168=ORIENTED_EDGE('',*,*,#217,.F.);
#169=ORIENTED_EDGE('',*,*,#218,.T.);
#170=ORIENTED_EDGE('',*,*,#207,.T.);
#171=ORIENTED_EDGE('',*,*,#208,.F.);
#172=ORIENTED_EDGE('',*,*,#218,.F.);
#173=ORIENTED_EDGE('',*,*,#216,.F.);
#174=ORIENTED_EDGE('',*,*,#214,.F.);
#175=ORIENTED_EDGE('',*,*,#212,.F.);
#176=ORIENTED_EDGE('',*,*,#210,.F.);
#177=EDGE_CURVE('',#219,#219,#249,.T.);
#178=EDGE_CURVE('',#220,#220,#83,.T.);
#179=EDGE_CURVE('',#221,#221,#250,.T.);
#180=EDGE_CURVE('',#222,#222,#84,.T.);
#181=EDGE_CURVE('',#223,#223,#251,.T.);
#182=EDGE_CURVE('',#224,#224,#85,.T.);
#183=EDGE_CURVE('',#225,#225,#252,.T.);
#184=EDGE_CURVE('',#226,#226,#86,.T.);
#185=EDGE_CURVE('',#227,#227,#253,.T.);
#186=EDGE_CURVE('',#228,#228,#254,.T.);
#187=EDGE_CURVE('',#229,#229,#255,.T.);
#188=EDGE_CURVE('',#230,#230,#256,.T.);
#189=EDGE_CURVE('',#231,#231,#257,.T.);
#190=EDGE_CURVE('',#232,#232,#258,.T.);
#191=EDGE_CURVE('',#233,#234,#87,.T.);
#192=EDGE_CURVE('',#233,#234,#259,.T.);
#193=EDGE_CURVE('',#234,#235,#88,.T.);
#194=EDGE_CURVE('',#234,#235,#260,.T.);
#195=EDGE_CURVE('',#236,#233,#89,.T.);
#196=EDGE_CURVE('',#236,#233,#261,.T.);
#197=EDGE_CURVE('',#237,#236,#90,.T.);
#198=EDGE_CURVE('',#237,#236,#262,.T.);
#199=EDGE_CURVE('',#238,#237,#91,.T.);
#200=EDGE_CURVE('',#238,#237,#263,.T.);
#201=EDGE_CURVE('',#235,#238,#92,.T.);
#202=EDGE_CURVE('',#235,#238,#264,.T.);
#203=EDGE_CURVE('',#239,#239,#265,.T.);
#204=EDGE_CURVE('',#240,#240,#266,.T.);
#205=EDGE_CURVE('',#241,#241,#267,.T.);
#206=EDGE_CURVE('',#242,#242,#268,.T.);
#207=EDGE_CURVE('',#243,#235,#18,.T.);
#208=EDGE_CURVE('',#243,#244,#19,.T.);
#209=EDGE_CURVE('',#244,#234,#20,.T.);
#210=EDGE_CURVE('',#244,#245,#21,.T.);
#211=EDGE_CURVE('',#245,#233,#22,.T.);
#212=EDGE_CURVE('',#245,#246,#23,.T.);
#213=EDGE_CURVE('',#246,#236,#24,.T.);
#214=EDGE_CURVE('',#246,#247,#25,.T.);
#215=EDGE_CURVE('',#247,#237,#26,.T.);
#216=EDGE_CURVE('',#247,#248,#27,.T.);
#217=EDGE_CURVE('',#248,#238,#28,.T.);
#218=EDGE_CURVE('',#248,#243,#29,.T.);
#219=VERTEX_POINT('',#606);
#220=VERTEX_POINT('',#618);
#221=VERTEX_POINT('',#620);
#222=VERTEX_POINT('',#632);
#223=VERTEX_POINT('',#635);
#224=VERTEX_POINT('',#649);
#225=VERTEX_POINT('',#651);
#226=VERTEX_POINT('',#665);
#227=VERTEX_POINT('',#668);
#228=VERTEX_POINT('',#671);
#229=VERTEX_POINT('',#675);
#230=VERTEX_POINT('',#678);
#231=VERTEX_POINT('',#682);
#232=VERTEX_POINT('',#686);
#233=VERTEX_POINT('',#694);
#234=VERTEX_POINT('',#695);
#235=VERTEX_POINT('',#702);
#236=VERTEX_POINT('',#710);
#237=VERTEX_POINT('',#717);
#238=VERTEX_POINT('',#724);
#239=VERTEX_POINT('',#735);
#240=VERTEX_POINT('',#738);
#241=VERTEX_POINT('',#741);
#242=VERTEX_POINT('',#744);
#243=VERTEX_POINT('',#748);
#244=VERTEX_POINT('',#750);
#245=VERTEX_POINT('',#754);
#246=VERTEX_POINT('',#758);
#247=VERTEX_POINT('',#762);
#248=VERTEX_POINT('',#766);
#249=CIRCLE('',#431,6.);
#250=CIRCLE('',#432,6.);
#251=CIRCLE('',#434,13.);
#252=CIRCLE('',#435,13.);
#253=CIRCLE('',#437,10.);
#254=CIRCLE('',#439,6.5);
#255=CIRCLE('',#442,6.5);
#256=CIRCLE('',#444,12.5);
#257=CIRCLE('',#447,2.067);
#258=CIRCLE('',#450,2.067);
#259=CIRCLE('',#454,1.44337567297406);
#260=CIRCLE('',#456,1.44337567297406);
#261=CIRCLE('',#458,1.44337567297406);
#262=CIRCLE('',#460,1.44337567297406);
#263=CIRCLE('',#462,1.44337567297406);
#264=CIRCLE('',#464,1.44337567297406);
#265=CIRCLE('',#466,1.75);
#266=CIRCLE('',#468,2.5);
#267=CIRCLE('',#470,2.5);
#268=CIRCLE('',#472,2.0095);
#269=EDGE_LOOP('',(#93));
#270=EDGE_LOOP('',(#94));
#271=EDGE_LOOP('',(#95));
#272=EDGE_LOOP('',(#96));
#273=EDGE_LOOP('',(#97));
#274=EDGE_LOOP('',(#98));
#275=EDGE_LOOP('',(#99));
#276=EDGE_LOOP('',(#100));
#277=EDGE_LOOP('',(#101));
#278=EDGE_LOOP('',(#102));
#279=EDGE_LOOP('',(#103));
#280=EDGE_LOOP('',(#104));
#281=EDGE_LOOP('',(#105));
#282=EDGE_LOOP('',(#106));
#283=EDGE_LOOP('',(#107));
#284=EDGE_LOOP('',(#108));
#285=EDGE_LOOP('',(#109));
#286=EDGE_LOOP('',(#110));
#287=EDGE_LOOP('',(#111));
#288=EDGE_LOOP('',(#112));
#289=EDGE_LOOP('',(#113));
#290=EDGE_LOOP('',(#114));
#291=EDGE_LOOP('',(#115));
#292=EDGE_LOOP('',(#116));
#293=EDGE_LOOP('',(#117));
#294=EDGE_LOOP('',(#118));
#295=EDGE_LOOP('',(#119));
#296=EDGE_LOOP('',(#120));
#297=EDGE_LOOP('',(#121,#122));
#298=EDGE_LOOP('',(#123,#124));
#299=EDGE_LOOP('',(#125,#126));
#300=EDGE_LOOP('',(#127,#128));
#301=EDGE_LOOP('',(#129,#130));
#302=EDGE_LOOP('',(#131,#132));
#303=EDGE_LOOP('',(#133));
#304=EDGE_LOOP('',(#134));
#305=EDGE_LOOP('',(#135));
#306=EDGE_LOOP('',(#136));
#307=EDGE_LOOP('',(#137));
#308=EDGE_LOOP('',(#138));
#309=EDGE_LOOP('',(#139));
#310=EDGE_LOOP('',(#140,#141,#142,#143,#144,#145));
#311=EDGE_LOOP('',(#146));
#312=EDGE_LOOP('',(#147,#148,#149,#150));
#313=EDGE_LOOP('',(#151,#152,#153,#154));
#314=EDGE_LOOP('',(#155,#156,#157,#158));
#315=EDGE_LOOP('',(#159,#160,#161,#162));
#316=EDGE_LOOP('',(#163,#164,#165,#166));
#317=EDGE_LOOP('',(#167,#168,#169,#170));
#318=EDGE_LOOP('',(#171,#172,#173,#174,#175,#176));
#319=FACE_BOUND('',#269,.T.);
#320=FACE_BOUND('',#270,.T.);
#321=FACE_BOUND('',#271,.T.);
#322=FACE_BOUND('',#272,.T.);
#323=FACE_BOUND('',#273,.T.);
#324=FACE_BOUND('',#274,.T.);
#325=FACE_BOUND('',#275,.T.);
#326=FACE_BOUND('',#276,.T.);
#327=FACE_BOUND('',#277,.T.);
#328=FACE_BOUND('',#278,.T.);
#329=FACE_BOUND('',#279,.T.);
#330=FACE_BOUND('',#280,.T.);
#331=FACE_BOUND('',#281,.T.);
#332=FACE_BOUND('',#282,.T.);
#333=FACE_BOUND('',#283,.T.);
#334=FACE_BOUND('',#284,.T.);
#335=FACE_BOUND('',#285,.T.);
#336=FACE_BOUND('',#286,.T.);
#337=FACE_BOUND('',#287,.T.);
#338=FACE_BOUND('',#288,.T.);
#339=FACE_BOUND('',#289,.T.);
#340=FACE_BOUND('',#290,.T.);
#341=FACE_BOUND('',#291,.T.);
#342=FACE_BOUND('',#292,.T.);
#343=FACE_BOUND('',#293,.T.);
#344=FACE_BOUND('',#294,.T.);
#345=FACE_BOUND('',#295,.T.);
#346=FACE_BOUND('',#296,.T.);
#347=FACE_BOUND('',#297,.T.);
#348=FACE_BOUND('',#298,.T.);
#349=FACE_BOUND('',#299,.T.);
#350=FACE_BOUND('',#300,.T.);
#351=FACE_BOUND('',#301,.T.);
#352=FACE_BOUND('',#302,.T.);
#353=FACE_BOUND('',#303,.T.);
#354=FACE_BOUND('',#304,.T.);
#355=FACE_BOUND('',#305,.T.);
#356=FACE_BOUND('',#306,.T.);
#357=FACE_BOUND('',#307,.T.);
#358=FACE_BOUND('',#308,.T.);
#359=FACE_BOUND('',#309,.T.);
#360=FACE_BOUND('',#310,.T.);
#361=FACE_BOUND('',#311,.T.);
#362=FACE_BOUND('',#312,.T.);
#363=FACE_BOUND('',#313,.T.);
#364=FACE_BOUND('',#314,.T.);
#365=FACE_BOUND('',#315,.T.);
#366=FACE_BOUND('',#316,.T.);
#367=FACE_BOUND('',#317,.T.);
#368=FACE_BOUND('',#318,.T.);
#369=CYLINDRICAL_SURFACE('',#430,6.);
#370=CYLINDRICAL_SURFACE('',#433,13.);
#371=CYLINDRICAL_SURFACE('',#446,2.067);
#372=CYLINDRICAL_SURFACE('',#449,2.067);
#373=CYLINDRICAL_SURFACE('',#469,2.5);
#374=ADVANCED_FACE('',(#319,#320,#321,#322),#369,.F.);
#375=ADVANCED_FACE('',(#323,#324,#325,#326),#370,.T.);
#376=ADVANCED_FACE('',(#327,#328),#69,.T.);
#377=ADVANCED_FACE('',(#329,#330),#58,.T.);
#378=ADVANCED_FACE('',(#331,#332),#70,.F.);
#379=ADVANCED_FACE('',(#333,#334),#71,.F.);
#380=ADVANCED_FACE('',(#335,#336),#59,.T.);
#381=ADVANCED_FACE('',(#337,#338),#72,.T.);
#382=ADVANCED_FACE('',(#339,#340),#371,.F.);
#383=ADVANCED_FACE('',(#341,#342),#73,.F.);
#384=ADVANCED_FACE('',(#343,#344),#372,.F.);
#385=ADVANCED_FACE('',(#345,#346),#74,.F.);
#386=ADVANCED_FACE('',(#347),#75,.F.);
#387=ADVANCED_FACE('',(#348),#76,.F.);
#388=ADVANCED_FACE('',(#349),#77,.F.);
#389=ADVANCED_FACE('',(#350),#78,.F.);
#390=ADVANCED_FACE('',(#351),#79,.F.);
#391=ADVANCED_FACE('',(#352),#80,.F.);
#392=ADVANCED_FACE('',(#353),#60,.F.);
#393=ADVANCED_FACE('',(#354,#355),#81,.T.);
#394=ADVANCED_FACE('',(#356,#357),#373,.T.);
#395=ADVANCED_FACE('',(#358,#359),#82,.T.);
#396=ADVANCED_FACE('',(#360,#361),#61,.F.);
#397=ADVANCED_FACE('',(#362),#62,.T.);
#398=ADVANCED_FACE('',(#363),#63,.T.);
#399=ADVANCED_FACE('',(#364),#64,.T.);
#400=ADVANCED_FACE('',(#365),#65,.T.);
#401=ADVANCED_FACE('',(#366),#66,.T.);
#402=ADVANCED_FACE('',(#367),#67,.T.);
#403=ADVANCED_FACE('',(#368),#68,.F.);
#404=CLOSED_SHELL('',(#374,#375,#376,#377,#378,#379,#380,#381,#382,#383,
#384,#385));
#405=CLOSED_SHELL('',(#386,#387,#388,#389,#390,#391,#392,#393,#394,#395,
#396,#397,#398,#399,#400,#401,#402,#403));
#406=STYLED_ITEM('',(#408),#421);
#407=STYLED_ITEM('',(#409),#422);
#408=PRESENTATION_STYLE_ASSIGNMENT((#410));
#409=PRESENTATION_STYLE_ASSIGNMENT((#411));
#410=SURFACE_STYLE_USAGE(.BOTH.,#412);
#411=SURFACE_STYLE_USAGE(.BOTH.,#413);
#412=SURFACE_SIDE_STYLE('',(#414));
#413=SURFACE_SIDE_STYLE('',(#415));
#414=SURFACE_STYLE_FILL_AREA(#416);
#415=SURFACE_STYLE_FILL_AREA(#417);
#416=FILL_AREA_STYLE('',(#418));
#417=FILL_AREA_STYLE('',(#419));
#418=FILL_AREA_STYLE_COLOUR('',#420);
#419=FILL_AREA_STYLE_COLOUR('',#420);
#420=COLOUR_RGB('',0.689999997615814,0.689999997615814,0.689999997615814);
#421=MANIFOLD_SOLID_BREP('SSCC12-12_b',#404);
#422=MANIFOLD_SOLID_BREP(
'Hexagon socket set screw with flat point DIN 913 - M5x5',#405);
#423=SHAPE_DEFINITION_REPRESENTATION(#783,#426);
#424=SHAPE_DEFINITION_REPRESENTATION(#784,#427);
#425=SHAPE_DEFINITION_REPRESENTATION(#786,#428);
#426=SHAPE_REPRESENTATION('SSCC12-12',(#429,#452,#481,#482),#774);
#427=SHAPE_REPRESENTATION('SSCC12-12_b',(#429),#775);
#428=SHAPE_REPRESENTATION(
'Hexagon socket set screw with flat point DIN 913 - M5x5',(#429),#776);
#429=AXIS2_PLACEMENT_3D('',#603,#483,#484);
#430=AXIS2_PLACEMENT_3D('',#604,#485,#486);
#431=AXIS2_PLACEMENT_3D('',#605,#487,#488);
#432=AXIS2_PLACEMENT_3D('',#619,#489,#490);
#433=AXIS2_PLACEMENT_3D('',#633,#491,#492);
#434=AXIS2_PLACEMENT_3D('',#634,#493,#494);
#435=AXIS2_PLACEMENT_3D('',#650,#495,#496);
#436=AXIS2_PLACEMENT_3D('',#666,#497,#498);
#437=AXIS2_PLACEMENT_3D('',#667,#499,#500);
#438=AXIS2_PLACEMENT_3D('',#669,#501,#502);
#439=AXIS2_PLACEMENT_3D('',#670,#503,#504);
#440=AXIS2_PLACEMENT_3D('',#672,#505,#506);
#441=AXIS2_PLACEMENT_3D('',#673,#507,#508);
#442=AXIS2_PLACEMENT_3D('',#674,#509,#510);
#443=AXIS2_PLACEMENT_3D('',#676,#511,#512);
#444=AXIS2_PLACEMENT_3D('',#677,#513,#514);
#445=AXIS2_PLACEMENT_3D('',#679,#515,#516);
#446=AXIS2_PLACEMENT_3D('',#680,#517,#518);
#447=AXIS2_PLACEMENT_3D('',#681,#519,#520);
#448=AXIS2_PLACEMENT_3D('',#683,#521,#522);
#449=AXIS2_PLACEMENT_3D('',#684,#523,#524);
#450=AXIS2_PLACEMENT_3D('',#685,#525,#526);
#451=AXIS2_PLACEMENT_3D('',#687,#527,#528);
#452=AXIS2_PLACEMENT_3D('',#688,#529,#530);
#453=AXIS2_PLACEMENT_3D('',#689,#531,#532);
#454=AXIS2_PLACEMENT_3D('',#696,#533,#534);
#455=AXIS2_PLACEMENT_3D('',#697,#535,#536);
#456=AXIS2_PLACEMENT_3D('',#703,#537,#538);
#457=AXIS2_PLACEMENT_3D('',#704,#539,#540);
#458=AXIS2_PLACEMENT_3D('',#711,#541,#542);
#459=AXIS2_PLACEMENT_3D('',#712,#543,#544);
#460=AXIS2_PLACEMENT_3D('',#718,#545,#546);
#461=AXIS2_PLACEMENT_3D('',#719,#547,#548);
#462=AXIS2_PLACEMENT_3D('',#725,#549,#550);
#463=AXIS2_PLACEMENT_3D('',#726,#551,#552);
#464=AXIS2_PLACEMENT_3D('',#732,#553,#554);
#465=AXIS2_PLACEMENT_3D('',#733,#555,#556);
#466=AXIS2_PLACEMENT_3D('',#734,#557,#558);
#467=AXIS2_PLACEMENT_3D('',#736,#559,#560);
#468=AXIS2_PLACEMENT_3D('',#737,#561,#562);
#469=AXIS2_PLACEMENT_3D('',#739,#563,#564);
#470=AXIS2_PLACEMENT_3D('',#740,#565,#566);
#471=AXIS2_PLACEMENT_3D('',#742,#567,#568);
#472=AXIS2_PLACEMENT_3D('',#743,#569,#570);
#473=AXIS2_PLACEMENT_3D('',#745,#571,#572);
#474=AXIS2_PLACEMENT_3D('',#746,#573,#574);
#475=AXIS2_PLACEMENT_3D('',#752,#578,#579);
#476=AXIS2_PLACEMENT_3D('',#756,#582,#583);
#477=AXIS2_PLACEMENT_3D('',#760,#586,#587);
#478=AXIS2_PLACEMENT_3D('',#764,#590,#591);
#479=AXIS2_PLACEMENT_3D('',#768,#594,#595);
#480=AXIS2_PLACEMENT_3D('',#770,#597,#598);
#481=AXIS2_PLACEMENT_3D('',#771,#599,#600);
#482=AXIS2_PLACEMENT_3D('',#772,#601,#602);
#483=DIRECTION('',(0.,0.,1.));
#484=DIRECTION('',(1.,0.,0.));
#485=DIRECTION('',(1.,0.,0.));
#486=DIRECTION('',(0.,0.,-1.));
#487=DIRECTION('',(1.,0.,0.));
#488=DIRECTION('',(0.,0.,-1.));
#489=DIRECTION('',(1.,0.,0.));
#490=DIRECTION('',(0.,0.,-1.));
#491=DIRECTION('',(1.,0.,0.));
#492=DIRECTION('',(0.,0.,-1.));
#493=DIRECTION('',(1.,0.,0.));
#494=DIRECTION('',(0.,0.,-1.));
#495=DIRECTION('',(1.,0.,0.));
#496=DIRECTION('',(0.,0.,-1.));
#497=DIRECTION('',(1.,0.,0.));
#498=DIRECTION('',(0.,0.,-1.));
#499=DIRECTION('',(1.,0.,0.));
#500=DIRECTION('',(0.,0.,-1.));
#501=DIRECTION('',(-1.,0.,0.));
#502=DIRECTION('',(0.,0.,1.));
#503=DIRECTION('',(1.,0.,0.));
#504=DIRECTION('',(0.,0.,-1.));
#505=DIRECTION('',(-1.,0.,0.));
#506=DIRECTION('',(0.,0.,1.));
#507=DIRECTION('',(1.,0.,0.));
#508=DIRECTION('',(0.,0.,-1.));
#509=DIRECTION('',(1.,0.,0.));
#510=DIRECTION('',(0.,0.,-1.));
#511=DIRECTION('',(1.,0.,0.));
#512=DIRECTION('',(0.,0.,-1.));
#513=DIRECTION('',(1.,0.,0.));
#514=DIRECTION('',(0.,0.,-1.));
#515=DIRECTION('',(-1.,0.,0.));
#516=DIRECTION('',(0.,0.,1.));
#517=DIRECTION('',(0.,1.,0.));
#518=DIRECTION('',(0.,0.,1.));
#519=DIRECTION('',(0.,1.,0.));
#520=DIRECTION('',(0.,0.,1.));
#521=DIRECTION('',(0.,1.,0.));
#522=DIRECTION('',(0.,0.,1.));
#523=DIRECTION('',(0.,0.,1.));
#524=DIRECTION('',(1.,0.,0.));
#525=DIRECTION('',(0.,0.,1.));
#526=DIRECTION('',(1.,0.,0.));
#527=DIRECTION('',(0.,0.,1.));
#528=DIRECTION('',(1.,0.,0.));
#529=DIRECTION('',(0.,0.,1.));
#530=DIRECTION('',(1.,0.,0.));
#531=DIRECTION('',(-1.,-6.12323399573677E-17,0.));
#532=DIRECTION('',(6.12323399573677E-17,-1.,0.));
#533=DIRECTION('',(-1.,-6.12323399573677E-17,0.));
#534=DIRECTION('',(6.12323399573677E-17,-1.,0.));
#535=DIRECTION('',(-1.,-6.12323399573677E-17,0.));
#536=DIRECTION('',(6.12323399573677E-17,-1.,0.));
#537=DIRECTION('',(-1.,-6.12323399573677E-17,0.));
#538=DIRECTION('',(6.12323399573677E-17,-1.,0.));
#539=DIRECTION('',(-1.,-6.12323399573677E-17,0.));
#540=DIRECTION('',(6.12323399573677E-17,-1.,0.));
#541=DIRECTION('',(-1.,-6.12323399573677E-17,0.));
#542=DIRECTION('',(6.12323399573677E-17,-1.,0.));
#543=DIRECTION('',(-1.,-6.12323399573677E-17,0.));
#544=DIRECTION('',(6.12323399573677E-17,-1.,0.));
#545=DIRECTION('',(-1.,-6.12323399573677E-17,0.));
#546=DIRECTION('',(6.12323399573677E-17,-1.,0.));
#547=DIRECTION('',(-1.,-6.12323399573677E-17,0.));
#548=DIRECTION('',(6.12323399573677E-17,-1.,0.));
#549=DIRECTION('',(-1.,-6.12323399573677E-17,0.));
#550=DIRECTION('',(6.12323399573677E-17,-1.,0.));
#551=DIRECTION('',(-1.,-6.12323399573677E-17,0.));
#552=DIRECTION('',(6.12323399573677E-17,-1.,0.));
#553=DIRECTION('',(-1.,-6.12323399573677E-17,0.));
#554=DIRECTION('',(6.12323399573677E-17,-1.,0.));
#555=DIRECTION('',(-1.,-6.12323399573677E-17,0.));
#556=DIRECTION('',(6.12323399573677E-17,-1.,0.));
#557=DIRECTION('',(-1.,-6.12323399573677E-17,0.));
#558=DIRECTION('',(6.12323399573677E-17,-1.,0.));
#559=DIRECTION('',(-1.,-6.12323399573677E-17,0.));
#560=DIRECTION('',(6.12323399573677E-17,-1.,0.));
#561=DIRECTION('',(-1.,-6.12323399573677E-17,0.));
#562=DIRECTION('',(6.12323399573677E-17,-1.,0.));
#563=DIRECTION('',(-1.,-6.12323399573677E-17,0.));
#564=DIRECTION('',(6.12323399573677E-17,-1.,0.));
#565=DIRECTION('',(-1.,-6.12323399573677E-17,0.));
#566=DIRECTION('',(6.12323399573677E-17,-1.,0.));
#567=DIRECTION('',(1.,6.12323399573677E-17,0.));
#568=DIRECTION('',(-6.12323399573677E-17,1.,0.));
#569=DIRECTION('',(-1.,-6.12323399573677E-17,0.));
#570=DIRECTION('',(6.12323399573677E-17,-1.,0.));
#571=DIRECTION('',(1.,6.12323399573677E-17,0.));
#572=DIRECTION('',(-6.12323399573677E-17,1.,0.));
#573=DIRECTION('',(0.,-0.5,-0.866025403784439));
#574=DIRECTION('',(0.,0.866025403784439,-0.5));
#575=DIRECTION('',(-1.,0.,0.));
#576=DIRECTION('',(0.,-0.866025403784439,0.5));
#577=DIRECTION('',(-1.,0.,0.));
#578=DIRECTION('',(0.,0.5,-0.866025403784439));
#579=DIRECTION('',(0.,0.866025403784439,0.5));
#580=DIRECTION('',(0.,-0.866025403784439,-0.5));
#581=DIRECTION('',(-1.,0.,0.));
#582=DIRECTION('',(0.,1.,0.));
#583=DIRECTION('',(0.,0.,1.));
#584=DIRECTION('',(0.,0.,-1.));
#585=DIRECTION('',(-1.,0.,0.));
#586=DIRECTION('',(0.,0.5,0.866025403784439));
#587=DIRECTION('',(0.,-0.866025403784439,0.5));
#588=DIRECTION('',(0.,0.866025403784439,-0.5));
#589=DIRECTION('',(-1.,0.,0.));
#590=DIRECTION('',(0.,-0.5,0.866025403784439));
#591=DIRECTION('',(0.,-0.866025403784439,-0.5));
#592=DIRECTION('',(0.,0.866025403784439,0.5));
#593=DIRECTION('',(-1.,0.,0.));
#594=DIRECTION('',(0.,-1.,0.));
#595=DIRECTION('',(0.,0.,-1.));
#596=DIRECTION('',(0.,0.,1.));
#597=DIRECTION('',(1.,0.,0.));
#598=DIRECTION('',(0.,0.,-1.));
#599=DIRECTION('',(-1.,0.,0.));
#600=DIRECTION('',(0.,-1.,0.));
#601=DIRECTION('',(-1.,0.,0.));
#602=DIRECTION('',(0.,0.,-1.));
#603=CARTESIAN_POINT('',(0.,0.,0.));
#604=CARTESIAN_POINT('',(6.,0.,0.));
#605=CARTESIAN_POINT('',(5.5,0.,0.));
#606=CARTESIAN_POINT('',(5.5,0.,-6.));
#607=CARTESIAN_POINT('',(-1.61932834650586,5.82204929148184,1.61995028249234));
#608=CARTESIAN_POINT('',(-0.00012384365980563,5.53802189290294,2.29079743835646));
#609=CARTESIAN_POINT('',(1.61982372114508,5.8221705683404,1.61885996408181));
#610=CARTESIAN_POINT('',(2.29095011106288,6.0889860176695,0.00271811514326596));
#611=CARTESIAN_POINT('',(1.618373077941,5.8218844113115,-1.62146343157173));
#612=CARTESIAN_POINT('',(0.00150551613857618,5.53811852726961,-2.28999158110355));
#613=CARTESIAN_POINT('',(-1.61943360125949,5.82194927523904,-1.62056925155753));
#614=CARTESIAN_POINT('',(-2.29080951211841,6.08900035799586,0.000231100233744134));
#615=CARTESIAN_POINT('',(-1.61932834650586,5.82204929148184,1.61995028249234));
#616=CARTESIAN_POINT('',(-0.00012384365980563,5.53802189290294,2.29079743835646));
#617=CARTESIAN_POINT('',(1.61982372114508,5.8221705683404,1.61885996408181));
#618=CARTESIAN_POINT('',(0.,5.632717905239,2.067));
#619=CARTESIAN_POINT('',(-5.5,0.,0.));
#620=CARTESIAN_POINT('',(-5.5,0.,-6.));
#621=CARTESIAN_POINT('',(1.6191693825446,-1.62012504667498,5.8220290357592));
#622=CARTESIAN_POINT('',(2.29119649807,-0.000119309712318702,6.08901470305791));
#623=CARTESIAN_POINT('',(1.61804462517539,1.62060228552425,5.82191215200916));
#624=CARTESIAN_POINT('',(0.00285404015335019,2.29055648093402,5.53804945534378));
#625=CARTESIAN_POINT('',(-1.620719743972,1.6191687103566,5.82219858843668));
#626=CARTESIAN_POINT('',(-2.29036981042919,0.0014504483769302,6.08891509721911));
#627=CARTESIAN_POINT('',(-1.61980008603346,-1.62017206651947,5.82214070289518));
#628=CARTESIAN_POINT('',(0.000157095202693282,-2.29042572170134,5.53803442319492));
#629=CARTESIAN_POINT('',(1.6191693825446,-1.62012504667498,5.8220290357592));
#630=CARTESIAN_POINT('',(2.29119649807,-0.000119309712318702,6.08901470305791));
#631=CARTESIAN_POINT('',(1.61804462517539,1.62060228552425,5.82191215200916));
#632=CARTESIAN_POINT('',(2.067,0.,6.));
#633=CARTESIAN_POINT('',(6.,0.,0.));
#634=CARTESIAN_POINT('',(-4.26794919243112,0.,0.));
#635=CARTESIAN_POINT('',(-4.26794919243112,0.,-13.));
#636=CARTESIAN_POINT('',(-2.644150984905,13.0249772914363,-0.352865788280026));
#637=CARTESIAN_POINT('',(-1.86154415630044,12.8861439560563,-1.87960010470642));
#638=CARTESIAN_POINT('',(0.0421058138487234,12.7482731882798,-2.51670200678742));
#639=CARTESIAN_POINT('',(1.92102906940598,12.8952149282175,-1.82615792453328));
#640=CARTESIAN_POINT('',(2.65332245245386,13.0265049918089,-0.286674510130849));
#641=CARTESIAN_POINT('',(2.33912623141662,12.9731371403245,0.974247381754158));
#642=CARTESIAN_POINT('',(1.54273227549489,12.8613378401057,1.97636295704834));
#643=CARTESIAN_POINT('',(-0.0372406745134244,12.7497219650549,2.52144814445391));
#644=CARTESIAN_POINT('',(-1.60146313218984,12.8681594678195,1.93669016938499));
#645=CARTESIAN_POINT('',(-2.36748018747732,12.9776928626067,0.914645715438335));
#646=CARTESIAN_POINT('',(-2.644150984905,13.0249772914363,-0.352865788280026));
#647=CARTESIAN_POINT('',(-1.86154415630044,12.8861439560563,-1.87960010470642));
#648=CARTESIAN_POINT('',(0.0421058138487234,12.7482731882798,-2.51670200678742));
#649=CARTESIAN_POINT('',(-1.70079052699649,12.8909321618362,-1.68043689176798));
#650=CARTESIAN_POINT('',(5.5,0.,0.));
#651=CARTESIAN_POINT('',(5.5,0.,-13.));
#652=CARTESIAN_POINT('',(0.0433580092587396,-2.51964273875625,12.7488929256579));
#653=CARTESIAN_POINT('',(-1.86262972492138,-1.87709889948971,12.8860876295433));
#654=CARTESIAN_POINT('',(-2.64175684711372,-0.358335661492276,13.0246392109122));
#655=CARTESIAN_POINT('',(-2.37129257050745,0.907194850039982,12.9782675244397));
#656=CARTESIAN_POINT('',(-1.60365270871558,1.93697425465712,12.8684378394553));
#657=CARTESIAN_POINT('',(-0.0398442304080805,2.51869216732552,12.7490878108789));
#658=CARTESIAN_POINT('',(1.85916636553164,1.87732110633236,12.8857648522847));
#659=CARTESIAN_POINT('',(2.64166444464867,0.365360426326366,13.0245943266184));
#660=CARTESIAN_POINT('',(2.37189647936108,-0.906505254993598,12.9783717344447));
#661=CARTESIAN_POINT('',(1.60651249165952,-1.93399669488438,12.8688133680535));
#662=CARTESIAN_POINT('',(0.0433580092587396,-2.51964273875625,12.7488929256579));
#663=CARTESIAN_POINT('',(-1.86262972492138,-1.87709889948971,12.8860876295433));
#664=CARTESIAN_POINT('',(-2.64175684711372,-0.358335661492276,13.0246392109122));
#665=CARTESIAN_POINT('',(-1.70079052699649,-1.68043689176798,12.8909321618362));
#666=CARTESIAN_POINT('',(-4.26794919243112,0.,0.));
#667=CARTESIAN_POINT('',(-6.,0.,0.));
#668=CARTESIAN_POINT('',(-6.,0.,-10.));
#669=CARTESIAN_POINT('',(-6.,10.,0.));
#670=CARTESIAN_POINT('',(-6.,0.,0.));
#671=CARTESIAN_POINT('',(-6.,0.,-6.5));
#672=CARTESIAN_POINT('',(-6.,0.,0.));
#673=CARTESIAN_POINT('',(5.5,0.,0.));
#674=CARTESIAN_POINT('',(6.,0.,0.));
#675=CARTESIAN_POINT('',(6.,0.,-6.5));
#676=CARTESIAN_POINT('',(6.,6.5,0.));
#677=CARTESIAN_POINT('',(6.,0.,0.));
#678=CARTESIAN_POINT('',(6.,0.,-12.5));
#679=CARTESIAN_POINT('',(6.,0.,0.));
#680=CARTESIAN_POINT('',(0.,13.,0.));
#681=CARTESIAN_POINT('',(0.,12.567,0.));
#682=CARTESIAN_POINT('',(0.,12.567,2.067));
#683=CARTESIAN_POINT('',(0.,12.567,0.));
#684=CARTESIAN_POINT('',(0.,0.,13.));
#685=CARTESIAN_POINT('',(0.,0.,12.567));
#686=CARTESIAN_POINT('',(2.067,0.,12.567));
#687=CARTESIAN_POINT('',(0.,0.,12.567));
#688=CARTESIAN_POINT('',(0.,0.,0.));
#689=CARTESIAN_POINT('',(2.16840434497101E-16,2.22044604925031E-16,0.));
#690=CARTESIAN_POINT('',(2.78055270076169E-12,-1.25000000000035,0.721687836486832));
#691=CARTESIAN_POINT('',(0.136066883160422,-0.84179935052759,0.957362591343308));
#692=CARTESIAN_POINT('',(0.136236267821635,-0.408708803460353,1.20740753527606));
#693=CARTESIAN_POINT('',(1.41631195973282E-12,2.03403022344568E-13,1.44337567297418));
#694=CARTESIAN_POINT('',(0.,-1.25,0.721687836487032));
#695=CARTESIAN_POINT('',(0.,0.,1.44337567297406));
#696=CARTESIAN_POINT('',(2.16840434497101E-16,2.22044604925031E-16,0.));
#697=CARTESIAN_POINT('',(2.16840434497101E-16,2.22044604925031E-16,0.));
#698=CARTESIAN_POINT('',(2.78072536809712E-12,-3.46150097227137E-13,1.44337567297426));
#699=CARTESIAN_POINT('',(0.136066883160423,0.40820064947241,1.20770091811779));
#700=CARTESIAN_POINT('',(0.136236267821635,0.841291196539647,0.957655974185037));
#701=CARTESIAN_POINT('',(1.41609567568068E-12,1.2500000000002,0.721687836486915));
#702=CARTESIAN_POINT('',(1.40300009550391E-16,1.25,0.721687836487032));
#703=CARTESIAN_POINT('',(2.16840434497101E-16,2.22044604925031E-16,0.));
#704=CARTESIAN_POINT('',(2.16840434497101E-16,2.22044604925031E-16,0.));
#705=CARTESIAN_POINT('',(9.64145057135828E-17,-1.25,-0.721687836487032));
#706=CARTESIAN_POINT('',(0.0677608299987836,-1.25,-0.486957435845172));
#707=CARTESIAN_POINT('',(0.155474103519471,-1.25,0.00349447753964616));
#708=CARTESIAN_POINT('',(0.0678704283218824,-1.25,0.486577776117134));
#709=CARTESIAN_POINT('',(7.0394114443786E-15,-1.25,0.721687836487034));
#710=CARTESIAN_POINT('',(0.,-1.25,-0.721687836487032));
#711=CARTESIAN_POINT('',(2.16840434497101E-16,2.22044604925031E-16,0.));
#712=CARTESIAN_POINT('',(2.16840434497101E-16,2.22044604925031E-16,0.));
#713=CARTESIAN_POINT('',(2.78072536664955E-12,3.4615010136304E-13,-1.44337567297426));
#714=CARTESIAN_POINT('',(0.136066883160422,-0.40820064947241,-1.20770091811779));
#715=CARTESIAN_POINT('',(0.136236267821635,-0.841291196539647,-0.957655974185037));
#716=CARTESIAN_POINT('',(1.41616048993457E-12,-1.2500000000002,-0.721687836486915));
#717=CARTESIAN_POINT('',(0.,0.,-1.44337567297406));
#718=CARTESIAN_POINT('',(2.16840434497101E-16,2.22044604925031E-16,0.));
#719=CARTESIAN_POINT('',(2.16840434497101E-16,2.22044604925031E-16,0.));
#720=CARTESIAN_POINT('',(2.78052874437038E-12,1.25000000000035,-0.721687836486832));
#721=CARTESIAN_POINT('',(0.136066883160422,0.841799350527591,-0.957362591343308));
#722=CARTESIAN_POINT('',(0.136236267821635,0.408708803460353,-1.20740753527606));
#723=CARTESIAN_POINT('',(1.41628270855841E-12,-2.03490777522164E-13,-1.44337567297418));
#724=CARTESIAN_POINT('',(0.,1.25,-0.721687836487032));
#725=CARTESIAN_POINT('',(2.16840434497101E-16,2.22044604925031E-16,0.));
#726=CARTESIAN_POINT('',(2.16840434497101E-16,2.22044604925031E-16,0.));
#727=CARTESIAN_POINT('',(4.34591596519652E-16,1.25,0.721687836487032));
#728=CARTESIAN_POINT('',(0.0677608299987839,1.25,0.486957435845171));
#729=CARTESIAN_POINT('',(0.155474103519471,1.25,-0.00349447753964757));
#730=CARTESIAN_POINT('',(0.0678704283218826,1.25,-0.486577776117135));
#731=CARTESIAN_POINT('',(7.13969509953177E-15,1.25,-0.721687836487034));
#732=CARTESIAN_POINT('',(2.16840434497101E-16,2.22044604925031E-16,0.));
#733=CARTESIAN_POINT('',(5.,5.2820630471187E-16,0.));
#734=CARTESIAN_POINT('',(5.,5.2820630471187E-16,0.));
#735=CARTESIAN_POINT('',(5.,-1.75,0.));
#736=CARTESIAN_POINT('',(5.,5.2820630471187E-16,0.));
#737=CARTESIAN_POINT('',(4.25,4.82282049743844E-16,0.));
#738=CARTESIAN_POINT('',(4.25,-2.5,0.));
#739=CARTESIAN_POINT('',(0.833333333333333,2.73071554889504E-16,0.));
#740=CARTESIAN_POINT('',(0.283190307037512,2.39385010078184E-16,0.));
#741=CARTESIAN_POINT('',(0.283190307037512,-2.5,0.));
#742=CARTESIAN_POINT('',(0.283190307037512,2.39385010078184E-16,0.));
#743=CARTESIAN_POINT('',(2.16840434497101E-16,2.22044604925031E-16,0.));
#744=CARTESIAN_POINT('',(3.39886821641431E-16,-2.0095,0.));
#745=CARTESIAN_POINT('',(3.35175821907506E-16,-2.0095,0.));
#746=CARTESIAN_POINT('',(2.,1.25,0.721687836487032));
#747=CARTESIAN_POINT('',(2.,1.25,0.721687836487032));
#748=CARTESIAN_POINT('',(2.,1.25,0.721687836487032));
#749=CARTESIAN_POINT('',(2.,1.25,0.721687836487032));
#750=CARTESIAN_POINT('',(2.,0.,1.44337567297406));
#751=CARTESIAN_POINT('',(2.,0.,1.44337567297406));
#752=CARTESIAN_POINT('',(2.,0.,1.44337567297406));
#753=CARTESIAN_POINT('',(2.,0.,1.44337567297406));
#754=CARTESIAN_POINT('',(2.,-1.25,0.721687836487032));
#755=CARTESIAN_POINT('',(2.,-1.25,0.721687836487032));
#756=CARTESIAN_POINT('',(2.,-1.25,0.721687836487032));
#757=CARTESIAN_POINT('',(2.,-1.25,0.721687836487032));
#758=CARTESIAN_POINT('',(2.,-1.25,-0.721687836487032));
#759=CARTESIAN_POINT('',(2.,-1.25,-0.721687836487032));
#760=CARTESIAN_POINT('',(2.,-1.25,-0.721687836487032));
#761=CARTESIAN_POINT('',(2.,-1.25,-0.721687836487032));
#762=CARTESIAN_POINT('',(2.,0.,-1.44337567297406));
#763=CARTESIAN_POINT('',(2.,0.,-1.44337567297406));
#764=CARTESIAN_POINT('',(2.,0.,-1.44337567297406));
#765=CARTESIAN_POINT('',(2.,0.,-1.44337567297406));
#766=CARTESIAN_POINT('',(2.,1.25,-0.721687836487032));
#767=CARTESIAN_POINT('',(2.,1.25,-0.721687836487032));
#768=CARTESIAN_POINT('',(2.,1.25,-0.721687836487032));
#769=CARTESIAN_POINT('',(2.,1.25,-0.721687836487032));
#770=CARTESIAN_POINT('',(2.,0.,0.));
#771=CARTESIAN_POINT('',(0.,13.,0.));
#772=CARTESIAN_POINT('',(0.,0.,13.));
#773=MECHANICAL_DESIGN_GEOMETRIC_PRESENTATION_REPRESENTATION('',(#406,#407),
#774);
#774=(
GEOMETRIC_REPRESENTATION_CONTEXT(3)
GLOBAL_UNCERTAINTY_ASSIGNED_CONTEXT((#777))
GLOBAL_UNIT_ASSIGNED_CONTEXT((#782,#781,#780))
REPRESENTATION_CONTEXT('SSCC12-12','TOP_LEVEL_ASSEMBLY_PART')
);
#775=(
GEOMETRIC_REPRESENTATION_CONTEXT(3)
GLOBAL_UNCERTAINTY_ASSIGNED_CONTEXT((#778))
GLOBAL_UNIT_ASSIGNED_CONTEXT((#782,#781,#780))
REPRESENTATION_CONTEXT('SSCC12-12_b','COMPONENT_PART')
);
#776=(
GEOMETRIC_REPRESENTATION_CONTEXT(3)
GLOBAL_UNCERTAINTY_ASSIGNED_CONTEXT((#779))
GLOBAL_UNIT_ASSIGNED_CONTEXT((#782,#781,#780))
REPRESENTATION_CONTEXT(
'Hexagon socket set screw with flat point DIN 913 - M5x5',
'COMPONENT_PART')
);
#777=UNCERTAINTY_MEASURE_WITH_UNIT(LENGTH_MEASURE(0.005),#782,
'DISTANCE_ACCURACY_VALUE','Maximum Tolerance applied to model');
#778=UNCERTAINTY_MEASURE_WITH_UNIT(LENGTH_MEASURE(0.005),#782,
'DISTANCE_ACCURACY_VALUE','Maximum Tolerance applied to model');
#779=UNCERTAINTY_MEASURE_WITH_UNIT(LENGTH_MEASURE(0.005),#782,
'DISTANCE_ACCURACY_VALUE','Maximum Tolerance applied to model');
#780=(
NAMED_UNIT(*)
SI_UNIT($,.STERADIAN.)
SOLID_ANGLE_UNIT()
);
#781=(
NAMED_UNIT(*)
PLANE_ANGLE_UNIT()
SI_UNIT($,.RADIAN.)
);
#782=(
LENGTH_UNIT()
NAMED_UNIT(*)
SI_UNIT(.MILLI.,.METRE.)
);
#783=PRODUCT_DEFINITION_SHAPE('','',#789);
#784=PRODUCT_DEFINITION_SHAPE('','',#790);
#785=PRODUCT_DEFINITION_SHAPE(' ','NAUO PRDDFN',#45);
#786=PRODUCT_DEFINITION_SHAPE('','',#791);
#787=PRODUCT_DEFINITION_SHAPE(' ','NAUO PRDDFN',#46);
#788=PRODUCT_DEFINITION_SHAPE(' ','NAUO PRDDFN',#47);
#789=PRODUCT_DEFINITION('','',#795,#792);
#790=PRODUCT_DEFINITION('','',#796,#793);
#791=PRODUCT_DEFINITION('','',#797,#794);
#792=DESIGN_CONTEXT('',#811,'design');
#793=DESIGN_CONTEXT('',#811,'design');
#794=DESIGN_CONTEXT('',#811,'design');
#795=PRODUCT_DEFINITION_FORMATION_WITH_SPECIFIED_SOURCE('','',#801,
 .NOT_KNOWN.);
#796=PRODUCT_DEFINITION_FORMATION_WITH_SPECIFIED_SOURCE('','',#802,
 .NOT_KNOWN.);
#797=PRODUCT_DEFINITION_FORMATION_WITH_SPECIFIED_SOURCE('','',#803,
 .NOT_KNOWN.);
#798=PRODUCT_RELATED_PRODUCT_CATEGORY('','',(#801));
#799=PRODUCT_RELATED_PRODUCT_CATEGORY('','',(#802));
#800=PRODUCT_RELATED_PRODUCT_CATEGORY('','',(#803));
#801=PRODUCT('SSCC12-12','SSCC12-12','SSCC12-12',(#807));
#802=PRODUCT('SSCC12-12_b','SSCC12-12_b','SSCC12-12_b',(#808));
#803=PRODUCT('Hexagon socket set screw with flat point DIN 913 - M5x5',
'Hexagon socket set screw with flat point DIN 913 - M5x5',
'Hexagon socket set screw with flat point DIN 913 - M5x5',(#809));
#804=PRODUCT_CATEGORY('','');
#805=PRODUCT_CATEGORY('','');
#806=PRODUCT_CATEGORY('','');
#807=MECHANICAL_CONTEXT('',#811,'mechanical');
#808=MECHANICAL_CONTEXT('',#811,'mechanical');
#809=MECHANICAL_CONTEXT('',#811,'mechanical');
#810=APPLICATION_PROTOCOL_DEFINITION('international standard',
'config_control_design',2010,#811);
#811=APPLICATION_CONTEXT(
'configuration controlled 3D designs of mechanical parts and assemblie
s');
ENDSEC;
END-ISO-10303-21;
