G04 #@! TF.GenerationSoftware,KiCad,Pcbnew,5.1.9+dfsg1-1+deb11u1*
G04 #@! TF.CreationDate,2024-02-29T23:07:26+09:00*
G04 #@! TF.ProjectId,spacer,73706163-6572-42e6-9b69-6361645f7063,rev?*
G04 #@! TF.SameCoordinates,Original*
G04 #@! TF.FileFunction,Profile,NP*
%FSLAX46Y46*%
G04 Gerber Fmt 4.6, Leading zero omitted, Abs format (unit mm)*
G04 Created by KiCad (PCBNEW 5.1.9+dfsg1-1+deb11u1) date 2024-02-29 23:07:26*
%MOMM*%
%LPD*%
G01*
G04 APERTURE LIST*
G04 #@! TA.AperFunction,Profile*
%ADD10C,0.050000*%
G04 #@! TD*
G04 APERTURE END LIST*
D10*
X125750000Y-65000000D02*
G75*
G03*
X125750000Y-65000000I-1250000J0D01*
G01*
X126799040Y-78481310D02*
G75*
G03*
X126799040Y-78481310I-1250000J0D01*
G01*
X145449700Y-99120800D02*
G75*
G03*
X145449700Y-99120800I-1250000J0D01*
G01*
X134299000Y-91471700D02*
G75*
G03*
X134299000Y-91471700I-1250000J0D01*
G01*
X138949700Y-110379200D02*
G75*
G03*
X138949700Y-110379200I-1250000J0D01*
G01*
X126750000Y-104546999D02*
G75*
G03*
X126750000Y-104546999I-1250000J0D01*
G01*
X112750000Y-65000000D02*
G75*
G03*
X112750000Y-65000000I-1250000J0D01*
G01*
X111700960Y-78481310D02*
G75*
G03*
X111700960Y-78481310I-1250000J0D01*
G01*
X102988912Y-96999999D02*
G75*
G02*
X102122888Y-97000000I-433012J249999D01*
G01*
X115257590Y-75750000D02*
X102988900Y-97000000D01*
X114824570Y-75000000D02*
G75*
G02*
X115257583Y-75750000I0J-500000D01*
G01*
X114207110Y-75000000D02*
X114824570Y-75000000D01*
X113971407Y-75166668D02*
G75*
G02*
X114207110Y-75000000I235703J-83332D01*
G01*
X113971404Y-75166667D02*
G75*
G02*
X113028595Y-75166664I-471404J166667D01*
G01*
X112792890Y-74999999D02*
G75*
G02*
X113028593Y-75166666I0J-250001D01*
G01*
X111750000Y-75000000D02*
X112792890Y-75000000D01*
X111750000Y-75000000D02*
G75*
G02*
X111500000Y-74750000I0J250000D01*
G01*
X111500000Y-68250000D02*
X111500000Y-74750000D01*
X111500000Y-68250000D02*
G75*
G02*
X111750000Y-68000000I250000J0D01*
G01*
X112792890Y-68000000D02*
X111750000Y-68000000D01*
X113028592Y-67833333D02*
G75*
G02*
X112792890Y-68000000I-235702J83333D01*
G01*
X113028595Y-67833335D02*
G75*
G02*
X113971405Y-67833334I471405J-166665D01*
G01*
X114207111Y-68000000D02*
G75*
G02*
X113971408Y-67833333I-1J250000D01*
G01*
X118000000Y-68000000D02*
X114207110Y-68000000D01*
X121792890Y-68000000D02*
X118000000Y-68000000D01*
X122028592Y-67833333D02*
G75*
G02*
X121792890Y-68000000I-235702J83333D01*
G01*
X122028596Y-67833335D02*
G75*
G02*
X122971404Y-67833334I471404J-166665D01*
G01*
X123207110Y-68000001D02*
G75*
G02*
X122971407Y-67833333I0J250001D01*
G01*
X124250000Y-68000000D02*
X123207110Y-68000000D01*
X124250000Y-68000000D02*
G75*
G02*
X124500000Y-68250000I0J-250000D01*
G01*
X124500000Y-74750000D02*
X124500000Y-68250000D01*
X124500000Y-74750000D02*
G75*
G02*
X124250000Y-75000000I-250000J0D01*
G01*
X123207110Y-75000000D02*
X124250000Y-75000000D01*
X122971407Y-75166668D02*
G75*
G02*
X123207110Y-75000000I235703J-83332D01*
G01*
X122971405Y-75166668D02*
G75*
G02*
X122028594Y-75166664I-471405J166668D01*
G01*
X121792889Y-75000000D02*
G75*
G02*
X122028592Y-75166666I1J-250000D01*
G01*
X121175430Y-75000000D02*
X121792890Y-75000000D01*
X120742417Y-75750000D02*
G75*
G02*
X121175430Y-75000000I433013J250000D01*
G01*
X133011100Y-97000000D02*
X120742410Y-75750000D01*
X133877113Y-97000000D02*
G75*
G02*
X133011087Y-97000000I-433013J250000D01*
G01*
X133877100Y-97000000D02*
X134185900Y-96465300D01*
X134159420Y-96177843D02*
G75*
G02*
X134185906Y-96465300I-190020J-162457D01*
G01*
X134159362Y-96177817D02*
G75*
G02*
X134630764Y-95361318I380038J324917D01*
G01*
X134893006Y-95240501D02*
G75*
G02*
X134630816Y-95361290I-216506J125001D01*
G01*
X134893000Y-95240500D02*
X135414400Y-94337300D01*
X135414393Y-94337300D02*
G75*
G02*
X135755900Y-94245793I216507J-125000D01*
G01*
X135755900Y-94245800D02*
X141385100Y-97495800D01*
X141385100Y-97495794D02*
G75*
G02*
X141476606Y-97837300I-125000J-216506D01*
G01*
X141476600Y-97837300D02*
X140955200Y-98740500D01*
X140981680Y-99027959D02*
G75*
G02*
X140955193Y-98740500I190020J162459D01*
G01*
X140981640Y-99027985D02*
G75*
G02*
X140510233Y-99844481I-380040J-324915D01*
G01*
X140247993Y-99965300D02*
G75*
G02*
X140510182Y-99844509I216507J-125000D01*
G01*
X140248000Y-99965300D02*
X138351600Y-103250000D01*
X138351600Y-103250000D02*
X136455200Y-106534700D01*
X136481680Y-106822159D02*
G75*
G02*
X136455193Y-106534700I190020J162459D01*
G01*
X136481640Y-106822185D02*
G75*
G02*
X136010233Y-107638681I-380040J-324915D01*
G01*
X135747993Y-107759500D02*
G75*
G02*
X136010182Y-107638709I216507J-125000D01*
G01*
X135748000Y-107759500D02*
X135226600Y-108662700D01*
X135226606Y-108662700D02*
G75*
G02*
X134885100Y-108754206I-216506J125000D01*
G01*
X134885100Y-108754200D02*
X129255900Y-105504200D01*
X129255900Y-105504207D02*
G75*
G02*
X129164393Y-105162700I125000J216507D01*
G01*
X129164400Y-105162700D02*
X129685900Y-104259500D01*
X129659420Y-103972043D02*
G75*
G02*
X129685906Y-104259500I-190020J-162457D01*
G01*
X129659362Y-103972017D02*
G75*
G02*
X130130764Y-103155518I380038J324917D01*
G01*
X130393006Y-103034701D02*
G75*
G02*
X130130816Y-103155490I-216506J125001D01*
G01*
X130393000Y-103034700D02*
X130701700Y-102500000D01*
X130268700Y-101750001D02*
G75*
G02*
X130701712Y-102500000I0J-499999D01*
G01*
X105731300Y-101750000D02*
X130268700Y-101750000D01*
X105298287Y-102500000D02*
G75*
G02*
X105731300Y-101750000I433013J250000D01*
G01*
X105298300Y-102500000D02*
X105607000Y-103034700D01*
X105869183Y-103155491D02*
G75*
G02*
X105606994Y-103034700I-45683J245791D01*
G01*
X105869233Y-103155519D02*
G75*
G02*
X106340640Y-103972015I91367J-491581D01*
G01*
X106314093Y-104259499D02*
G75*
G02*
X106340581Y-103972041I216507J124999D01*
G01*
X106314100Y-104259500D02*
X106835600Y-105162700D01*
X106835606Y-105162700D02*
G75*
G02*
X106744100Y-105504206I-216506J-125000D01*
G01*
X106744100Y-105504200D02*
X101114900Y-108754200D01*
X101114900Y-108754206D02*
G75*
G02*
X100773394Y-108662700I-125000J216506D01*
G01*
X100773400Y-108662700D02*
X100252000Y-107759500D01*
X99989817Y-107638708D02*
G75*
G02*
X100252007Y-107759500I45683J-245792D01*
G01*
X99989764Y-107638682D02*
G75*
G02*
X99518362Y-106822183I-91364J491582D01*
G01*
X99544806Y-106534700D02*
G75*
G02*
X99518320Y-106822157I-216506J-125000D01*
G01*
X99544800Y-106534700D02*
X97648400Y-103250000D01*
X97648400Y-103250000D02*
X95752000Y-99965300D01*
X95489817Y-99844508D02*
G75*
G02*
X95752007Y-99965300I45683J-245792D01*
G01*
X95489764Y-99844482D02*
G75*
G02*
X95018362Y-99027983I-91364J491582D01*
G01*
X95044806Y-98740500D02*
G75*
G02*
X95018320Y-99027957I-216506J-125000D01*
G01*
X95044800Y-98740500D02*
X94523400Y-97837300D01*
X94523393Y-97837300D02*
G75*
G02*
X94614900Y-97495793I216507J125000D01*
G01*
X94614900Y-97495800D02*
X100244100Y-94245800D01*
X100244100Y-94245793D02*
G75*
G02*
X100585607Y-94337300I125000J-216507D01*
G01*
X100585600Y-94337300D02*
X101107000Y-95240500D01*
X101369183Y-95361291D02*
G75*
G02*
X101106994Y-95240500I-45683J245791D01*
G01*
X101369233Y-95361319D02*
G75*
G02*
X101840640Y-96177815I91367J-491581D01*
G01*
X101814093Y-96465299D02*
G75*
G02*
X101840581Y-96177841I216507J124999D01*
G01*
X101814100Y-96465300D02*
X102122900Y-97000000D01*
X111750000Y-104546999D02*
G75*
G03*
X111750000Y-104546999I-1250000J0D01*
G01*
X104201000Y-91471700D02*
G75*
G03*
X104201000Y-91471700I-1250000J0D01*
G01*
X93050300Y-99120800D02*
G75*
G03*
X93050300Y-99120800I-1250000J0D01*
G01*
X99550300Y-110379200D02*
G75*
G03*
X99550300Y-110379200I-1250000J0D01*
G01*
X125320510Y-108047000D02*
X110679490Y-108047000D01*
X125320510Y-108046999D02*
G75*
G02*
X127820510Y-108716872I0J-5000001D01*
G01*
X127820510Y-108716900D02*
X135949700Y-113410300D01*
X140730788Y-112129200D02*
G75*
G02*
X135949700Y-113410288I-3031088J1750000D01*
G01*
X140730800Y-112129200D02*
X143980800Y-106500000D01*
X147230800Y-100870800D02*
X143980800Y-106500000D01*
X145949700Y-96089712D02*
G75*
G02*
X147230788Y-100870800I-1750000J-3031088D01*
G01*
X145949700Y-96089700D02*
X137820500Y-91396400D01*
X137820499Y-91396328D02*
G75*
G02*
X135990372Y-89566200I2500001J4330128D01*
G01*
X128669900Y-76886750D02*
X135990400Y-89566200D01*
X128669872Y-76886749D02*
G75*
G02*
X128000000Y-74386749I4330128J2499999D01*
G01*
X128000000Y-74386750D02*
X128000000Y-65000000D01*
X124500001Y-61500000D02*
G75*
G02*
X128000000Y-65000001I-1J-3500000D01*
G01*
X124500000Y-61500000D02*
X118000000Y-61500000D01*
X111500000Y-61500000D02*
X118000000Y-61500000D01*
X108000000Y-65000000D02*
G75*
G02*
X111500000Y-61500000I3500000J0D01*
G01*
X108000000Y-74386750D02*
X108000000Y-65000000D01*
X108000000Y-74386749D02*
G75*
G02*
X107330128Y-76886749I-5000000J-1D01*
G01*
X107330100Y-76886750D02*
X100009600Y-89566200D01*
X100009627Y-89566200D02*
G75*
G02*
X98179500Y-91396327I-4330127J2500000D01*
G01*
X98179500Y-91396400D02*
X90050300Y-96089700D01*
X88769211Y-100870800D02*
G75*
G02*
X90050300Y-96089711I3031089J1750000D01*
G01*
X88769200Y-100870800D02*
X92019200Y-106500000D01*
X95269200Y-112129200D02*
X92019200Y-106500000D01*
X100050300Y-113410288D02*
G75*
G02*
X95269212Y-112129200I-1750000J3031088D01*
G01*
X108179490Y-108716900D02*
X100050300Y-113410300D01*
X108179490Y-108716873D02*
G75*
G02*
X110679490Y-108047000I2500000J-4330127D01*
G01*
M02*
