G04 #@! TF.GenerationSoftware,KiCad,Pcbnew,5.1.9+dfsg1-1+deb11u1*
G04 #@! TF.CreationDate,2024-03-01T00:01:44+09:00*
G04 #@! TF.ProjectId,outer,6f757465-722e-46b6-9963-61645f706362,rev?*
G04 #@! TF.SameCoordinates,Original*
G04 #@! TF.FileFunction,Legend,Top*
G04 #@! TF.FilePolarity,Positive*
%FSLAX46Y46*%
G04 Gerber Fmt 4.6, Leading zero omitted, Abs format (unit mm)*
G04 Created by KiCad (PCBNEW 5.1.9+dfsg1-1+deb11u1) date 2024-03-01 00:01:44*
%MOMM*%
%LPD*%
G01*
G04 APERTURE LIST*
%ADD10C,0.150000*%
G04 APERTURE END LIST*
D10*
X116285714Y-98627380D02*
X116857142Y-98627380D01*
X116571428Y-99627380D02*
X116571428Y-98627380D01*
X117333333Y-99627380D02*
X117238095Y-99579761D01*
X117190476Y-99532142D01*
X117142857Y-99436904D01*
X117142857Y-99151190D01*
X117190476Y-99055952D01*
X117238095Y-99008333D01*
X117333333Y-98960714D01*
X117476190Y-98960714D01*
X117571428Y-99008333D01*
X117619047Y-99055952D01*
X117666666Y-99151190D01*
X117666666Y-99436904D01*
X117619047Y-99532142D01*
X117571428Y-99579761D01*
X117476190Y-99627380D01*
X117333333Y-99627380D01*
X118238095Y-99627380D02*
X118142857Y-99579761D01*
X118095238Y-99532142D01*
X118047619Y-99436904D01*
X118047619Y-99151190D01*
X118095238Y-99055952D01*
X118142857Y-99008333D01*
X118238095Y-98960714D01*
X118380952Y-98960714D01*
X118476190Y-99008333D01*
X118523809Y-99055952D01*
X118571428Y-99151190D01*
X118571428Y-99436904D01*
X118523809Y-99532142D01*
X118476190Y-99579761D01*
X118380952Y-99627380D01*
X118238095Y-99627380D01*
X119142857Y-99627380D02*
X119047619Y-99579761D01*
X119000000Y-99484523D01*
X119000000Y-98627380D01*
X120285714Y-98960714D02*
X120285714Y-99960714D01*
X120285714Y-99008333D02*
X120380952Y-98960714D01*
X120571428Y-98960714D01*
X120666666Y-99008333D01*
X120714285Y-99055952D01*
X120761904Y-99151190D01*
X120761904Y-99436904D01*
X120714285Y-99532142D01*
X120666666Y-99579761D01*
X120571428Y-99627380D01*
X120380952Y-99627380D01*
X120285714Y-99579761D01*
X121333333Y-99627380D02*
X121238095Y-99579761D01*
X121190476Y-99484523D01*
X121190476Y-98627380D01*
X122142857Y-99627380D02*
X122142857Y-99103571D01*
X122095238Y-99008333D01*
X122000000Y-98960714D01*
X121809523Y-98960714D01*
X121714285Y-99008333D01*
X122142857Y-99579761D02*
X122047619Y-99627380D01*
X121809523Y-99627380D01*
X121714285Y-99579761D01*
X121666666Y-99484523D01*
X121666666Y-99389285D01*
X121714285Y-99294047D01*
X121809523Y-99246428D01*
X122047619Y-99246428D01*
X122142857Y-99198809D01*
X122476190Y-98960714D02*
X122857142Y-98960714D01*
X122619047Y-98627380D02*
X122619047Y-99484523D01*
X122666666Y-99579761D01*
X122761904Y-99627380D01*
X122857142Y-99627380D01*
X123571428Y-99579761D02*
X123476190Y-99627380D01*
X123285714Y-99627380D01*
X123190476Y-99579761D01*
X123142857Y-99484523D01*
X123142857Y-99103571D01*
X123190476Y-99008333D01*
X123285714Y-98960714D01*
X123476190Y-98960714D01*
X123571428Y-99008333D01*
X123619047Y-99103571D01*
X123619047Y-99198809D01*
X123142857Y-99294047D01*
X118785714Y-101277380D02*
X118452380Y-100801190D01*
X118214285Y-101277380D02*
X118214285Y-100277380D01*
X118595238Y-100277380D01*
X118690476Y-100325000D01*
X118738095Y-100372619D01*
X118785714Y-100467857D01*
X118785714Y-100610714D01*
X118738095Y-100705952D01*
X118690476Y-100753571D01*
X118595238Y-100801190D01*
X118214285Y-100801190D01*
X119595238Y-101229761D02*
X119500000Y-101277380D01*
X119309523Y-101277380D01*
X119214285Y-101229761D01*
X119166666Y-101134523D01*
X119166666Y-100753571D01*
X119214285Y-100658333D01*
X119309523Y-100610714D01*
X119500000Y-100610714D01*
X119595238Y-100658333D01*
X119642857Y-100753571D01*
X119642857Y-100848809D01*
X119166666Y-100944047D01*
X119976190Y-100610714D02*
X120214285Y-101277380D01*
X120452380Y-100610714D01*
X120833333Y-101182142D02*
X120880952Y-101229761D01*
X120833333Y-101277380D01*
X120785714Y-101229761D01*
X120833333Y-101182142D01*
X120833333Y-101277380D01*
X121833333Y-101277380D02*
X121261904Y-101277380D01*
X121547619Y-101277380D02*
X121547619Y-100277380D01*
X121452380Y-100420238D01*
X121357142Y-100515476D01*
X121261904Y-100563095D01*
X144140918Y-99119108D02*
X143108226Y-98907784D01*
X143807585Y-99696459D01*
X142571657Y-100027625D02*
X142554227Y-99962576D01*
X142584417Y-99815048D01*
X142632036Y-99732570D01*
X142744704Y-99632661D01*
X142874801Y-99597802D01*
X142981089Y-99604182D01*
X143169856Y-99658180D01*
X143293574Y-99729609D01*
X143434722Y-99866086D01*
X143493391Y-99954945D01*
X143528250Y-100085042D01*
X143498061Y-100232570D01*
X143450442Y-100315048D01*
X143337774Y-100414957D01*
X143272725Y-100432387D01*
X142071657Y-100893650D02*
X142054227Y-100828601D01*
X142084417Y-100681074D01*
X142132036Y-100598595D01*
X142244704Y-100498687D01*
X142374801Y-100463827D01*
X142481089Y-100470207D01*
X142669856Y-100524206D01*
X142793574Y-100595634D01*
X142934722Y-100732112D01*
X142993391Y-100820970D01*
X143028250Y-100951068D01*
X142998061Y-101098595D01*
X142950442Y-101181074D01*
X142837774Y-101280982D01*
X142772725Y-101298412D01*
X96947939Y-100909828D02*
X96954319Y-101016117D01*
X97025747Y-101139834D01*
X97138415Y-101239743D01*
X97268513Y-101274602D01*
X97374801Y-101268223D01*
X97563568Y-101214224D01*
X97687286Y-101142795D01*
X97828434Y-101006318D01*
X97887103Y-100917460D01*
X97921962Y-100787362D01*
X97891773Y-100639834D01*
X97844154Y-100557356D01*
X97731486Y-100457447D01*
X97666437Y-100440018D01*
X97377762Y-100606684D01*
X97473000Y-100771642D01*
X97534630Y-100021245D02*
X96668605Y-100521245D01*
X97248916Y-99526373D01*
X96382890Y-100026373D01*
X97010821Y-99113980D02*
X96144795Y-99613980D01*
X96025747Y-99407784D01*
X95995558Y-99260256D01*
X96030418Y-99130159D01*
X96089087Y-99041300D01*
X96230235Y-98904823D01*
X96353952Y-98833394D01*
X96542719Y-98779395D01*
X96649007Y-98773016D01*
X96779105Y-98807875D01*
X96891773Y-98907784D01*
X97010821Y-99113980D01*
X119500000Y-60952380D02*
X119500000Y-59952380D01*
X119976190Y-60952380D02*
X119976190Y-59952380D01*
X120214285Y-59952380D01*
X120357142Y-60000000D01*
X120452380Y-60095238D01*
X120500000Y-60190476D01*
X120547619Y-60380952D01*
X120547619Y-60523809D01*
X120500000Y-60714285D01*
X120452380Y-60809523D01*
X120357142Y-60904761D01*
X120214285Y-60952380D01*
X119976190Y-60952380D01*
%LPC*%
M02*
