G04 #@! TF.GenerationSoftware,KiCad,Pcbnew,5.1.9+dfsg1-1+deb11u1*
G04 #@! TF.CreationDate,2024-03-01T00:01:44+09:00*
G04 #@! TF.ProjectId,outer,6f757465-722e-46b6-9963-61645f706362,rev?*
G04 #@! TF.SameCoordinates,Original*
G04 #@! TF.FileFunction,Legend,Bot*
G04 #@! TF.FilePolarity,Positive*
%FSLAX46Y46*%
G04 Gerber Fmt 4.6, Leading zero omitted, Abs format (unit mm)*
G04 Created by KiCad (PCBNEW 5.1.9+dfsg1-1+deb11u1) date 2024-03-01 00:01:44*
%MOMM*%
%LPD*%
G01*
G04 APERTURE LIST*
%ADD10C,0.150000*%
G04 APERTURE END LIST*
D10*
X123714285Y-98627380D02*
X123142857Y-98627380D01*
X123428571Y-99627380D02*
X123428571Y-98627380D01*
X122666666Y-99627380D02*
X122761904Y-99579761D01*
X122809523Y-99532142D01*
X122857142Y-99436904D01*
X122857142Y-99151190D01*
X122809523Y-99055952D01*
X122761904Y-99008333D01*
X122666666Y-98960714D01*
X122523809Y-98960714D01*
X122428571Y-99008333D01*
X122380952Y-99055952D01*
X122333333Y-99151190D01*
X122333333Y-99436904D01*
X122380952Y-99532142D01*
X122428571Y-99579761D01*
X122523809Y-99627380D01*
X122666666Y-99627380D01*
X121761904Y-99627380D02*
X121857142Y-99579761D01*
X121904761Y-99532142D01*
X121952380Y-99436904D01*
X121952380Y-99151190D01*
X121904761Y-99055952D01*
X121857142Y-99008333D01*
X121761904Y-98960714D01*
X121619047Y-98960714D01*
X121523809Y-99008333D01*
X121476190Y-99055952D01*
X121428571Y-99151190D01*
X121428571Y-99436904D01*
X121476190Y-99532142D01*
X121523809Y-99579761D01*
X121619047Y-99627380D01*
X121761904Y-99627380D01*
X120857142Y-99627380D02*
X120952380Y-99579761D01*
X121000000Y-99484523D01*
X121000000Y-98627380D01*
X119714285Y-98960714D02*
X119714285Y-99960714D01*
X119714285Y-99008333D02*
X119619047Y-98960714D01*
X119428571Y-98960714D01*
X119333333Y-99008333D01*
X119285714Y-99055952D01*
X119238095Y-99151190D01*
X119238095Y-99436904D01*
X119285714Y-99532142D01*
X119333333Y-99579761D01*
X119428571Y-99627380D01*
X119619047Y-99627380D01*
X119714285Y-99579761D01*
X118666666Y-99627380D02*
X118761904Y-99579761D01*
X118809523Y-99484523D01*
X118809523Y-98627380D01*
X117857142Y-99627380D02*
X117857142Y-99103571D01*
X117904761Y-99008333D01*
X118000000Y-98960714D01*
X118190476Y-98960714D01*
X118285714Y-99008333D01*
X117857142Y-99579761D02*
X117952380Y-99627380D01*
X118190476Y-99627380D01*
X118285714Y-99579761D01*
X118333333Y-99484523D01*
X118333333Y-99389285D01*
X118285714Y-99294047D01*
X118190476Y-99246428D01*
X117952380Y-99246428D01*
X117857142Y-99198809D01*
X117523809Y-98960714D02*
X117142857Y-98960714D01*
X117380952Y-98627380D02*
X117380952Y-99484523D01*
X117333333Y-99579761D01*
X117238095Y-99627380D01*
X117142857Y-99627380D01*
X116428571Y-99579761D02*
X116523809Y-99627380D01*
X116714285Y-99627380D01*
X116809523Y-99579761D01*
X116857142Y-99484523D01*
X116857142Y-99103571D01*
X116809523Y-99008333D01*
X116714285Y-98960714D01*
X116523809Y-98960714D01*
X116428571Y-99008333D01*
X116380952Y-99103571D01*
X116380952Y-99198809D01*
X116857142Y-99294047D01*
X121214285Y-101277380D02*
X121547619Y-100801190D01*
X121785714Y-101277380D02*
X121785714Y-100277380D01*
X121404761Y-100277380D01*
X121309523Y-100325000D01*
X121261904Y-100372619D01*
X121214285Y-100467857D01*
X121214285Y-100610714D01*
X121261904Y-100705952D01*
X121309523Y-100753571D01*
X121404761Y-100801190D01*
X121785714Y-100801190D01*
X120404761Y-101229761D02*
X120500000Y-101277380D01*
X120690476Y-101277380D01*
X120785714Y-101229761D01*
X120833333Y-101134523D01*
X120833333Y-100753571D01*
X120785714Y-100658333D01*
X120690476Y-100610714D01*
X120500000Y-100610714D01*
X120404761Y-100658333D01*
X120357142Y-100753571D01*
X120357142Y-100848809D01*
X120833333Y-100944047D01*
X120023809Y-100610714D02*
X119785714Y-101277380D01*
X119547619Y-100610714D01*
X119166666Y-101182142D02*
X119119047Y-101229761D01*
X119166666Y-101277380D01*
X119214285Y-101229761D01*
X119166666Y-101182142D01*
X119166666Y-101277380D01*
X118166666Y-101277380D02*
X118738095Y-101277380D01*
X118452380Y-101277380D02*
X118452380Y-100277380D01*
X118547619Y-100420238D01*
X118642857Y-100515476D01*
X118738095Y-100563095D01*
X143052060Y-100909828D02*
X143045680Y-101016117D01*
X142974252Y-101139834D01*
X142861584Y-101239743D01*
X142731486Y-101274602D01*
X142625198Y-101268223D01*
X142436431Y-101214224D01*
X142312713Y-101142795D01*
X142171565Y-101006318D01*
X142112896Y-100917460D01*
X142078037Y-100787362D01*
X142108226Y-100639834D01*
X142155845Y-100557356D01*
X142268513Y-100457447D01*
X142333562Y-100440018D01*
X142622237Y-100606684D01*
X142526999Y-100771642D01*
X142465369Y-100021245D02*
X143331394Y-100521245D01*
X142751083Y-99526373D01*
X143617109Y-100026373D01*
X142989178Y-99113980D02*
X143855204Y-99613980D01*
X143974252Y-99407784D01*
X144004441Y-99260256D01*
X143969581Y-99130159D01*
X143910912Y-99041300D01*
X143769764Y-98904823D01*
X143646047Y-98833394D01*
X143457280Y-98779395D01*
X143350992Y-98773016D01*
X143220894Y-98807875D01*
X143108226Y-98907784D01*
X142989178Y-99113980D01*
X95859081Y-99119108D02*
X96891773Y-98907784D01*
X96192414Y-99696459D01*
X97428342Y-100027625D02*
X97445772Y-99962576D01*
X97415582Y-99815048D01*
X97367963Y-99732570D01*
X97255295Y-99632661D01*
X97125198Y-99597802D01*
X97018910Y-99604182D01*
X96830143Y-99658180D01*
X96706425Y-99729609D01*
X96565277Y-99866086D01*
X96506608Y-99954945D01*
X96471749Y-100085042D01*
X96501938Y-100232570D01*
X96549557Y-100315048D01*
X96662225Y-100414957D01*
X96727274Y-100432387D01*
X97928342Y-100893650D02*
X97945772Y-100828601D01*
X97915582Y-100681074D01*
X97867963Y-100598595D01*
X97755295Y-100498687D01*
X97625198Y-100463827D01*
X97518910Y-100470207D01*
X97330143Y-100524206D01*
X97206425Y-100595634D01*
X97065277Y-100732112D01*
X97006608Y-100820970D01*
X96971749Y-100951068D01*
X97001938Y-101098595D01*
X97049557Y-101181074D01*
X97162225Y-101280982D01*
X97227274Y-101298412D01*
X120500000Y-60952380D02*
X120500000Y-59952380D01*
X120023809Y-60952380D02*
X120023809Y-59952380D01*
X119785714Y-59952380D01*
X119642857Y-60000000D01*
X119547619Y-60095238D01*
X119500000Y-60190476D01*
X119452380Y-60380952D01*
X119452380Y-60523809D01*
X119500000Y-60714285D01*
X119547619Y-60809523D01*
X119642857Y-60904761D01*
X119785714Y-60952380D01*
X120023809Y-60952380D01*
%LPC*%
M02*
