G04 #@! TF.GenerationSoftware,KiCad,Pcbnew,5.1.9+dfsg1-1+deb11u1*
G04 #@! TF.CreationDate,2024-03-16T20:12:57+09:00*
G04 #@! TF.ProjectId,outer,6f757465-722e-46b6-9963-61645f706362,rev?*
G04 #@! TF.SameCoordinates,Original*
G04 #@! TF.FileFunction,Legend,Bot*
G04 #@! TF.FilePolarity,Positive*
%FSLAX46Y46*%
G04 Gerber Fmt 4.6, Leading zero omitted, Abs format (unit mm)*
G04 Created by KiCad (PCBNEW 5.1.9+dfsg1-1+deb11u1) date 2024-03-16 20:12:57*
%MOMM*%
%LPD*%
G01*
G04 APERTURE LIST*
%ADD10C,0.150000*%
G04 APERTURE END LIST*
D10*
X123404761Y-100452380D02*
X123404761Y-99452380D01*
X123404761Y-99833333D02*
X123309523Y-99785714D01*
X123119047Y-99785714D01*
X123023809Y-99833333D01*
X122976190Y-99880952D01*
X122928571Y-99976190D01*
X122928571Y-100261904D01*
X122976190Y-100357142D01*
X123023809Y-100404761D01*
X123119047Y-100452380D01*
X123309523Y-100452380D01*
X123404761Y-100404761D01*
X122071428Y-100452380D02*
X122071428Y-99928571D01*
X122119047Y-99833333D01*
X122214285Y-99785714D01*
X122404761Y-99785714D01*
X122500000Y-99833333D01*
X122071428Y-100404761D02*
X122166666Y-100452380D01*
X122404761Y-100452380D01*
X122500000Y-100404761D01*
X122547619Y-100309523D01*
X122547619Y-100214285D01*
X122500000Y-100119047D01*
X122404761Y-100071428D01*
X122166666Y-100071428D01*
X122071428Y-100023809D01*
X121166666Y-100404761D02*
X121261904Y-100452380D01*
X121452380Y-100452380D01*
X121547619Y-100404761D01*
X121595238Y-100357142D01*
X121642857Y-100261904D01*
X121642857Y-99976190D01*
X121595238Y-99880952D01*
X121547619Y-99833333D01*
X121452380Y-99785714D01*
X121261904Y-99785714D01*
X121166666Y-99833333D01*
X120738095Y-100452380D02*
X120738095Y-99452380D01*
X120642857Y-100071428D02*
X120357142Y-100452380D01*
X120357142Y-99785714D02*
X120738095Y-100166666D01*
X119214285Y-100404761D02*
X119119047Y-100452380D01*
X118928571Y-100452380D01*
X118833333Y-100404761D01*
X118785714Y-100309523D01*
X118785714Y-100261904D01*
X118833333Y-100166666D01*
X118928571Y-100119047D01*
X119071428Y-100119047D01*
X119166666Y-100071428D01*
X119214285Y-99976190D01*
X119214285Y-99928571D01*
X119166666Y-99833333D01*
X119071428Y-99785714D01*
X118928571Y-99785714D01*
X118833333Y-99833333D01*
X118357142Y-100452380D02*
X118357142Y-99785714D01*
X118357142Y-99452380D02*
X118404761Y-99500000D01*
X118357142Y-99547619D01*
X118309523Y-99500000D01*
X118357142Y-99452380D01*
X118357142Y-99547619D01*
X117452380Y-100452380D02*
X117452380Y-99452380D01*
X117452380Y-100404761D02*
X117547619Y-100452380D01*
X117738095Y-100452380D01*
X117833333Y-100404761D01*
X117880952Y-100357142D01*
X117928571Y-100261904D01*
X117928571Y-99976190D01*
X117880952Y-99880952D01*
X117833333Y-99833333D01*
X117738095Y-99785714D01*
X117547619Y-99785714D01*
X117452380Y-99833333D01*
X116595238Y-100404761D02*
X116690476Y-100452380D01*
X116880952Y-100452380D01*
X116976190Y-100404761D01*
X117023809Y-100309523D01*
X117023809Y-99928571D01*
X116976190Y-99833333D01*
X116880952Y-99785714D01*
X116690476Y-99785714D01*
X116595238Y-99833333D01*
X116547619Y-99928571D01*
X116547619Y-100023809D01*
X117023809Y-100119047D01*
X123404761Y-60952380D02*
X123404761Y-59952380D01*
X123404761Y-60333333D02*
X123309523Y-60285714D01*
X123119047Y-60285714D01*
X123023809Y-60333333D01*
X122976190Y-60380952D01*
X122928571Y-60476190D01*
X122928571Y-60761904D01*
X122976190Y-60857142D01*
X123023809Y-60904761D01*
X123119047Y-60952380D01*
X123309523Y-60952380D01*
X123404761Y-60904761D01*
X122071428Y-60952380D02*
X122071428Y-60428571D01*
X122119047Y-60333333D01*
X122214285Y-60285714D01*
X122404761Y-60285714D01*
X122500000Y-60333333D01*
X122071428Y-60904761D02*
X122166666Y-60952380D01*
X122404761Y-60952380D01*
X122500000Y-60904761D01*
X122547619Y-60809523D01*
X122547619Y-60714285D01*
X122500000Y-60619047D01*
X122404761Y-60571428D01*
X122166666Y-60571428D01*
X122071428Y-60523809D01*
X121166666Y-60904761D02*
X121261904Y-60952380D01*
X121452380Y-60952380D01*
X121547619Y-60904761D01*
X121595238Y-60857142D01*
X121642857Y-60761904D01*
X121642857Y-60476190D01*
X121595238Y-60380952D01*
X121547619Y-60333333D01*
X121452380Y-60285714D01*
X121261904Y-60285714D01*
X121166666Y-60333333D01*
X120738095Y-60952380D02*
X120738095Y-59952380D01*
X120642857Y-60571428D02*
X120357142Y-60952380D01*
X120357142Y-60285714D02*
X120738095Y-60666666D01*
X119214285Y-60904761D02*
X119119047Y-60952380D01*
X118928571Y-60952380D01*
X118833333Y-60904761D01*
X118785714Y-60809523D01*
X118785714Y-60761904D01*
X118833333Y-60666666D01*
X118928571Y-60619047D01*
X119071428Y-60619047D01*
X119166666Y-60571428D01*
X119214285Y-60476190D01*
X119214285Y-60428571D01*
X119166666Y-60333333D01*
X119071428Y-60285714D01*
X118928571Y-60285714D01*
X118833333Y-60333333D01*
X118357142Y-60952380D02*
X118357142Y-60285714D01*
X118357142Y-59952380D02*
X118404761Y-60000000D01*
X118357142Y-60047619D01*
X118309523Y-60000000D01*
X118357142Y-59952380D01*
X118357142Y-60047619D01*
X117452380Y-60952380D02*
X117452380Y-59952380D01*
X117452380Y-60904761D02*
X117547619Y-60952380D01*
X117738095Y-60952380D01*
X117833333Y-60904761D01*
X117880952Y-60857142D01*
X117928571Y-60761904D01*
X117928571Y-60476190D01*
X117880952Y-60380952D01*
X117833333Y-60333333D01*
X117738095Y-60285714D01*
X117547619Y-60285714D01*
X117452380Y-60333333D01*
X116595238Y-60904761D02*
X116690476Y-60952380D01*
X116880952Y-60952380D01*
X116976190Y-60904761D01*
X117023809Y-60809523D01*
X117023809Y-60428571D01*
X116976190Y-60333333D01*
X116880952Y-60285714D01*
X116690476Y-60285714D01*
X116595238Y-60333333D01*
X116547619Y-60428571D01*
X116547619Y-60523809D01*
X117023809Y-60619047D01*
%LPC*%
M02*
