G04 #@! TF.GenerationSoftware,KiCad,Pcbnew,5.1.9+dfsg1-1+deb11u1*
G04 #@! TF.CreationDate,2024-03-16T20:11:09+09:00*
G04 #@! TF.ProjectId,inner,696e6e65-722e-46b6-9963-61645f706362,rev?*
G04 #@! TF.SameCoordinates,Original*
G04 #@! TF.FileFunction,Legend,Top*
G04 #@! TF.FilePolarity,Positive*
%FSLAX46Y46*%
G04 Gerber Fmt 4.6, Leading zero omitted, Abs format (unit mm)*
G04 Created by KiCad (PCBNEW 5.1.9+dfsg1-1+deb11u1) date 2024-03-16 20:11:09*
%MOMM*%
%LPD*%
G01*
G04 APERTURE LIST*
%ADD10C,0.150000*%
%ADD11C,1.000000*%
%ADD12C,5.000000*%
G04 APERTURE END LIST*
D10*
X154666666Y-105952380D02*
X154666666Y-106666666D01*
X154619047Y-106809523D01*
X154523809Y-106904761D01*
X154380952Y-106952380D01*
X154285714Y-106952380D01*
X155047619Y-105952380D02*
X155666666Y-105952380D01*
X155333333Y-106333333D01*
X155476190Y-106333333D01*
X155571428Y-106380952D01*
X155619047Y-106428571D01*
X155666666Y-106523809D01*
X155666666Y-106761904D01*
X155619047Y-106857142D01*
X155571428Y-106904761D01*
X155476190Y-106952380D01*
X155190476Y-106952380D01*
X155095238Y-106904761D01*
X155047619Y-106857142D01*
X154874572Y-104687515D02*
X154255982Y-105044658D01*
X154108455Y-105074847D01*
X153978357Y-105039987D01*
X153865689Y-104940079D01*
X153818070Y-104857600D01*
X155350762Y-105512301D02*
X155112667Y-105099908D01*
X154676465Y-105296764D01*
X154741513Y-105314194D01*
X154830372Y-105372863D01*
X154949419Y-105579059D01*
X154955799Y-105685347D01*
X154938369Y-105750396D01*
X154879700Y-105839255D01*
X154673504Y-105958302D01*
X154567216Y-105964682D01*
X154502167Y-105947252D01*
X154413308Y-105888583D01*
X154294261Y-105682387D01*
X154287881Y-105576098D01*
X154305311Y-105511050D01*
X154792094Y-105264865D02*
X155410683Y-105622008D01*
X155510592Y-105734676D01*
X155545451Y-105864774D01*
X155515262Y-106012301D01*
X155467643Y-106094780D01*
X155533150Y-104647985D02*
X156110500Y-104981318D01*
X155084188Y-104663705D02*
X155583730Y-105227045D01*
X155893254Y-104690934D01*
X153060043Y-104264865D02*
X153678632Y-104622008D01*
X153778541Y-104734676D01*
X153813400Y-104864774D01*
X153783211Y-105012301D01*
X153735592Y-105094780D01*
X153356807Y-103941330D02*
X153339377Y-103876282D01*
X153345757Y-103769993D01*
X153464805Y-103563797D01*
X153553663Y-103505128D01*
X153618712Y-103487698D01*
X153725000Y-103494078D01*
X153807479Y-103541697D01*
X153907387Y-103654365D01*
X154116544Y-104434951D01*
X154426068Y-103898840D01*
X156606623Y-103687515D02*
X155988033Y-104044658D01*
X155840506Y-104074847D01*
X155710408Y-104039987D01*
X155597740Y-103940079D01*
X155550121Y-103857600D01*
X156240597Y-105053540D02*
X155954883Y-104558669D01*
X156097740Y-104806104D02*
X156963766Y-104306104D01*
X156792429Y-104295054D01*
X156662331Y-104260195D01*
X156573473Y-104201526D01*
%LPC*%
D11*
X159500000Y-88500000D03*
X150500000Y-88500000D03*
X159500000Y-81500000D03*
X150500000Y-81500000D03*
G36*
G01*
X148500000Y-88150000D02*
X148500000Y-81850000D01*
G75*
G02*
X148850000Y-81500000I350000J0D01*
G01*
X161150000Y-81500000D01*
G75*
G02*
X161500000Y-81850000I0J-350000D01*
G01*
X161500000Y-88150000D01*
G75*
G02*
X161150000Y-88500000I-350000J0D01*
G01*
X148850000Y-88500000D01*
G75*
G02*
X148500000Y-88150000I0J350000D01*
G01*
G37*
D12*
X155000000Y-93000000D03*
D11*
X172088457Y-98598076D03*
X175552559Y-96598076D03*
X169088457Y-93401924D03*
X172552559Y-91401924D03*
G36*
G01*
X168590189Y-92534899D02*
X172050827Y-90536899D01*
G75*
G02*
X173419584Y-90903656I501000J-867757D01*
G01*
X176417584Y-96096344D01*
G75*
G02*
X176050827Y-97465101I-867757J-501000D01*
G01*
X172590189Y-99463101D01*
G75*
G02*
X171221432Y-99096344I-501000J867757D01*
G01*
X168223432Y-93903656D01*
G75*
G02*
X168590189Y-92534899I867757J501000D01*
G01*
G37*
X140911543Y-93401924D03*
X137447441Y-91401924D03*
X137911543Y-98598076D03*
X134447441Y-96598076D03*
G36*
G01*
X137409811Y-99463101D02*
X133949173Y-97465101D01*
G75*
G02*
X133582416Y-96096344I501000J867757D01*
G01*
X136580416Y-90903656D01*
G75*
G02*
X137949173Y-90536899I867757J-501000D01*
G01*
X141409811Y-92534899D01*
G75*
G02*
X141776568Y-93903656I-501000J-867757D01*
G01*
X138778568Y-99096344D01*
G75*
G02*
X137409811Y-99463101I-867757J501000D01*
G01*
G37*
X167039419Y-117147114D03*
X171539419Y-109352886D03*
X173101597Y-120647114D03*
X177601597Y-112852886D03*
G36*
G01*
X172842528Y-107795835D02*
X178298488Y-110945835D01*
G75*
G02*
X178426597Y-111423944I-175000J-303109D01*
G01*
X172276597Y-122076056D01*
G75*
G02*
X171798488Y-122204165I-303109J175000D01*
G01*
X166342528Y-119054165D01*
G75*
G02*
X166214419Y-118576056I175000J303109D01*
G01*
X172364419Y-107923944D01*
G75*
G02*
X172842528Y-107795835I303109J-175000D01*
G01*
G37*
D12*
X165392305Y-111000000D03*
D11*
X138460581Y-109352886D03*
X142960581Y-117147114D03*
X132398403Y-112852886D03*
X136898403Y-120647114D03*
G36*
G01*
X143657472Y-119054165D02*
X138201512Y-122204165D01*
G75*
G02*
X137723403Y-122076056I-175000J303109D01*
G01*
X131573403Y-111423944D01*
G75*
G02*
X131701512Y-110945835I303109J175000D01*
G01*
X137157472Y-107795835D01*
G75*
G02*
X137635581Y-107923944I175000J-303109D01*
G01*
X143785581Y-118576056D01*
G75*
G02*
X143657472Y-119054165I-303109J-175000D01*
G01*
G37*
D12*
X144607695Y-111000000D03*
M02*
