G04 #@! TF.GenerationSoftware,KiCad,Pcbnew,5.1.9+dfsg1-1+deb11u1*
G04 #@! TF.CreationDate,2024-03-16T20:11:09+09:00*
G04 #@! TF.ProjectId,inner,696e6e65-722e-46b6-9963-61645f706362,rev?*
G04 #@! TF.SameCoordinates,Original*
G04 #@! TF.FileFunction,Legend,Bot*
G04 #@! TF.FilePolarity,Positive*
%FSLAX46Y46*%
G04 Gerber Fmt 4.6, Leading zero omitted, Abs format (unit mm)*
G04 Created by KiCad (PCBNEW 5.1.9+dfsg1-1+deb11u1) date 2024-03-16 20:11:09*
%MOMM*%
%LPD*%
G01*
G04 APERTURE LIST*
%ADD10C,0.150000*%
%ADD11C,0.120000*%
%ADD12C,1.000000*%
%ADD13C,5.000000*%
G04 APERTURE END LIST*
D10*
X155809523Y-76952380D02*
X156142857Y-76476190D01*
X156380952Y-76952380D02*
X156380952Y-75952380D01*
X156000000Y-75952380D01*
X155904761Y-76000000D01*
X155857142Y-76047619D01*
X155809523Y-76142857D01*
X155809523Y-76285714D01*
X155857142Y-76380952D01*
X155904761Y-76428571D01*
X156000000Y-76476190D01*
X156380952Y-76476190D01*
X155619047Y-77047619D02*
X154857142Y-77047619D01*
X154619047Y-76952380D02*
X154619047Y-75952380D01*
X154142857Y-76952380D02*
X154142857Y-75952380D01*
X153904761Y-75952380D01*
X153761904Y-76000000D01*
X153666666Y-76095238D01*
X153619047Y-76190476D01*
X153571428Y-76380952D01*
X153571428Y-76523809D01*
X153619047Y-76714285D01*
X153666666Y-76809523D01*
X153761904Y-76904761D01*
X153904761Y-76952380D01*
X154142857Y-76952380D01*
D11*
X155227064Y-77765000D02*
X154772936Y-77765000D01*
X155227064Y-79235000D02*
X154772936Y-79235000D01*
%LPC*%
D12*
X159500000Y-88500000D03*
X150500000Y-88500000D03*
X159500000Y-81500000D03*
X150500000Y-81500000D03*
D13*
X155000000Y-93000000D03*
D12*
X172088457Y-98598076D03*
X175552559Y-96598076D03*
X169088457Y-93401924D03*
X172552559Y-91401924D03*
G36*
G01*
X168590189Y-92534899D02*
X172050827Y-90536899D01*
G75*
G02*
X173419584Y-90903656I501000J-867757D01*
G01*
X176417584Y-96096344D01*
G75*
G02*
X176050827Y-97465101I-867757J-501000D01*
G01*
X172590189Y-99463101D01*
G75*
G02*
X171221432Y-99096344I-501000J867757D01*
G01*
X168223432Y-93903656D01*
G75*
G02*
X168590189Y-92534899I867757J501000D01*
G01*
G37*
X140911543Y-93401924D03*
X137447441Y-91401924D03*
X137911543Y-98598076D03*
X134447441Y-96598076D03*
G36*
G01*
X137409811Y-99463101D02*
X133949173Y-97465101D01*
G75*
G02*
X133582416Y-96096344I501000J867757D01*
G01*
X136580416Y-90903656D01*
G75*
G02*
X137949173Y-90536899I867757J-501000D01*
G01*
X141409811Y-92534899D01*
G75*
G02*
X141776568Y-93903656I-501000J-867757D01*
G01*
X138778568Y-99096344D01*
G75*
G02*
X137409811Y-99463101I-867757J501000D01*
G01*
G37*
G36*
G01*
X172842528Y-107795835D02*
X178298488Y-110945835D01*
G75*
G02*
X178426597Y-111423944I-175000J-303109D01*
G01*
X172276597Y-122076056D01*
G75*
G02*
X171798488Y-122204165I-303109J175000D01*
G01*
X166342528Y-119054165D01*
G75*
G02*
X166214419Y-118576056I175000J303109D01*
G01*
X172364419Y-107923944D01*
G75*
G02*
X172842528Y-107795835I303109J-175000D01*
G01*
G37*
X167039419Y-117147114D03*
X171539419Y-109352886D03*
X173101597Y-120647114D03*
X177601597Y-112852886D03*
D13*
X165392305Y-111000000D03*
G36*
G01*
X143657472Y-119054165D02*
X138201512Y-122204165D01*
G75*
G02*
X137723403Y-122076056I-175000J303109D01*
G01*
X131573403Y-111423944D01*
G75*
G02*
X131701512Y-110945835I303109J175000D01*
G01*
X137157472Y-107795835D01*
G75*
G02*
X137635581Y-107923944I175000J-303109D01*
G01*
X143785581Y-118576056D01*
G75*
G02*
X143657472Y-119054165I-303109J-175000D01*
G01*
G37*
D12*
X138460581Y-109352886D03*
X142960581Y-117147114D03*
X132398403Y-112852886D03*
X136898403Y-120647114D03*
D13*
X144607695Y-111000000D03*
G36*
G01*
X156600000Y-78049999D02*
X156600000Y-78950001D01*
G75*
G02*
X156350001Y-79200000I-249999J0D01*
G01*
X155649999Y-79200000D01*
G75*
G02*
X155400000Y-78950001I0J249999D01*
G01*
X155400000Y-78049999D01*
G75*
G02*
X155649999Y-77800000I249999J0D01*
G01*
X156350001Y-77800000D01*
G75*
G02*
X156600000Y-78049999I0J-249999D01*
G01*
G37*
G36*
G01*
X154600000Y-78049999D02*
X154600000Y-78950001D01*
G75*
G02*
X154350001Y-79200000I-249999J0D01*
G01*
X153649999Y-79200000D01*
G75*
G02*
X153400000Y-78950001I0J249999D01*
G01*
X153400000Y-78049999D01*
G75*
G02*
X153649999Y-77800000I249999J0D01*
G01*
X154350001Y-77800000D01*
G75*
G02*
X154600000Y-78049999I0J-249999D01*
G01*
G37*
M02*
