G04 #@! TF.GenerationSoftware,KiCad,Pcbnew,5.1.9+dfsg1-1+deb11u1*
G04 #@! TF.CreationDate,2024-03-16T20:11:09+09:00*
G04 #@! TF.ProjectId,inner,696e6e65-722e-46b6-9963-61645f706362,rev?*
G04 #@! TF.SameCoordinates,Original*
G04 #@! TF.FileFunction,Paste,Top*
G04 #@! TF.FilePolarity,Positive*
%FSLAX46Y46*%
G04 Gerber Fmt 4.6, Leading zero omitted, Abs format (unit mm)*
G04 Created by KiCad (PCBNEW 5.1.9+dfsg1-1+deb11u1) date 2024-03-16 20:11:09*
%MOMM*%
%LPD*%
G01*
G04 APERTURE LIST*
G04 APERTURE END LIST*
G36*
G01*
X148500000Y-88150000D02*
X148500000Y-81850000D01*
G75*
G02*
X148850000Y-81500000I350000J0D01*
G01*
X161150000Y-81500000D01*
G75*
G02*
X161500000Y-81850000I0J-350000D01*
G01*
X161500000Y-88150000D01*
G75*
G02*
X161150000Y-88500000I-350000J0D01*
G01*
X148850000Y-88500000D01*
G75*
G02*
X148500000Y-88150000I0J350000D01*
G01*
G37*
G36*
G01*
X168590189Y-92534899D02*
X172050827Y-90536899D01*
G75*
G02*
X173419584Y-90903656I501000J-867757D01*
G01*
X176417584Y-96096344D01*
G75*
G02*
X176050827Y-97465101I-867757J-501000D01*
G01*
X172590189Y-99463101D01*
G75*
G02*
X171221432Y-99096344I-501000J867757D01*
G01*
X168223432Y-93903656D01*
G75*
G02*
X168590189Y-92534899I867757J501000D01*
G01*
G37*
G36*
G01*
X137409811Y-99463101D02*
X133949173Y-97465101D01*
G75*
G02*
X133582416Y-96096344I501000J867757D01*
G01*
X136580416Y-90903656D01*
G75*
G02*
X137949173Y-90536899I867757J-501000D01*
G01*
X141409811Y-92534899D01*
G75*
G02*
X141776568Y-93903656I-501000J-867757D01*
G01*
X138778568Y-99096344D01*
G75*
G02*
X137409811Y-99463101I-867757J501000D01*
G01*
G37*
G36*
G01*
X172842528Y-107795835D02*
X178298488Y-110945835D01*
G75*
G02*
X178426597Y-111423944I-175000J-303109D01*
G01*
X172276597Y-122076056D01*
G75*
G02*
X171798488Y-122204165I-303109J175000D01*
G01*
X166342528Y-119054165D01*
G75*
G02*
X166214419Y-118576056I175000J303109D01*
G01*
X172364419Y-107923944D01*
G75*
G02*
X172842528Y-107795835I303109J-175000D01*
G01*
G37*
G36*
G01*
X143657472Y-119054165D02*
X138201512Y-122204165D01*
G75*
G02*
X137723403Y-122076056I-175000J303109D01*
G01*
X131573403Y-111423944D01*
G75*
G02*
X131701512Y-110945835I303109J175000D01*
G01*
X137157472Y-107795835D01*
G75*
G02*
X137635581Y-107923944I175000J-303109D01*
G01*
X143785581Y-118576056D01*
G75*
G02*
X143657472Y-119054165I-303109J-175000D01*
G01*
G37*
M02*
