M48
; DRILL file {KiCad 5.1.9+dfsg1-1+deb11u1} date Fri Mar  1 00:12:55 2024
; FORMAT={-:-/ absolute / metric / decimal}
; #@! TF.CreationDate,2024-03-01T00:12:55+09:00
; #@! TF.GenerationSoftware,Kicad,Pcbnew,5.1.9+dfsg1-1+deb11u1
; #@! TF.FileFunction,Plated,1,2,PTH
FMAT,2
METRIC
T1C0.400
T2C0.500
T3C0.600
T4C3.000
%
G90
G05
T1
X152.0Y-73.5
T2
X134.447Y-96.598
X137.447Y-91.402
X137.912Y-98.598
X140.912Y-93.402
X169.088Y-93.402
X172.088Y-98.598
X172.553Y-91.402
X175.553Y-96.598
T3
X132.398Y-112.853
X136.898Y-120.647
X138.461Y-109.353
X142.961Y-117.147
X150.5Y-81.5
X150.5Y-88.5
X159.5Y-81.5
X159.5Y-88.5
X167.039Y-117.147
X171.539Y-109.353
X173.102Y-120.647
X177.602Y-112.853
T4
X144.608Y-111.0
X155.0Y-93.0
X165.392Y-111.0
T0
M30
