G04 #@! TF.GenerationSoftware,KiCad,Pcbnew,5.1.9+dfsg1-1+deb11u1*
G04 #@! TF.CreationDate,2024-03-01T00:12:53+09:00*
G04 #@! TF.ProjectId,inner,696e6e65-722e-46b6-9963-61645f706362,rev?*
G04 #@! TF.SameCoordinates,Original*
G04 #@! TF.FileFunction,Profile,NP*
%FSLAX46Y46*%
G04 Gerber Fmt 4.6, Leading zero omitted, Abs format (unit mm)*
G04 Created by KiCad (PCBNEW 5.1.9+dfsg1-1+deb11u1) date 2024-03-01 00:12:53*
%MOMM*%
%LPD*%
G01*
G04 APERTURE LIST*
G04 #@! TA.AperFunction,Profile*
%ADD10C,0.050000*%
G04 #@! TD*
G04 APERTURE END LIST*
D10*
X162750000Y-78500000D02*
G75*
G03*
X162750000Y-78500000I-1250000J0D01*
G01*
X163799040Y-91981310D02*
G75*
G03*
X163799040Y-91981310I-1250000J0D01*
G01*
X171299000Y-104971700D02*
G75*
G03*
X171299000Y-104971700I-1250000J0D01*
G01*
X182449700Y-112620800D02*
G75*
G03*
X182449700Y-112620800I-1250000J0D01*
G01*
X175949700Y-123879200D02*
G75*
G03*
X175949700Y-123879200I-1250000J0D01*
G01*
X163750000Y-118046999D02*
G75*
G03*
X163750000Y-118046999I-1250000J0D01*
G01*
X149750000Y-78500000D02*
G75*
G03*
X149750000Y-78500000I-1250000J0D01*
G01*
X148700960Y-91981310D02*
G75*
G03*
X148700960Y-91981310I-1250000J0D01*
G01*
X163000000Y-105000000D02*
G75*
G03*
X163000000Y-105000000I-8000000J0D01*
G01*
X148750000Y-118046999D02*
G75*
G03*
X148750000Y-118046999I-1250000J0D01*
G01*
X141201000Y-104971700D02*
G75*
G03*
X141201000Y-104971700I-1250000J0D01*
G01*
X136550300Y-123879200D02*
G75*
G03*
X136550300Y-123879200I-1250000J0D01*
G01*
X130050300Y-112620800D02*
G75*
G03*
X130050300Y-112620800I-1250000J0D01*
G01*
X137009627Y-103066200D02*
G75*
G02*
X135179500Y-104896327I-4330127J2500000D01*
G01*
X135179500Y-104896400D02*
X127050300Y-109589700D01*
X125769211Y-114370800D02*
G75*
G02*
X127050300Y-109589711I3031089J1750000D01*
G01*
X125769200Y-114370800D02*
X132269200Y-125629200D01*
X137050300Y-126910288D02*
G75*
G02*
X132269212Y-125629200I-1750000J3031088D01*
G01*
X145179490Y-122216900D02*
X137050300Y-126910300D01*
X145179490Y-122216873D02*
G75*
G02*
X147679490Y-121547000I2500000J-4330127D01*
G01*
X162320510Y-121547000D02*
X147679490Y-121547000D01*
X162320510Y-121546999D02*
G75*
G02*
X164820510Y-122216872I0J-5000001D01*
G01*
X164820510Y-122216900D02*
X172949700Y-126910300D01*
X177730788Y-125629200D02*
G75*
G02*
X172949700Y-126910288I-3031088J1750000D01*
G01*
X177730800Y-125629200D02*
X184230800Y-114370800D01*
X182949700Y-109589712D02*
G75*
G02*
X184230788Y-114370800I-1750000J-3031088D01*
G01*
X182949700Y-109589700D02*
X174820500Y-104896400D01*
X174820499Y-104896328D02*
G75*
G02*
X172990372Y-103066200I2500001J4330128D01*
G01*
X172830100Y-102788700D02*
X172990400Y-103066200D01*
X172830149Y-102788700D02*
G75*
G02*
X173562200Y-100056649I1732051J1000000D01*
G01*
X173562200Y-100056600D02*
X176593300Y-98306600D01*
X177325350Y-95574600D02*
G75*
G02*
X176593300Y-98306650I-1732050J-1000000D01*
G01*
X177325300Y-95574600D02*
X174325300Y-90378420D01*
X171593300Y-89646370D02*
G75*
G02*
X174325350Y-90378420I1000000J-1732050D01*
G01*
X171593300Y-89646370D02*
X168562200Y-91396370D01*
X168562200Y-91396371D02*
G75*
G02*
X165830149Y-90664320I-1000000J1732051D01*
G01*
X165669900Y-90386750D02*
X165830100Y-90664320D01*
X165669872Y-90386749D02*
G75*
G02*
X165000000Y-87886749I4330128J2499999D01*
G01*
X165000000Y-87886750D02*
X165000000Y-71000000D01*
X161500000Y-67500000D02*
G75*
G02*
X165000000Y-71000000I0J-3500000D01*
G01*
X161500000Y-67500000D02*
X148500000Y-67500000D01*
X145000000Y-71000000D02*
G75*
G02*
X148500000Y-67500000I3500000J0D01*
G01*
X145000000Y-71000000D02*
X145000000Y-87886750D01*
X145000000Y-87886749D02*
G75*
G02*
X144330128Y-90386749I-5000000J-1D01*
G01*
X144330100Y-90386750D02*
X144169900Y-90664320D01*
X144169850Y-90664320D02*
G75*
G02*
X141437800Y-91396370I-1732050J1000000D01*
G01*
X138406700Y-89646370D02*
X141437800Y-91396370D01*
X135674649Y-90378420D02*
G75*
G02*
X138406700Y-89646369I1732051J-1000000D01*
G01*
X132674700Y-95574600D02*
X135674700Y-90378420D01*
X133406700Y-98306650D02*
G75*
G02*
X132674650Y-95574600I1000000J1732050D01*
G01*
X136437800Y-100056600D02*
X133406700Y-98306600D01*
X136437800Y-100056649D02*
G75*
G02*
X137169851Y-102788700I-1000000J-1732051D01*
G01*
X137169900Y-102788700D02*
X137009600Y-103066200D01*
M02*
